<svg width="51" height="51" viewBox="0 0 51 51" fill="none" xmlns="http://www.w3.org/2000/svg">
<g filter="url(#filter0_d_336_1001)">
<rect x="2" y="2" width="43" height="43" rx="8" fill="#63BE37"/>
</g>
<path d="M25.7151 19.4593C25.7151 17.2276 23.8492 15.4199 21.5454 15.4199C19.2417 15.4199 17.3758 17.2276 17.3758 19.4593C17.3758 21.6911 19.2417 23.4987 21.5454 23.4987C23.8492 23.4987 25.7151 21.6911 25.7151 19.4593ZM27.8 21.479V23.4987H30.9273V26.5283H33.0121V23.4987H36.1394V21.479H33.0121V18.4495H30.9273V21.479H27.8ZM13.2061 29.5578V31.5775H29.8848V29.5578C29.8848 26.8716 24.3287 25.5184 21.5454 25.5184C18.7622 25.5184 13.2061 26.8716 13.2061 29.5578Z" fill="white"/>
<defs>
<filter id="filter0_d_336_1001" x="0" y="0" width="51" height="51" filterUnits="userSpaceOnUse" color-interpolation-filters="sRGB">
<feFlood flood-opacity="0" result="BackgroundImageFix"/>
<feColorMatrix in="SourceAlpha" type="matrix" values="0 0 0 0 0 0 0 0 0 0 0 0 0 0 0 0 0 0 127 0" result="hardAlpha"/>
<feOffset dx="2" dy="2"/>
<feGaussianBlur stdDeviation="2"/>
<feComposite in2="hardAlpha" operator="out"/>
<feColorMatrix type="matrix" values="0 0 0 0 0 0 0 0 0 0 0 0 0 0 0 0 0 0 0.25 0"/>
<feBlend mode="normal" in2="BackgroundImageFix" result="effect1_dropShadow_336_1001"/>
<feBlend mode="normal" in="SourceGraphic" in2="effect1_dropShadow_336_1001" result="shape"/>
</filter>
</defs>
</svg>
