<svg xmlns="http://www.w3.org/2000/svg" xmlns:xlink="http://www.w3.org/1999/xlink" viewBox="0 0 68.01 58"><defs><style>.cls-1{fill:#c2ddf9;}.cls-2{fill:url(#linear-gradient);}.cls-3,.cls-7{fill:#fff;}.cls-4{fill:url(#linear-gradient-2);}.cls-5{fill:#66abf0;}.cls-6{fill:#347dc7;}.cls-7{stroke:#66abf0;stroke-miterlimit:10;stroke-width:0.63px;}</style><linearGradient id="linear-gradient" x1="56.29" y1="8.79" x2="56.29" gradientUnits="userSpaceOnUse"><stop offset="0" stop-color="#c2ddf9"/><stop offset="1" stop-color="#8eafd1"/></linearGradient><linearGradient id="linear-gradient-2" x1="35.46" y1="30.44" x2="35.46" y2="-23.45" gradientUnits="userSpaceOnUse"><stop offset="0" stop-color="#fff"/><stop offset="1" stop-color="#c2ddf9"/></linearGradient></defs><title>Asset 6</title><g id="Layer_2" data-name="Layer 2"><g id="Layer_1-2" data-name="Layer 1"><path class="cls-1" d="M62.71,16H32.48a2.84,2.84,0,0,1-2.13-1l-3.06-3.5a2.59,2.59,0,0,0-1.93-.87H5.69a2.56,2.56,0,0,0-2.55,2.56v26.2H65.55V18.8A2.85,2.85,0,0,0,62.71,16Z"/><path class="cls-2" d="M58.49,8.79V2.21a2.21,2.21,0,1,0-4.41,0V8.79Z"/><path class="cls-3" d="M54.08,2.21A2.21,2.21,0,0,1,56.29,0H18.09a3.44,3.44,0,0,0-3.45,3.45V45H54.08V2.21Z"/><path class="cls-4" d="M54.08,2.21A2.21,2.21,0,0,1,56.29,0H18.09a3.44,3.44,0,0,0-3.45,3.45V45H54.08V2.21Z"/><path class="cls-5" d="M68,30,66.16,58H2.61L0,34.39a2.36,2.36,0,0,1,2.35-2.61h34.8a2.34,2.34,0,0,0,1.39-.46L43.16,28a2.32,2.32,0,0,1,1.39-.46h21.1a2.36,2.36,0,0,1,1.24.35A2.39,2.39,0,0,1,68,30Z"/><path class="cls-6" d="M68,30,66.16,58H2.61L66.89,27.84A2.39,2.39,0,0,1,68,30Z"/><path class="cls-7" d="M37.81,18.77V9a.89.89,0,0,0-.89-.89H31.8a.89.89,0,0,0-.89.89v9.74a.88.88,0,0,1-.89.88H28.3a.89.89,0,0,0-.63,1.52l6.06,6.06a.89.89,0,0,0,1.26,0l6.06-6.06a.89.89,0,0,0-.63-1.52H38.7A.88.88,0,0,1,37.81,18.77Z"/></g></g></svg>