<svg xmlns="http://www.w3.org/2000/svg" xmlns:xlink="http://www.w3.org/1999/xlink" viewBox="0 0 52.05 57.36"><defs><style>.cls-1{fill:url(#linear-gradient);}.cls-2{fill:url(#linear-gradient-2);}.cls-3{fill:url(#linear-gradient-3);}.cls-4{fill:#fff;stroke-miterlimit:10;stroke-width:0.61px;}.cls-4,.cls-5{stroke:#66abf0;}.cls-5{fill:none;stroke-linecap:round;stroke-linejoin:round;stroke-width:2.79px;}</style><linearGradient id="linear-gradient" x1="49.24" y1="11.19" x2="49.24" gradientUnits="userSpaceOnUse"><stop offset="0" stop-color="#d4e7ff"/><stop offset="1" stop-color="#73a1d1"/></linearGradient><linearGradient id="linear-gradient-2" x1="24.62" y1="57.36" x2="24.62" gradientUnits="userSpaceOnUse"><stop offset="0" stop-color="#d4e7ff"/><stop offset="1" stop-color="#99c0e8"/></linearGradient><linearGradient id="linear-gradient-3" x1="24.62" y1="57.36" x2="24.62" gradientUnits="userSpaceOnUse"><stop offset="0" stop-color="#a0c4e8"/><stop offset="1" stop-color="#e0eeff"/></linearGradient></defs><title>Asset 4</title><g id="Layer_2" data-name="Layer 2"><g id="Layer_1-2" data-name="Layer 1"><path class="cls-1" d="M52.05,11.19V2.81a2.81,2.81,0,1,0-5.62,0v8.38Z"/><path class="cls-2" d="M46.43,2.81A2.81,2.81,0,0,1,49.24,0H4.4A4.4,4.4,0,0,0,0,4.4v53H46.43V2.81Z"/><path class="cls-3" d="M46.43,2.81A2.81,2.81,0,0,1,49.24,0H4.4A4.4,4.4,0,0,0,0,4.4v53H46.43V2.81Z"/><path class="cls-4" d="M26.55,46V42.19a.87.87,0,0,0-.86-.86h-5a.87.87,0,0,0-.86.86V46a.86.86,0,0,1-.85.86H17.36a.85.85,0,0,0-.6,1.46l5.85,5.85a.85.85,0,0,0,1.21,0l5.85-5.85a.85.85,0,0,0-.6-1.46H27.41A.86.86,0,0,1,26.55,46Z"/><line class="cls-5" x1="13.22" y1="14.84" x2="39.1" y2="14.84"/><line class="cls-5" x1="7.33" y1="14.84" x2="8.01" y2="14.84"/><line class="cls-5" x1="13.22" y1="22.04" x2="39.1" y2="22.04"/><line class="cls-5" x1="7.33" y1="22.04" x2="8.01" y2="22.04"/><line class="cls-5" x1="13.22" y1="29.24" x2="39.1" y2="29.24"/><line class="cls-5" x1="7.33" y1="29.24" x2="8.01" y2="29.24"/><line class="cls-5" x1="13.22" y1="36.44" x2="39.1" y2="36.44"/><line class="cls-5" x1="7.33" y1="36.44" x2="8.01" y2="36.44"/></g></g></svg>