<svg xmlns="http://www.w3.org/2000/svg" xmlns:xlink="http://www.w3.org/1999/xlink" viewBox="0 0 77.53 57.9"><defs><style>.cls-1{fill:none;}.cls-2{opacity:0.4;}.cls-3{fill:#999;}.cls-4{fill:#66abf0;}.cls-5{fill:url(#linear-gradient);}.cls-6{fill:#eee;}.cls-7{fill:url(#linear-gradient-2);}.cls-8{fill:url(#linear-gradient-3);}.cls-9{clip-path:url(#clip-path);}.cls-10{fill:#fff;}</style><linearGradient id="linear-gradient" x1="12.4" y1="666.9" x2="12.4" y2="650" gradientTransform="translate(0 -618)" gradientUnits="userSpaceOnUse"><stop offset="0" stop-color="#fff"/><stop offset="1" stop-color="#bababa"/></linearGradient><linearGradient id="linear-gradient-2" x1="48.9" y1="666.9" x2="48.9" y2="650" xlink:href="#linear-gradient"/><linearGradient id="linear-gradient-3" x1="32" y1="673.85" x2="32" y2="651.07" xlink:href="#linear-gradient"/><clipPath id="clip-path"><rect class="cls-1" x="62.5" y="22.4" width="15" height="15"/></clipPath></defs><title>Asset 8</title><g id="Layer_2" data-name="Layer 2"><g id="Layer_1-2" data-name="Layer 1"><g class="cls-2"><path class="cls-3" d="M16.1,48.2h0a19.15,19.15,0,0,1-1.6,2.1c-.1,0-.2-.1-.3-.2L12,48.3a3.59,3.59,0,0,0-1-.7,4.18,4.18,0,0,0-1-.4,2.57,2.57,0,0,0-1.5.1H8.4c-.2,0-.3.1-.5.2a.35.35,0,0,0-.2.1l-.6.2c-.1,0-.2-.1-.3-.1s-.1,0-.2-.1-.3-.1-.4-.1l-.3-.1-.2-.1c-.1-.1-.2-.1-.3-.2-.6-.3-.9-1-1.4-1S1.9,48.4,1.6,50c.1-5.6,2-9.2,3.8-10.6H7.3l6.3-.5a5.65,5.65,0,0,1,1.7,2.8,7.49,7.49,0,0,1,.4,1.6A16.26,16.26,0,0,1,16.1,48.2Z"/><path class="cls-4" d="M22.9,18.4c-.4,2.9-.6,4.3-.7,4.5h0a5.36,5.36,0,0,0-1.6,2.3c-.1-1.6.1-2.5-.5-3A6.48,6.48,0,0,1,19,17.4c.4-1.8,0-4-3.2-3.9-4.4.2-6.7.9-9.6.1s-3.9,2.2-3.8,3.7-1.1,4.1-.8,7.3c-.2-1.1-.3-1.5-.7-1.8v-.1C.6,20.2.7,17.3.5,15.8s-.2-3.6,1.7-4.2c.5-2.8,2.9-4.1,8.6-4.1s9.1.9,11,4.5C23.2,14.9,23.3,15.2,22.9,18.4Z"/><path class="cls-5" d="M19.7,37.7c-.1,1-2.1,4-2.1,4l-1.7,1.6-4.8,4.4a4.18,4.18,0,0,0-1-.4,2.57,2.57,0,0,0-1.5.1H8.5c-.2,0-.3.1-.5.2a.35.35,0,0,0-.2.1l-.6.2c-.1,0-.2-.1-.3-.1s-.1,0-.2-.1-.3-.1-.4-.1L6,47.5l-.2-.1c0-.2.1-.4.1-.7a11.41,11.41,0,0,0,.3-2.1c0-.7-.4-3.1-.7-5.1-.2-1-.3-1.9-.4-2.4l6.5-3.7h7.8v2.5A3.81,3.81,0,0,1,19.7,37.7Z"/><path class="cls-6" d="M24,24.4l-1,3.3a2.78,2.78,0,0,1-1.3,1.9c-.3.2-.7.2-1,.4-.5.3-.5,1-.6,1.6-.4,2.5-2.6,4-4.7,5.2a18.06,18.06,0,0,1-3.7,1.8,6.1,6.1,0,0,1-4,.1A6.75,6.75,0,0,1,4.4,36a11.1,11.1,0,0,1-1.6-3.9,2.69,2.69,0,0,0-.5-1.5A6.1,6.1,0,0,1,1.1,29c-.6-1.2,0-2.7-.5-3.9A5.36,5.36,0,0,0,.1,24a1.27,1.27,0,0,1-.1-.6c0-.2.1-.4.1-.6a.68.68,0,0,1,1-.2v0a3.08,3.08,0,0,1,.7,1.8c-.3-3.2.9-5.8.8-7.3s.9-4.5,3.8-3.7,5.2.1,9.6-.1c3.2-.1,3.5,2.1,3.2,3.9A6.61,6.61,0,0,0,20.3,22c.6.6.4,1.4.5,3a4.61,4.61,0,0,1,1.6-2.3h0a1.14,1.14,0,0,1,.8-.3c.4,0,.9,0,1.1.4A5.69,5.69,0,0,1,24,24.4Z"/><path class="cls-4" d="M21,40.5a13.73,13.73,0,0,1-1.3,2c-.5.7-.9,1.5-1.4,2.2-.3.5-1.4,2.1-2.2,3.5l-.1.1c-.6.9-1.1,1.7-1.2,1.8a.22.22,0,0,1-.2.2h-.2c-.1,0-.2-.1-.3-.2l-2.2-1.8a3.59,3.59,0,0,0-1-.7,4.18,4.18,0,0,0-1-.4,2.57,2.57,0,0,0-1.5.1H8.3c-.2,0-.3.1-.5.2a.35.35,0,0,0-.2.1l-.6.2a14.29,14.29,0,0,1,2-1.4l.8-.5a31.3,31.3,0,0,0,5.4-4.2,19.85,19.85,0,0,0,2-2.1,9.51,9.51,0,0,0,1.5-2,3,3,0,0,0,.4-.8,1.49,1.49,0,0,0,.2-.9v-.2h0a.1.1,0,0,0,.1-.1h.1c.1,0,.1,0,.2.1a5,5,0,0,1,.7.8,11.73,11.73,0,0,1,.5,1.1A4.16,4.16,0,0,1,21,40.5Z"/><path class="cls-4" d="M7.2,47.9c-.1,0-.2-.1-.3-.1s-.1,0-.2-.1-.3-.1-.4-.1L6,47.5l-.2-.1c-.1-.1-.2-.1-.3-.2-.6-.3-.9-1-1.4-1S2,48.5,1.7,50.1v.4c-.9-1.8.2-8.4,3.9-11h0a1.42,1.42,0,0,0-.2.6c-.1.3-.2.7-.3,1.1A8.78,8.78,0,0,0,5,44a5.36,5.36,0,0,0,1.1,2.7c0,.1.1.1.1.2l.6.6c-.1,0,.2.3.4.4Z"/></g><g class="cls-2"><path class="cls-3" d="M52.6,48.2h0A19.15,19.15,0,0,1,51,50.3c-.1,0-.2-.1-.3-.2l-2.2-1.8a3.59,3.59,0,0,0-1-.7,4.18,4.18,0,0,0-1-.4,2.57,2.57,0,0,0-1.5.1h-.1c-.2,0-.3.1-.5.2a.35.35,0,0,0-.2.1l-.6.2c-.1,0-.2-.1-.3-.1s-.1,0-.2-.1-.3-.1-.4-.1l-.3-.1-.2-.1c-.1-.1-.2-.1-.3-.2-.6-.3-.9-1-1.4-1s-2.1,2.3-2.4,3.9c.1-5.6,2-9.2,3.8-10.6h1.9l6.3-.5a5.65,5.65,0,0,1,1.7,2.8,7.49,7.49,0,0,1,.4,1.6A16.26,16.26,0,0,1,52.6,48.2Z"/><path class="cls-4" d="M59.4,18.4c-.4,2.9-.6,4.3-.7,4.5h0a5.36,5.36,0,0,0-1.6,2.3c-.1-1.6.1-2.5-.5-3a6.48,6.48,0,0,1-1.1-4.8c.4-1.8,0-4-3.2-3.9-4.4.2-6.7.9-9.6.1s-3.9,2.2-3.8,3.7-1.1,4.1-.8,7.3c-.2-1.1-.3-1.5-.7-1.8v-.1c-.3-2.5-.2-5.4-.4-6.9s-.2-3.6,1.7-4.2c.5-2.8,2.9-4.1,8.6-4.1s9.1.9,11,4.5C59.6,14.9,59.8,15.2,59.4,18.4Z"/><path class="cls-7" d="M56.2,37.7c-.1,1-2.1,4-2.1,4l-1.7,1.6-4.8,4.4a4.18,4.18,0,0,0-1-.4,2.57,2.57,0,0,0-1.5.1H45c-.2,0-.3.1-.5.2a.35.35,0,0,0-.2.1l-.6.2c-.1,0-.2-.1-.3-.1s-.1,0-.2-.1-.3-.1-.4-.1l-.3-.1-.2-.1c0-.2.1-.4.1-.7a11.41,11.41,0,0,0,.3-2.1c0-.7-.4-3.1-.7-5.1-.2-1-.3-1.9-.4-2.4l6.5-3.7h7.8v2.5A5.66,5.66,0,0,1,56.2,37.7Z"/><path class="cls-6" d="M60.5,24.4l-1,3.3a2.78,2.78,0,0,1-1.3,1.9c-.3.2-.7.2-1,.4-.5.3-.5,1-.6,1.6-.4,2.5-2.6,4-4.7,5.2a18.06,18.06,0,0,1-3.7,1.8,6.1,6.1,0,0,1-4,.1A6.75,6.75,0,0,1,40.9,36a11.1,11.1,0,0,1-1.6-3.9,2.69,2.69,0,0,0-.5-1.5A6.1,6.1,0,0,1,37.6,29c-.6-1.2,0-2.7-.5-3.9a5.36,5.36,0,0,0-.5-1.1,1.27,1.27,0,0,1-.1-.6c0-.2.1-.4.1-.6a.68.68,0,0,1,1-.2v0a3.08,3.08,0,0,1,.7,1.8c-.3-3.2.9-5.8.8-7.3s.9-4.5,3.8-3.7,5.2.1,9.6-.1c3.2-.1,3.5,2.1,3.2,3.9A6.61,6.61,0,0,0,56.8,22c.6.6.4,1.4.5,3a4.61,4.61,0,0,1,1.6-2.3h0a1.14,1.14,0,0,1,.8-.3c.4,0,.9,0,1.1.4A5.69,5.69,0,0,1,60.5,24.4Z"/><path class="cls-4" d="M57.5,40.5a13.73,13.73,0,0,1-1.3,2c-.5.7-.9,1.5-1.4,2.2-.3.5-1.4,2.1-2.2,3.5l-.1.1c-.6.9-1.1,1.7-1.2,1.8a.22.22,0,0,1-.2.2h-.2c-.1,0-.2-.1-.3-.2l-2.2-1.8a3.59,3.59,0,0,0-1-.7,4.18,4.18,0,0,0-1-.4,2.57,2.57,0,0,0-1.5.1h-.1c-.2,0-.3.1-.5.2a.35.35,0,0,0-.2.1l-.6.2a14.29,14.29,0,0,1,2-1.4l.8-.5a31.3,31.3,0,0,0,5.4-4.2,19.85,19.85,0,0,0,2-2.1,9.51,9.51,0,0,0,1.5-2,3,3,0,0,0,.4-.8,1.49,1.49,0,0,0,.2-.9v-.2h0a.1.1,0,0,0,.1-.1H56c.1,0,.1,0,.2.1a5,5,0,0,1,.7.8,11.73,11.73,0,0,1,.5,1.1A4.16,4.16,0,0,1,57.5,40.5Z"/><path class="cls-4" d="M43.6,47.9c-.1,0-.2-.1-.3-.1s-.1,0-.2-.1-.3-.1-.4-.1l-.3-.1-.2-.1c-.1-.1-.2-.1-.3-.2-.6-.3-.9-1-1.4-1s-2.1,2.3-2.4,3.9v.4c-.9-1.8.2-8.4,3.9-11h0a1.42,1.42,0,0,0-.2.6c-.1.3-.2.7-.3,1.1a8.78,8.78,0,0,0-.1,2.8,5.36,5.36,0,0,0,1.1,2.7c0,.1.1.1.1.2l.6.6.4.4Z"/></g><path class="cls-3" d="M36.7,54.9l-.1.1a18.6,18.6,0,0,1-2.1,2.8.52.52,0,0,1-.4-.2l-2.9-2.4a14.7,14.7,0,0,0-1.3-1,3.51,3.51,0,0,0-1.4-.6,4.52,4.52,0,0,0-2,.1h-.1c-.2.1-.4.1-.6.2s-.2.1-.3.1l-.7.3a4.33,4.33,0,0,0-.5-.1c-.1,0-.2,0-.2-.1-.2-.1-.4-.1-.5-.2l-.4-.2-.2-.1c-.2-.1-.3-.1-.5-.2-.8-.4-1.2-1.4-1.8-1.4s-2.8,3.2-3.2,5.2c.2-7.5,2.7-12.4,5.1-14.3h2.6l8.5-.6A8.57,8.57,0,0,1,36,46.1l.6,2.1C36.7,50.5,36.8,52.7,36.7,54.9Z"/><path class="cls-4" d="M45.8,14.8c-.5,3.9-.8,5.8-.9,6.1h0A5.94,5.94,0,0,0,42.8,24c-.1-2.2.1-3.3-.7-4.1a9.15,9.15,0,0,1-1.4-6.5c.5-2.5,0-5.4-4.2-5.2-5.9.2-9,1.3-12.9.1s-5.3,3-5.1,5-1.5,5.5-1.1,9.9a4.31,4.31,0,0,0-.9-2.5v-.2c-.4-3.4-.3-7.3-.6-9.3s-.2-4.8,2.3-5.6C18.9,1.8,22.1,0,29.7,0S42,1.2,44.5,6.1C46.2,10,46.4,10.4,45.8,14.8Z"/><path class="cls-8" d="M41.5,40.8c-.1,1.3-2.8,5.5-2.8,5.5l-2.4,2.1-6.4,5.9a3.51,3.51,0,0,0-1.4-.6,4.52,4.52,0,0,0-2,.1h-.1c-.2.1-.4.1-.6.2s-.2.1-.3.1l-.7.3a4.33,4.33,0,0,0-.5-.1c-.1,0-.2,0-.2-.1-.2-.1-.4-.1-.5-.2l-.4-.2-.2-.1c.1-.3.1-.6.2-.9.2-1.2.4-2.3.5-2.9a59,59,0,0,0-.9-6.9c-.2-1.3-.4-2.5-.5-3.3l8.8-5H41.6v3.1a.77.77,0,0,0,.1.3A12.74,12.74,0,0,0,41.5,40.8Z"/><path class="cls-6" d="M47.4,22.9,46,27.4a3.5,3.5,0,0,1-1.7,2.5c-.4.2-1,.3-1.4.5a3,3,0,0,0-.8,2.1c-.6,3.4-3.4,5.4-6.3,7.1A31.72,31.72,0,0,1,30.9,42a8.36,8.36,0,0,1-5.4.2A9.08,9.08,0,0,1,21,38.5a14.84,14.84,0,0,1-2.2-5.2c-.2-.8-.1-1.4-.7-2a6.52,6.52,0,0,1-1.6-2.1c-.7-1.7,0-3.6-.7-5.3-.2-.5-.5-.9-.7-1.4a1.88,1.88,0,0,1-.2-.8,2.35,2.35,0,0,1,.2-.8.93.93,0,0,1,1.4-.3v.1a4,4,0,0,1,.9,2.5c-.4-4.3,1.3-7.9,1.1-9.9s1.2-6.1,5.1-5,7,.1,12.9-.1c4.3-.2,4.8,2.8,4.2,5.2a9.68,9.68,0,0,0,1.4,6.5c.7.8.5,1.9.7,4.1.1-.9,1.1-2.1,2.1-3.1h0a2.1,2.1,0,0,1,1.1-.4,1.22,1.22,0,0,1,1.4.6A2.77,2.77,0,0,1,47.4,22.9Z"/><path class="cls-4" d="M43.3,44.5a26.06,26.06,0,0,1-1.7,2.8c-.6,1-1.3,2-1.9,3-.4.6-1.8,2.8-3,4.7l-.1.1c-.8,1.3-1.5,2.3-1.6,2.5l-.3.3h-.2a.52.52,0,0,1-.4-.2l-2.9-2.4a14.7,14.7,0,0,0-1.3-1,3.51,3.51,0,0,0-1.4-.6,4.52,4.52,0,0,0-2,.1h-.1c-.2.1-.4.1-.6.2s-.2.1-.3.1l-.7.3a13.09,13.09,0,0,1,2.7-1.9l1.1-.7a44.2,44.2,0,0,0,7.3-5.6c.9-.9,1.8-1.8,2.7-2.8a13.5,13.5,0,0,0,2-2.7c.2-.4.4-.7.6-1.1a2.66,2.66,0,0,0,.3-1.2V38l.1-.1h.1c.1,0,.2.1.3.1a10.63,10.63,0,0,1,.9,1.1,8.43,8.43,0,0,1,.6,1.4A8.8,8.8,0,0,1,43.3,44.5Z"/><path class="cls-4" d="M24.7,54.5a4.33,4.33,0,0,0-.5-.1c-.1,0-.2,0-.2-.1-.2-.1-.4-.1-.5-.2l-.4-.2-.2-.1c-.2-.1-.3-.1-.5-.2-.8-.4-1.2-1.4-1.8-1.4s-2.8,3.2-3.2,5.2c0,.2-.1.3-.1.5-1.2-2.5.3-11.3,5.2-14.9h0a1.33,1.33,0,0,0-.3.8,7.37,7.37,0,0,0-.4,1.4,12.16,12.16,0,0,0-.2,3.8A7.33,7.33,0,0,0,23,52.7c.1.1.1.2.2.2a3,3,0,0,0,.8.8c0,.3.5.7.7.8Z"/><g class="cls-9"><path class="cls-10" d="M64.5,32.1l7.3-7.3L75,28c-2.4,2.4-4.8,4.9-7.3,7.3Zm8-8c.8-1,1.7-2,3.2-1.6a2.23,2.23,0,0,1,1.8,2c.2,1.4-.7,2.2-1.6,3ZM67,36c-1.3.4-2.6.9-3.8,1.3-.5.2-.7-.1-.6-.6.4-1.3.9-2.5,1.3-3.9C65,33.9,65.9,34.9,67,36Z"/><path class="cls-4" d="M64.5,32.1l3.2,3.2c2.4-2.5,4.9-4.9,7.3-7.3l-3.2-3.2Z"/><path class="cls-4" d="M72.5,24.1l3.4,3.4c.9-.8,1.8-1.6,1.6-3a2.23,2.23,0,0,0-1.8-2C74.1,22.1,73.3,23.1,72.5,24.1Z"/><path class="cls-4" d="M67,36c-1.1-1.1-2-2.1-3.1-3.2-.4,1.3-.9,2.6-1.3,3.9-.1.4.1.7.6.6C64.4,36.9,65.7,36.5,67,36Z"/></g></g></g></svg>