<svg xmlns="http://www.w3.org/2000/svg" xmlns:xlink="http://www.w3.org/1999/xlink" viewBox="0 0 59.37 59.36"><defs><style>.cls-1{fill:url(#linear-gradient);}.cls-2{fill:url(#linear-gradient-2);}.cls-3{fill:url(#linear-gradient-3);}.cls-4{fill:#738087;}.cls-5{fill:#fdfdfd;}</style><linearGradient id="linear-gradient" x1="15.84" y1="29.65" x2="15.84" gradientUnits="userSpaceOnUse"><stop offset="0" stop-color="#525d64"/><stop offset="1" stop-color="#667279"/></linearGradient><linearGradient id="linear-gradient-2" x1="15.84" y1="29.65" x2="15.84" y2="59.36" gradientUnits="userSpaceOnUse"><stop offset="0" stop-color="#667279"/><stop offset="1" stop-color="#525d64"/></linearGradient><linearGradient id="linear-gradient-3" x1="45.53" y1="59.36" x2="45.53" y2="29.65" gradientUnits="userSpaceOnUse"><stop offset="0" stop-color="#009eed"/><stop offset="1" stop-color="#00c9f8"/></linearGradient></defs><title>Asset 5</title><g id="Layer_2" data-name="Layer 2"><g id="Layer_1-2" data-name="Layer 1"><path class="cls-1" d="M31.68,0V29.65H0V4.73A4.73,4.73,0,0,1,4.73,0Z"/><path class="cls-2" d="M31.68,29.65V59.36H4.73A4.72,4.72,0,0,1,0,54.64v-25Z"/><path class="cls-3" d="M59.37,29.65v25a4.72,4.72,0,0,1-4.73,4.72h-23V29.65Z"/><path class="cls-4" d="M59.37,4.73V29.65H31.68V0h23A4.73,4.73,0,0,1,59.37,4.73Z"/><rect class="cls-5" x="9.5" y="13.1" width="12.69" height="3.45" rx="1.61" ry="1.61"/><rect class="cls-5" x="39.18" y="39.79" width="12.69" height="3.45" rx="1.61" ry="1.61"/><rect class="cls-5" x="39.18" y="45.77" width="12.69" height="3.45" rx="1.61" ry="1.61"/><path class="cls-5" d="M48,14.82l2-2a1.73,1.73,0,1,0-2.44-2.44l-2,2-2.05-2a1.71,1.71,0,0,0-2.44,0,1.73,1.73,0,0,0,0,2.44l2.05,2L41,16.87a1.73,1.73,0,0,0,2.44,2.44l2.05-2,2,2a1.73,1.73,0,0,0,2.44,0,1.71,1.71,0,0,0,0-2.44Z"/><path class="cls-5" d="M17.57,46.23h2.89a1.73,1.73,0,1,0,0-3.45H17.57v-2.9a1.73,1.73,0,0,0-3.45,0v2.9h-2.9a1.73,1.73,0,0,0,0,3.45h2.9v2.9a1.73,1.73,0,0,0,3.45,0Z"/></g></g></svg>