<svg xmlns="http://www.w3.org/2000/svg" xmlns:xlink="http://www.w3.org/1999/xlink" viewBox="0 0 103.62 60.12"><defs><style>.cls-1,.cls-2,.cls-7{fill:none;stroke:#66abf0;}.cls-1{stroke-width:2.22px;}.cls-2{stroke-linecap:round;stroke-width:3.33px;}.cls-3{fill:#999;}.cls-4{fill:#66abf0;}.cls-5{fill:url(#linear-gradient);}.cls-6{fill:#eee;}.cls-7{stroke-width:1.11px;}</style><linearGradient id="linear-gradient" x1="27.56" y1="670.97" x2="27.56" y2="653.53" gradientTransform="translate(0 -618)" gradientUnits="userSpaceOnUse"><stop offset="0" stop-color="#fff"/><stop offset="1" stop-color="#bababa"/></linearGradient></defs><title>Asset 9</title><g id="Layer_2" data-name="Layer 2"><g id="Layer_1-2" data-name="Layer 1"><path class="cls-1" d="M5.51,1.11h92.6a4.37,4.37,0,0,1,4.4,4.4v49.1a4.37,4.37,0,0,1-4.4,4.4H5.51a4.37,4.37,0,0,1-4.4-4.4V5.51A4.44,4.44,0,0,1,5.51,1.11Z"/><path class="cls-2" d="M54.61,20.71h36.6"/><path class="cls-2" d="M54.61,29.51h36.6"/><path class="cls-2" d="M54.61,37.31h18.9"/><path class="cls-3" d="M31.31,52.21h0a18.39,18.39,0,0,1-1.7,2.2c-.1,0-.2-.1-.3-.2l-2.2-1.8a3.59,3.59,0,0,0-1-.7,2.1,2.1,0,0,0-1.1-.4,2.57,2.57,0,0,0-1.5.1h-.1c-.2,0-.3.1-.5.2s-.2.1-.3.1l-.6.2c-.1,0-.2-.1-.4-.1s-.1,0-.2-.1a.76.76,0,0,1-.4-.2l-.3-.1-.2-.1c-.1-.1-.2-.1-.4-.2-.6-.3-.9-1.1-1.4-1.1s-2.2,2.4-2.5,4c.1-5.7,2.1-9.5,3.9-10.9h2l6.5-.5a6.44,6.44,0,0,1,1.7,2.9,9.36,9.36,0,0,1,.4,1.6A10.12,10.12,0,0,1,31.31,52.21Z"/><path class="cls-4" d="M38.31,21.51c-.4,3-.6,4.5-.7,4.7h0a5.08,5.08,0,0,0-1.6,2.4c-.1-1.7.1-2.6-.5-3.1a7,7,0,0,1-1.1-5c.4-1.9,0-4.1-3.3-4-4.5.2-6.9,1-9.9.1s-4,2.3-3.9,3.8-1.1,4.2-.9,7.6a3.51,3.51,0,0,0-.7-1.9v-.2c-.3-2.6-.2-5.6-.4-7.1s-.2-3.7,1.8-4.3c.5-2.9,3-4.3,8.8-4.3s9.4.9,11.4,4.7C38.61,17.91,38.81,18.21,38.31,21.51Z"/><path class="cls-5" d="M35.11,41.41c-.1,1-2.2,4.2-2.2,4.2l-1.8,1.6-4.9,4.5a2.1,2.1,0,0,0-1.1-.4,2.57,2.57,0,0,0-1.5.1h-.1c-.2,0-.3.1-.5.2s-.2.1-.3.1l-.6.2c-.1,0-.2-.1-.4-.1s-.1,0-.2-.1a.76.76,0,0,1-.4-.2l-.3-.1-.2-.1c0-.2.1-.5.1-.7.2-.9.3-1.8.4-2.2,0-.7-.4-3.2-.7-5.3-.2-1-.3-1.9-.4-2.5l6.7-3.8h8v2.6A5.09,5.09,0,0,1,35.11,41.41Z"/><path class="cls-6" d="M39.51,27.71l-1.1,3.4a2.67,2.67,0,0,1-1.3,1.9c-.3.2-.7.2-1,.4-.5.4-.5,1-.6,1.6-.5,2.6-2.6,4.1-4.8,5.4a16.59,16.59,0,0,1-3.8,1.8,6.69,6.69,0,0,1-4.2.1,6.75,6.75,0,0,1-3.4-2.8,11.8,11.8,0,0,1-1.7-4A2.2,2.2,0,0,0,17,34a10.1,10.1,0,0,1-1.3-1.6c-.6-1.3,0-2.8-.5-4.1-.1-.4-.4-.7-.5-1.1a1.27,1.27,0,0,1-.1-.6c0-.2.1-.4.1-.6a.8.8,0,0,1,1.1-.2v.1a3.51,3.51,0,0,1,.7,1.9c-.3-3.3,1-6,.9-7.6s.9-4.7,3.9-3.8,5.3.1,9.9-.1c3.3-.1,3.6,2.1,3.3,4a7,7,0,0,0,1.1,5c.6.6.4,1.5.5,3.1a6.26,6.26,0,0,1,1.6-2.4h0a1.14,1.14,0,0,1,.8-.3c.4,0,.9,0,1.1.4A2.71,2.71,0,0,1,39.51,27.71Z"/><path class="cls-4" d="M36.41,44.21a23.92,23.92,0,0,1-1.3,2.1c-.5.8-1,1.5-1.5,2.3-.3.5-1.4,2.2-2.3,3.6l-.1.1c-.6,1-1.1,1.8-1.2,1.9a.22.22,0,0,1-.2.2h-.2c-.1,0-.2-.1-.3-.2l-2.2-1.8a3.59,3.59,0,0,0-1-.7,2.1,2.1,0,0,0-1.1-.4,2.57,2.57,0,0,0-1.5.1h-.1c-.2,0-.3.1-.5.2s-.2.1-.3.1l-.6.2c.6-.5,1.3-1,2-1.5l.9-.5a33.33,33.33,0,0,0,5.6-4.3l2.1-2.1a9.51,9.51,0,0,0,1.5-2,3,3,0,0,0,.4-.8,1.49,1.49,0,0,0,.2-.9v-.2h0a.1.1,0,0,0,.1-.1h.1c.1,0,.1.1.2.1a5.5,5.5,0,0,1,.7.9c.2.4.3.7.5,1.1A3.34,3.34,0,0,1,36.41,44.21Z"/><path class="cls-4" d="M22.11,51.91c-.1,0-.2-.1-.4-.1s-.1,0-.2-.1a.76.76,0,0,1-.4-.2l-.3-.1-.2-.1c-.1-.1-.2-.1-.4-.2-.6-.3-.9-1.1-1.4-1.1s-2.2,2.4-2.5,4v.4c-.9-1.9.2-8.7,4-11.4h0l-.3.6c-.1.4-.2.7-.3,1.1a9.52,9.52,0,0,0-.1,2.9,5.7,5.7,0,0,0,1.1,2.8c0,.1.1.1.1.2l.6.6.7.7Z"/><path class="cls-7" d="M42.11,5.11h17.8a1.69,1.69,0,0,1,1.7,1.7h0a1.69,1.69,0,0,1-1.7,1.7H42.11a1.69,1.69,0,0,1-1.7-1.7h0A1.83,1.83,0,0,1,42.11,5.11Z"/></g></g></svg>