<svg width="36" height="36" viewBox="0 0 36 36" fill="none" xmlns="http://www.w3.org/2000/svg">
<path d="M18 35.4615C22.575 35.4615 27.1594 35.4615 31.7344 35.4615C34.3031 35.4615 36 33.8085 36 31.2782C36 22.2281 36 13.178 36 4.12794C36 1.68996 34.2937 0 31.8281 0C22.6219 0 13.425 0 4.21875 0C1.70625 0 0 1.67149 0 4.12794C0 13.178 0 22.2281 0 31.2782C0 33.7993 1.6875 35.4523 4.26562 35.4615C8.84063 35.4615 13.425 35.4615 18 35.4615ZM21.9844 31.4906C15.975 31.4906 10.0219 31.4906 4.05 31.4906C4.05 26.2452 4.05 21.0276 4.05 15.8007C10.0406 15.8007 16.0031 15.8007 21.9844 15.8007C21.9844 21.0368 21.9844 26.236 21.9844 31.4906ZM4.03125 3.98019C13.3781 3.98019 22.6594 3.98019 31.9594 3.98019C31.9594 6.60286 31.9594 9.1886 31.9594 11.7928C22.6313 11.7928 13.3312 11.7928 4.03125 11.7928C4.03125 9.17013 4.03125 6.59363 4.03125 3.98019ZM31.9688 31.4814C29.9531 31.4814 27.9937 31.4814 26.0156 31.4814C26.0156 26.2452 26.0156 21.0368 26.0156 15.8007C28.0125 15.8007 29.9812 15.8007 31.9688 15.8007C31.9688 21.0461 31.9688 26.2452 31.9688 31.4814Z" fill="#66ABF0"/>
</svg>
