<svg xmlns="http://www.w3.org/2000/svg" viewBox="0 0 15 15"><defs><style>.cls-1{fill:#fff;}</style></defs><title>3 blanco</title><g id="Layer_2" data-name="Layer 2"><g id="Layer_1-2" data-name="Layer 1"><path class="cls-1" d="M15,3a1.92,1.92,0,0,0-.4-1.2c-.4-.4-.7-.9-1.1-1.3a1.23,1.23,0,0,0-1-.5H2.5a1,1,0,0,0-.9.4A17.41,17.41,0,0,1,.4,1.8,1.5,1.5,0,0,0,0,2.9V13.2A1.68,1.68,0,0,0,1.8,15H13.3A1.63,1.63,0,0,0,15,13.3ZM9.2,9.5v1.6H5.9V9.5H3.1L7.6,5l4.5,4.5ZM1.8,1.6A4.35,4.35,0,0,1,2.4.9.35.35,0,0,1,2.6.8h9.6c.1,0,.2.1.3.1a4.35,4.35,0,0,1,.6.7Z"/></g></g></svg>