<svg xmlns="http://www.w3.org/2000/svg" viewBox="0 0 14.91 15.4"><defs><style>.cls-1{fill:#fff;}</style></defs><title>7 blanco</title><g id="Layer_2" data-name="Layer 2"><g id="Layer_1-2" data-name="Layer 1"><path class="cls-1" d="M14.81,5.6l-.3.3c-.4.3-.7.6-1.1.9s-.3.5-.4.8a1.56,1.56,0,0,0,.9,1.8c.1,0,.1.1.2.1.8.6.9.6.3,1.6-.3.5-.6,1.1-.9,1.6a.58.58,0,0,1-.8.3l-1.5-.6h-.5c-1.1.7-1.1.7-1.3,2.3-.1.7-.1.7-.8.7H6c-.3,0-.4-.1-.5-.4a7.72,7.72,0,0,1-.2-1.5,1,1,0,0,0-.4-.7,1.8,1.8,0,0,0-2.2-.1c-1.2.5-1,.5-1.6-.6-.3-.6-.7-1.2-1-1.8a.48.48,0,0,1,.1-.7l1.2-.9a3.33,3.33,0,0,0,.3-.6,1.81,1.81,0,0,0-.9-2c-1-.7-1-.6-.4-1.6.3-.6.7-1.2,1-1.8.2-.4.4-.5.8-.3s.9.4,1.4.6c.2.1.4,0,.6,0h.1c1-.3,1.2-1.1,1.2-2s.1-1,1.1-1h2.2c.4,0,.6.2.6.5s.1.5.1.8c-.1,1,.7,1.4,1.4,1.7.1.1.3,0,.5,0l1.5-.6c.2-.1.4-.1.5.1.5.9,1,1.7,1.5,2.6A.9.9,0,0,0,14.81,5.6Zm-4.5,2.3a3,3,0,0,0-2.9-3,3,3,0,0,0-3,2.9,2.93,2.93,0,0,0,2.9,3A3,3,0,0,0,10.31,7.9Z"/></g></g></svg>