<svg width="33" height="27" viewBox="0 0 33 27" fill="none" xmlns="http://www.w3.org/2000/svg">
<g clip-path="url(#clip0_544_1019)">
<path d="M11.5554 18.3307C11.5554 18.5833 11.5554 18.7348 11.5554 18.9369C11.5554 20.9575 11.5554 22.9781 11.5554 24.9987C11.5554 25.8574 12.0238 26.4131 12.8046 26.5646C14.0017 26.7667 14.8345 26.11 14.8345 24.8976C14.8345 22.2709 14.8345 19.6441 14.8345 16.9668C14.8345 16.6637 14.9386 16.5121 15.1989 16.3606C16.0837 15.906 16.9165 15.4513 17.7494 14.9967C17.8535 14.9462 17.9576 14.8957 18.1137 14.8452C18.1137 15.0472 18.1137 15.2493 18.1137 15.4008C18.1137 17.8255 18.1137 20.2503 18.1137 22.6245C18.1137 23.5337 18.1137 24.3925 18.1658 25.3018C18.2178 26.009 18.7383 26.4636 19.415 26.5646C20.6121 26.7667 21.3929 26.11 21.3929 24.9482C21.3929 21.109 21.3929 17.2194 21.3929 13.3802C21.3929 13.1782 21.4449 13.0266 21.6531 12.9256C22.538 12.4709 23.4749 11.9658 24.3598 11.4606C24.4639 11.4101 24.568 11.3596 24.6721 11.3091C24.6721 13.9359 24.6721 16.4616 24.6721 19.0379C24.6721 21.109 24.6721 23.1801 24.6721 25.2512C24.6721 26.0595 25.2967 26.6152 26.1815 26.6657C27.0143 26.7162 27.743 26.2615 27.8992 25.5038C27.9512 25.3018 27.9513 25.0492 27.9513 24.8471C27.9513 19.8461 27.9513 14.8452 27.9513 9.89468C27.9513 9.64211 28.0033 9.49056 28.2636 9.38953C28.732 9.18747 29.2005 8.88438 29.6689 8.63181C30.4497 8.17717 31.2825 7.77305 32.0632 7.31842C32.844 6.86378 33.1042 5.95451 32.7919 5.14627C32.5317 4.48958 31.6989 4.08546 30.8661 4.28752C30.5538 4.33803 30.2415 4.54009 29.9292 4.69164C29.3046 5.04524 28.68 5.34833 27.9513 5.75245C27.9513 4.69164 27.9513 3.68133 27.9513 2.72155C27.9513 2.36794 27.8471 2.01434 27.691 1.71125C27.3266 1.10507 26.5459 0.903009 25.7651 1.10507C25.1405 1.30713 24.6721 1.81228 24.6721 2.51949C24.6721 4.08546 24.6721 5.60091 24.6721 7.16687C24.6721 7.41945 24.62 7.57099 24.4118 7.67202C23.4749 8.17717 22.538 8.68232 21.6531 9.13696C21.6011 9.18747 21.497 9.18747 21.3929 9.23799C21.3929 8.53078 21.3929 7.9246 21.3929 7.2679C21.3929 5.70194 21.3929 4.13597 21.3929 2.57C21.3929 1.71125 20.8724 1.15558 19.9875 1.05455C19.1547 0.953524 18.426 1.35764 18.1658 2.06485C18.1137 2.31743 18.0617 2.57 18.0617 2.82258C18.0617 5.39885 18.0617 7.97511 18.0617 10.6019C18.0617 10.9555 17.9576 11.1576 17.6453 11.3091C16.8124 11.7637 15.9796 12.2184 15.0948 12.673C14.9907 12.7235 14.8866 12.774 14.7825 12.8246C14.7825 12.673 14.7825 12.6225 14.7825 12.5215C14.7825 10.7534 14.7825 9.03593 14.7825 7.2679C14.7825 5.75245 14.7825 4.237 14.7825 2.72155C14.7825 1.81228 14.314 1.25661 13.5333 1.10507C12.3361 0.903009 11.5033 1.5597 11.5033 2.77206C11.5033 6.61121 11.5033 10.4503 11.5033 14.2895C11.5033 14.5926 11.3992 14.7441 11.1389 14.8452C10.5143 15.1482 9.88974 15.5018 9.26513 15.8555C8.90078 16.0575 8.58847 16.2091 8.17207 16.4111C8.17207 16.2596 8.17207 16.108 8.17207 16.007C8.17207 13.5823 8.17207 11.2081 8.17207 8.78335C8.17207 6.71224 8.17207 4.59061 8.17207 2.51949C8.17207 1.66073 7.59951 1.10507 6.71466 1.05455C5.88185 0.953524 5.15314 1.40816 4.99699 2.16588C4.94494 2.41846 4.94494 2.67103 4.94494 2.92361C4.94494 7.87408 4.94494 12.8751 4.94494 17.8255C4.94494 18.1286 4.84084 18.2802 4.58059 18.4317C3.33138 19.0884 2.13422 19.7451 0.885005 20.4018C0.052197 20.8564 -0.312156 21.9173 0.156298 22.675C0.572702 23.4327 1.66576 23.6853 2.55062 23.2812C3.27933 22.9276 3.95598 22.5234 4.63264 22.1698C4.73674 22.1193 4.78879 22.0688 4.94494 22.0688C4.94494 22.1698 4.94494 22.2709 4.94494 22.3214C4.94494 23.3317 4.94494 24.2915 4.94494 25.3018C4.94494 26.009 5.46545 26.5646 6.19415 26.7162C7.39131 26.9182 8.22412 26.2615 8.22412 25.0997C8.22412 23.6348 8.22412 22.1193 8.22412 20.6544C8.22412 20.5028 8.27617 20.3008 8.38027 20.2503C9.42128 19.442 10.4623 18.9369 11.5554 18.3307Z" fill="white"/>
<path d="M11.5555 18.3302C10.4625 18.9363 9.42148 19.4415 8.43252 20.0477C8.32842 20.0982 8.27636 20.3002 8.27636 20.4518C8.27636 21.9167 8.27636 23.4322 8.27636 24.8971C8.27636 26.059 7.44356 26.7156 6.2464 26.5136C5.51769 26.362 5.04924 25.8569 4.99718 25.0992C4.99718 24.0889 4.99718 23.1291 4.99718 22.1188C4.99718 22.0683 4.99718 21.9672 4.99718 21.8662C4.89308 21.9167 4.78898 21.9672 4.68488 21.9672C4.00823 22.3208 3.27952 22.725 2.60286 23.0786C1.77006 23.5332 0.624945 23.2301 0.208541 22.4724C-0.207862 21.7147 0.10444 20.6538 0.937248 20.1992C2.13441 19.5425 3.38362 18.8858 4.63283 18.2291C4.89308 18.0776 4.99718 17.926 4.99718 17.6229C4.99718 12.6725 4.99718 7.67149 4.99718 2.72102C4.99718 2.46844 4.99718 2.21587 5.04923 1.96329C5.20539 1.3066 5.93409 0.902477 6.7669 0.952992C7.65176 1.05402 8.22431 1.60969 8.22431 2.41793C8.22431 4.48904 8.22431 6.61067 8.22431 8.68179C8.22431 11.1065 8.22431 13.4807 8.22431 15.9054C8.22431 16.0065 8.22431 16.1075 8.22431 16.3096C8.58867 16.1075 8.95302 15.9054 9.31737 15.7539C9.94198 15.4003 10.5666 15.0972 11.1912 14.7436C11.4514 14.592 11.5555 14.4405 11.5555 14.1879C11.5555 10.3488 11.5555 6.50964 11.5555 2.6705C11.5555 1.45814 12.3884 0.801447 13.5855 1.00351C14.3663 1.15505 14.8347 1.71072 14.8347 2.61999C14.8347 4.13544 14.8347 5.65089 14.8347 7.16634C14.8347 8.93436 14.8347 10.6519 14.8347 12.4199C14.8347 12.5209 14.8347 12.5714 14.8347 12.723C14.9388 12.6725 15.0429 12.622 15.147 12.5714C15.9798 12.1168 16.8126 11.6622 17.6975 11.2075C18.0098 11.056 18.1139 10.8539 18.1139 10.5003C18.1139 7.92406 18.1139 5.3478 18.1139 2.72102C18.1139 2.46844 18.1139 2.21587 18.218 1.96329C18.4262 1.25608 19.1549 0.851962 20.0398 0.952992C20.9246 1.05402 21.4451 1.60969 21.4451 2.46844C21.4451 4.03441 21.4451 5.60037 21.4451 7.16634C21.4451 7.82303 21.4451 8.47973 21.4451 9.13642C21.5492 9.08591 21.6013 9.08591 21.7054 9.03539C22.6423 8.53024 23.5272 8.02509 24.4641 7.57046C24.6723 7.46943 24.7243 7.31788 24.7243 7.06531C24.7243 5.49934 24.7243 3.98389 24.7243 2.41793C24.7243 1.71072 25.1407 1.20557 25.8174 1.00351C26.5981 0.801447 27.3789 1.00351 27.7432 1.60969C27.8994 1.91278 28.0035 2.26638 28.0035 2.61999C28.0555 3.57977 28.0035 4.59007 28.0035 5.65089C28.6801 5.29728 29.3048 4.94368 29.9814 4.59007C30.2937 4.43853 30.554 4.28698 30.9183 4.18595C31.7511 3.98389 32.636 4.38801 32.8442 5.04471C33.1565 5.85295 32.8442 6.76222 32.1155 7.21685C31.3347 7.67149 30.5019 8.07561 29.7212 8.53024C29.2527 8.78282 28.7843 9.03539 28.3158 9.28797C28.0555 9.389 28.0035 9.54054 28.0035 9.79312C28.0035 14.7941 28.0035 19.7951 28.0035 24.7456C28.0035 24.9476 28.0035 25.2002 27.9514 25.4023C27.7953 26.16 27.0666 26.6146 26.2338 26.5641C25.3489 26.5136 24.7243 25.9579 24.7243 25.1497C24.7243 23.0786 24.7243 21.0075 24.7243 18.9363C24.7243 16.4106 24.7243 13.8343 24.7243 11.2075C24.5682 11.2581 24.4641 11.3086 24.412 11.3591C23.5272 11.8642 22.6423 12.3189 21.7054 12.824C21.4972 12.925 21.4451 13.0766 21.4451 13.2787C21.4451 17.1178 21.4451 21.0075 21.4451 24.8466C21.4451 26.0084 20.6123 26.6651 19.4672 26.4631C18.7385 26.362 18.2701 25.9074 18.218 25.2002C18.166 24.3414 18.166 23.4322 18.166 22.5229C18.166 20.0982 18.166 17.6735 18.166 15.2993C18.166 15.1477 18.166 14.9457 18.166 14.7436C18.0098 14.7941 17.9057 14.8446 17.8016 14.8951C16.9688 15.3498 16.0839 15.8044 15.2511 16.259C14.9909 16.4106 14.8868 16.5621 14.8868 16.8652C14.8868 19.492 14.8868 22.1188 14.8868 24.7961C14.8868 26.0084 14.054 26.6651 12.8568 26.4631C12.076 26.3115 11.6076 25.7559 11.6076 24.8971C11.6076 22.8765 11.6076 20.8559 11.6076 18.8353C11.5555 18.7343 11.5555 18.5827 11.5555 18.3302Z" fill="#66ABF0"/>
</g>
<defs>
<clipPath id="clip0_544_1019">
<rect width="33" height="25.6111" fill="white" transform="translate(0 0.953125)"/>
</clipPath>
</defs>
</svg>
