<?xml version="1.0" encoding="utf-8"?>
<!-- Generator: Adobe Illustrator 24.3.0, SVG Export Plug-In . SVG Version: 6.00 Build 0)  -->
<svg version="1.1" id="Layer_1" xmlns="http://www.w3.org/2000/svg" xmlns:xlink="http://www.w3.org/1999/xlink" x="0px" y="0px"
	 viewBox="0 0 15 15" style="enable-background:new 0 0 15 15;" xml:space="preserve">
<style type="text/css">
	.st0{fill:#FFFFFF;}
</style>
<g id="Layer_2_1_">
	<g id="Layer_1-2">
		<path class="st0" d="M0,12.1c0,0.4,0.1,0.9,0.4,1.2c0.4,0.4,0.7,0.9,1.1,1.3c0.2,0.3,0.6,0.5,1,0.5l10-0.1c0.3,0,0.7-0.1,0.9-0.4
			c0.4-0.5,0.8-1,1.2-1.4c0.3-0.3,0.4-0.7,0.4-1.1L15,1.7C15,0.8,14.3,0,13.4,0c-0.1,0-0.2,0-0.2,0L1.6,0C0.7,0,0,0.7,0,1.6
			c0,0,0,0.1,0,0.1L0,12.1z M5.8,5.5l0-1.6l3.3,0l0,1.6l2.8,0L7.4,10L2.9,5.5L5.8,5.5z M13.2,13.4c-0.2,0.3-0.4,0.5-0.6,0.7
			c-0.1,0.1-0.1,0.1-0.2,0.1l-9.6,0.1c-0.1,0-0.2-0.1-0.3-0.1c-0.2-0.2-0.4-0.4-0.6-0.7L13.2,13.4z"/>
	</g>
</g>
</svg>
