<svg width="30" height="30" viewBox="0 0 30 30" fill="none" xmlns="http://www.w3.org/2000/svg">
<g clip-path="url(#clip0_544_1008)">
<path d="M30.0002 23.5638C29.9216 20.7095 29.9806 17.8552 29.9806 15.0008C29.9806 12.1071 29.9609 9.2331 29.9806 6.3394C30.0199 2.75672 27.2104 0.0992434 23.7527 0.0401882C17.8981 -0.0385519 12.0434 0.000818158 6.18882 0.0598733C5.10827 0.0598733 3.98843 0.276409 3.0454 0.90633C1.06112 2.16617 0.0198617 3.9772 0.0198617 6.31972C0.000215362 12.0481 0.000215362 17.7961 0.0198617 23.5244C0.0198617 27.2646 2.73106 29.9811 6.46387 29.9811C12.1613 30.0008 17.8588 29.9614 23.5562 30.0008C27.0533 30.0402 30.0984 27.0481 30.0002 23.5638ZM26.3656 26.241C25.6191 27.0087 24.5975 27.4615 23.5759 27.4615H23.5562C21.7094 27.4418 19.7055 27.4418 17.2497 27.4418C15.8745 27.4418 14.4796 27.4418 13.1043 27.4418C11.7291 27.4418 10.3538 27.4418 8.95896 27.4418C8.11416 27.4418 7.28902 27.4418 6.44422 27.4418C4.12595 27.4418 2.55424 25.867 2.55424 23.5244C2.5346 18.8394 2.5346 12.6386 2.55424 6.31972C2.55424 4.88271 3.12399 3.85909 4.401 3.052C4.83322 2.77641 5.44226 2.61893 6.18882 2.61893C9.13578 2.59924 12.5935 2.55987 16.1102 2.55987C18.8607 2.55987 21.3362 2.57956 23.7134 2.61893C25.8548 2.6583 27.4462 4.25279 27.4265 6.3394C27.4069 8.32759 27.4069 10.3551 27.4265 12.3237C27.4265 13.2292 27.4265 14.1347 27.4265 15.0205C27.4265 15.8866 27.4265 16.7725 27.4069 17.6386C27.3873 19.6071 27.3873 21.6347 27.4265 23.6426C27.4658 24.5874 27.0926 25.4929 26.3656 26.241Z" fill="#66ABF0"/>
<path d="M14.9902 20.9259C17.3674 20.9259 19.7446 20.9259 22.1219 20.9259C22.8095 20.9259 23.4971 20.9456 23.5167 21.8118C23.5364 22.6779 22.8881 22.7763 22.1808 22.7763C17.3871 22.7763 12.613 22.7566 7.8193 22.7763C7.11203 22.7763 6.4637 22.6582 6.48335 21.8118C6.50299 20.9653 7.17097 20.9062 7.87824 20.9062C10.2554 20.9456 12.613 20.9259 14.9902 20.9259Z" fill="#66ABF0"/>
<path d="M19.0178 13.2289C17.3086 13.032 17.1907 13.0124 17.1711 11.4769V7.71709C17.1711 7.28402 16.8175 6.92969 16.3852 6.92969H13.5562C13.1239 6.92969 12.7703 7.28402 12.7703 7.71709V12.2643C12.6917 13.0911 12.3577 13.1108 11.0021 13.2289C10.5503 13.2683 10.177 13.3667 9.98052 13.7998C9.78405 14.2328 9.94122 14.6069 10.2359 14.9415C11.5719 16.4179 12.9078 17.9139 14.2438 19.3903C14.7153 19.9021 15.2261 19.9612 15.6976 19.4297C17.0729 17.9336 18.4481 16.4376 19.7644 14.9021C20.4127 14.1147 20.0395 13.347 19.0178 13.2289Z" fill="#66ABF0"/>
</g>
<defs>
<clipPath id="clip0_544_1008">
<rect width="30" height="30" fill="white"/>
</clipPath>
</defs>
</svg>
