<svg xmlns="http://www.w3.org/2000/svg" viewBox="0 0 22 23.1"><defs><style>.cls-1{fill:#fff;}</style></defs><title>5 blanco</title><g id="Layer_2" data-name="Layer 2"><g id="Layer_1-2" data-name="Layer 1"><path class="cls-1" d="M13.3,1.5V1a1.19,1.19,0,0,0-1.2-1H1.4A1.37,1.37,0,0,0,0,1.4V20.5A1.42,1.42,0,0,0,1.5,22h9.8a6.77,6.77,0,0,1-1.8-4.6,6.85,6.85,0,0,1,3.8-6.1ZM6.8,2.8H3.9a.58.58,0,0,1-.6-.6.58.58,0,0,1,.6-.6H6.8a.53.53,0,0,1,.6.6A.53.53,0,0,1,6.8,2.8Zm2.5,0H8.9a.58.58,0,0,1-.6-.6.58.58,0,0,1,.6-.6h.4a.53.53,0,0,1,.6.6A.58.58,0,0,1,9.3,2.8Z"/><path class="cls-1" d="M16.3,11.7A5.7,5.7,0,1,0,22,17.4,5.76,5.76,0,0,0,16.3,11.7Zm0,9.8a4.2,4.2,0,1,1,4.2-4.2A4.23,4.23,0,0,1,16.3,21.5Z"/><path class="cls-1" d="M17,16.6h1.2a.74.74,0,0,1,.8.8.71.71,0,0,1-.8.7H17v1.3a.75.75,0,0,1-.5.7.63.63,0,0,1-.8-.2,1.06,1.06,0,0,1-.2-.5V18.2H14.4a.71.71,0,1,1,0-1.4h1.1V15.6a1.42,1.42,0,0,1,.2-.6.78.78,0,0,1,.8-.2.67.67,0,0,1,.5.7Z"/></g></g></svg>