<svg width="42" height="39" viewBox="0 0 42 39" fill="none" xmlns="http://www.w3.org/2000/svg">
<path d="M33.4658 11.3615C33.4287 12.2809 33.4411 13.2129 33.4658 14.1323C33.4782 14.5101 33.3668 14.6864 32.9833 14.7746C32.3894 14.9257 31.7707 15.0643 31.2758 15.4673C30.0756 16.4245 29.8529 17.9736 30.719 19.3464C30.8304 19.5228 30.9417 19.6991 31.0655 19.8628C31.2387 20.0895 31.2263 20.2407 31.0036 20.4548C30.2612 21.1727 29.5189 21.9031 28.8136 22.6714C28.5167 22.9863 28.2692 23.0367 27.9104 22.7848C27.8485 22.7344 27.7743 22.684 27.7124 22.6462C27.6382 22.5958 27.3165 22.3314 26.3143 21.9661C26.0421 21.8654 25.7575 21.7898 25.4482 21.7268V12.558C25.4482 9.92569 23.3572 7.7972 20.7712 7.7972C18.1853 7.7972 16.0943 9.92569 16.0943 12.558V21.9157C15.7849 22.0165 15.488 22.1298 15.2282 22.2432C15.191 22.2558 15.1663 22.2684 15.1292 22.281C14.7209 22.4825 14.3002 22.6588 13.9166 22.8855C13.6197 23.0493 13.4093 23.0115 13.1619 22.7596C12.5309 22.0921 11.8999 21.4371 11.2317 20.8074C10.91 20.5051 10.8853 20.2407 11.0956 19.8754C11.2936 19.5354 11.4668 19.1701 11.6277 18.8049C12.2339 17.3439 11.7638 16.0467 10.3656 15.3162C9.90782 15.0769 9.40053 14.9383 8.90562 14.7998C8.55918 14.7116 8.46019 14.5227 8.46019 14.1701C8.47257 13.1877 8.46019 12.1927 8.42307 11.2103C8.4107 10.8199 8.55918 10.6688 8.93036 10.5806C9.70985 10.4043 10.5265 10.3413 11.1699 9.77455C12.0607 8.99369 12.2834 8.0365 11.7514 6.95337C11.5163 6.46218 11.2441 5.99618 10.9843 5.51758C10.8234 5.22791 10.8358 4.98861 11.0956 4.74931C11.8132 4.05661 12.5185 3.35131 13.2114 2.63342C13.6444 2.18002 13.9414 2.63342 14.226 2.79715C15.1292 3.32612 16.0448 3.43948 17.0099 3.06164C17.876 2.73418 18.4451 2.09185 18.6926 1.18504C18.7668 0.920557 18.8534 0.668665 18.9029 0.391584C18.9648 0.0767192 19.138 -0.0114429 19.4349 0.00115167C20.4248 0.0137463 21.4146 0.0263408 22.4044 0.00115167C22.8004 -0.0114429 22.887 0.227854 22.986 0.51753C23.1716 1.10948 23.2953 1.73921 23.716 2.23039C24.7429 3.43948 26.2153 3.65358 27.6753 2.70899C28.2073 2.35634 28.5167 2.43191 28.9126 2.88531C29.4446 3.50245 30.0138 4.0818 30.6077 4.62337C31.0036 4.98861 31.0902 5.26569 30.7685 5.78207C29.8777 7.18007 30.1128 8.66623 31.3129 9.81234C31.746 10.228 32.2904 10.3665 32.8224 10.4799C33.3421 10.6058 33.4906 10.8577 33.4658 11.3615Z" fill="#66ABF0"/>
<path d="M41.1862 36.3366L35.371 31.0721C35.1359 30.858 34.8513 30.8454 34.5667 30.8454L27.4523 30.8202C26.4996 30.795 26.0047 31.3114 25.3489 32.0167H34.0471C34.2945 32.0167 34.5544 31.9663 34.7647 32.1426C35.8906 33.1502 37.0042 34.1704 38.2415 35.2787H3.98094L7.13603 32.3442C7.38348 32.1175 7.64331 32.0419 7.97738 32.0293C10.6376 31.9915 13.2977 31.9789 15.9579 32.0293C16.1682 32.0293 16.391 32.0671 16.5889 31.9159C15.6362 30.8706 15.5496 30.8202 14.2999 30.8202C12.0481 30.8202 9.80857 30.8328 7.5567 30.8076C7.16077 30.8076 6.86382 30.921 6.56687 31.1855L0.813477 36.5004V38.0117H41.1862V36.3366Z" fill="#66ABF0"/>
<path d="M25.819 27.0294H24.4951V12.533C24.4951 11.5128 24.0867 10.5934 23.431 9.92591C22.7752 9.25839 21.872 8.84277 20.8698 8.84277C18.8654 8.84277 17.2445 10.4927 17.2445 12.533V27.0294H15.9206C15.735 27.0294 15.6608 27.2813 15.7969 27.3946L20.6842 31.5382C20.7956 31.6264 20.944 31.6264 21.0554 31.5382L25.9427 27.3946C26.0912 27.2813 26.0045 27.0294 25.819 27.0294ZM23.2949 13.6791C23.2949 15.1023 22.1566 16.261 20.7584 16.261C19.3603 16.261 18.222 15.1023 18.222 13.6791V12.6715C18.222 11.9536 18.5066 11.3113 18.9644 10.8453C19.4222 10.3793 20.0532 10.0896 20.7584 10.0896C22.1566 10.0896 23.2949 11.2483 23.2949 12.6715V13.6791Z" fill="#66ABF0"/>
<path d="M23.2951 12.9238V13.6795C23.2951 15.1027 22.1567 16.2614 20.7586 16.2614C19.3605 16.2614 18.2222 15.1027 18.2222 13.6795V12.9238C18.2222 14.347 19.3605 15.5057 20.7586 15.5057C22.1567 15.5057 23.2951 14.3596 23.2951 12.9238Z" fill="#2E2D2F"/>
<path d="M26.3263 25.0774V12.5584C26.3263 9.44753 23.8394 6.91602 20.7832 6.91602C17.7271 6.91602 15.2402 9.44753 15.2402 12.5584V25.0774H10.2168L12.0356 26.6391L20.4492 33.8307L21.0183 34.3093L21.5751 33.8181L29.7783 26.6266L31.5477 25.0774H26.3263ZM20.9936 33.1505L12.58 25.959H16.1063V12.5584C16.1063 9.92612 18.1973 7.79764 20.7832 7.79764C23.3692 7.79764 25.4602 9.92612 25.4602 12.5584V25.959H29.1968L20.9936 33.1505Z" fill="#2E2D2F"/>
</svg>
