<svg width="14" height="14" viewBox="0 0 14 14" fill="none" xmlns="http://www.w3.org/2000/svg">
<path d="M7.00016 2.625C4.0835 2.625 1.59266 4.43917 0.583496 7C1.59266 9.56083 4.0835 11.375 7.00016 11.375C9.91683 11.375 12.4077 9.56083 13.4168 7C12.4077 4.43917 9.91683 2.625 7.00016 2.625ZM7.00016 9.91667C5.39016 9.91667 4.0835 8.61 4.0835 7C4.0835 5.39 5.39016 4.08333 7.00016 4.08333C8.61016 4.08333 9.91683 5.39 9.91683 7C9.91683 8.61 8.61016 9.91667 7.00016 9.91667ZM7.00016 5.25C6.03183 5.25 5.25016 6.03167 5.25016 7C5.25016 7.96833 6.03183 8.75 7.00016 8.75C7.9685 8.75 8.75016 7.96833 8.75016 7C8.75016 6.03167 7.9685 5.25 7.00016 5.25Z" fill="black"/>
</svg>
