<svg width="95" height="62" viewBox="0 0 95 62" fill="none" xmlns="http://www.w3.org/2000/svg">
<rect x="2" y="4.875" width="91.4553" height="52.25" rx="4" stroke="#66ABF0" stroke-width="2"/>
<path d="M50.228 20L83.228 20" stroke="#66ABF0" stroke-width="3" stroke-linecap="round"/>
<path d="M50.228 28L83.228 28" stroke="#66ABF0" stroke-width="3" stroke-linecap="round"/>
<path d="M50.228 35L67.228 35" stroke="#66ABF0" stroke-width="3" stroke-linecap="round"/>
<path d="M29.2532 50.8901L29.2017 50.969C28.7598 51.6344 28.2782 52.2747 27.7591 52.8869C27.6552 52.8561 27.5601 52.803 27.4809 52.7316L25.4717 51.1046C25.1904 50.8681 24.8936 50.649 24.583 50.4488C24.2936 50.2642 23.9728 50.129 23.6351 50.0495C23.1821 49.9645 22.7139 49.9916 22.275 50.1284L22.1771 50.1555C22.0303 50.1999 21.8808 50.2492 21.734 50.3059C21.6567 50.3322 21.5795 50.3617 21.5022 50.3946L20.987 50.6115C20.884 50.5894 20.7758 50.5598 20.6676 50.5253C20.6135 50.5105 20.5568 50.4932 20.5027 50.4735C20.3791 50.4341 20.2451 50.3872 20.1266 50.3354L19.8304 50.2122L19.663 50.1358C19.5548 50.0865 19.4466 50.0347 19.3436 49.9829C18.8129 49.7167 18.4986 49.0116 18.071 49.0314C17.6434 49.0511 16.1159 51.2106 15.8506 52.6478C15.9665 47.4709 17.7078 44.069 19.3899 42.7871C19.3972 42.7784 19.4059 42.7709 19.4157 42.7649H21.2188L27.0559 42.3359C27.0559 42.3359 27.9704 43.0311 28.6298 44.954C28.7933 45.4291 28.9233 45.9141 29.0188 46.4059C29.2905 47.8856 29.3692 49.3919 29.2532 50.8901Z" fill="#999999"/>
<path d="M35.5694 23.2305C35.2165 25.9422 34.9975 27.2413 34.9615 27.4509C34.9621 27.4616 34.9621 27.4723 34.9615 27.4829C34.2866 28.1288 33.5756 28.962 33.5138 29.6079C33.4159 28.0992 33.5756 27.298 33.0604 26.773C32.5452 26.2479 31.7106 24.0021 32.0636 22.3061C32.4165 20.61 32.0636 18.591 29.1347 18.702C25.0441 18.8548 22.9525 19.5648 20.2477 18.7611C17.543 17.9575 16.6028 20.7974 16.6981 22.1828C16.7934 23.5682 15.6677 26.0038 15.9253 28.9916C15.7656 27.9464 15.6059 27.621 15.3148 27.298C15.3148 27.2537 15.3148 27.2093 15.3148 27.1625C15.0598 24.8329 15.1191 22.1557 14.9284 20.7333C14.7378 19.3109 14.7662 17.4053 16.5384 16.8531C16.9892 14.2326 19.2431 13 24.4929 13C29.7426 13 32.96 13.8308 34.7296 17.2229C35.827 19.9641 35.9558 20.2402 35.5694 23.2305Z" fill="#66ABF0"/>
<path d="M32.6072 41.1658C32.5402 42.0582 30.6418 44.9252 30.6418 44.9252L29.0189 46.4043L24.5832 50.4497C24.2938 50.265 23.973 50.1299 23.6352 50.0503C23.1823 49.9653 22.7141 49.9925 22.2751 50.1292L22.1773 50.1563C22.0304 50.2007 21.881 50.25 21.7342 50.3067C21.6569 50.333 21.5796 50.3626 21.5024 50.3954L20.9872 50.6124C20.8841 50.5902 20.776 50.5606 20.6678 50.5261C20.6137 50.5113 20.557 50.494 20.5029 50.4743C20.3793 50.4349 20.2453 50.388 20.1268 50.3363L19.8306 50.213L19.6632 50.1366C19.7018 49.932 19.743 49.72 19.7816 49.508C19.9336 48.7068 20.0701 47.9056 20.0985 47.5112C20.1423 46.8727 19.7533 44.622 19.4493 42.7559C19.2974 41.8314 19.166 41.0006 19.1196 40.5076L25.1679 37.0859H32.3805C32.3805 37.0859 32.3805 38.3925 32.414 39.2553C32.414 39.2553 32.4321 39.3268 32.4578 39.4476C32.5805 40.0124 32.6306 40.5894 32.6072 41.1658Z" fill="url(#paint0_linear_594_129)"/>
<path d="M36.6463 28.811L35.6726 31.8826C35.4563 32.5654 35.1755 33.3198 34.5057 33.6329C34.1992 33.7758 33.836 33.8104 33.5604 34.0051C33.1173 34.3231 33.0684 34.9271 32.9782 35.4497C32.5712 37.7941 30.6083 39.1746 28.6197 40.3184C27.5275 40.9471 26.4225 41.5806 25.2143 41.9701C24.0062 42.3596 22.6667 42.4878 21.4612 42.0958C20.1449 41.6718 19.1094 40.671 18.3701 39.5567C17.6329 38.4593 17.1255 37.2352 16.876 35.9526C16.755 35.393 16.7807 35.0134 16.3686 34.5894C15.9097 34.1666 15.5268 33.6744 15.2352 33.1324C14.72 31.9935 15.2352 30.6278 14.7792 29.4667C14.6582 29.1265 14.4624 28.8208 14.3181 28.4806C14.2401 28.3156 14.2011 28.1362 14.2037 27.9551C14.2064 27.7741 14.2507 27.5958 14.3336 27.4329C14.5242 27.1223 15.0188 26.9769 15.297 27.2209V27.1618C15.297 27.2086 15.297 27.253 15.297 27.2974C15.5881 27.6203 15.7478 27.9457 15.9075 28.9909C15.6499 26.0031 16.7782 23.5675 16.6803 22.1821C16.5824 20.7967 17.52 17.9617 20.2248 18.7604C22.9295 19.5592 25.0211 18.8541 29.1117 18.7013C32.0534 18.5903 32.3935 20.6093 32.0406 22.3054C31.6877 24.0014 32.5223 26.2497 33.0375 26.7723C33.5526 27.2949 33.3929 28.0985 33.4908 29.6072C33.5526 28.9614 34.2636 28.1281 34.9385 27.4822C34.9391 27.4716 34.9391 27.4609 34.9385 27.4502C35.1585 27.3007 35.413 27.2043 35.6804 27.1692C36.0616 27.1248 36.5124 27.2037 36.6618 27.5661C36.8098 27.9699 36.8043 28.4107 36.6463 28.811Z" fill="#EEEEEE"/>
<path d="M33.8257 43.7131C33.5681 44.3787 33.0297 45.0049 32.6408 45.6113C32.2029 46.2966 31.7641 46.9803 31.3245 47.6623C31.0669 48.0863 30.0648 49.6221 29.2637 50.8892L29.2122 50.9681C28.6507 51.8433 28.1818 52.5705 28.1174 52.6814C28.0787 52.7641 28.0138 52.8331 27.932 52.8786C27.8796 52.8971 27.8221 52.8971 27.7697 52.8786C27.6658 52.8478 27.5706 52.7947 27.4915 52.7233L25.4823 51.0963C25.201 50.8598 24.9041 50.6408 24.5936 50.4406C24.3042 50.2559 23.9834 50.1208 23.6456 50.0412C23.1926 49.9562 22.7245 49.9834 22.2855 50.1201L22.1876 50.1472C22.0408 50.1916 21.8914 50.2409 21.7446 50.2976C21.6673 50.3239 21.59 50.3535 21.5127 50.3863L20.9976 50.6033C21.5655 50.1102 22.1794 49.6679 22.8316 49.2819L23.6044 48.8086C25.4138 47.6914 27.0979 46.3986 28.6301 44.9506C29.2792 44.3393 29.8983 43.7016 30.4873 43.0376C31.0099 42.4658 31.4756 41.8484 31.8783 41.1937C32.0235 40.9503 32.1526 40.6983 32.2647 40.4393C32.4068 40.1955 32.478 39.9197 32.4708 39.6406C32.4505 39.5785 32.4452 39.5127 32.4553 39.4483C32.461 39.4326 32.4688 39.4177 32.4785 39.404C32.4994 39.3793 32.5273 39.3611 32.5589 39.3514C32.5905 39.3418 32.6243 39.3412 32.6562 39.3497C32.7207 39.3654 32.7806 39.3949 32.8314 39.436C33.0643 39.6755 33.2682 39.9393 33.4393 40.2224C33.61 40.5384 33.7505 40.8684 33.8592 41.2085C34.1348 42.0244 34.123 42.9042 33.8257 43.7131Z" fill="#66ABF0"/>
<path d="M20.9792 50.6149C20.8762 50.5927 20.768 50.5631 20.6598 50.5286C20.6057 50.5138 20.549 50.4965 20.4949 50.4768C20.3713 50.4374 20.2373 50.3905 20.1189 50.3388L19.8226 50.2155L19.6552 50.1391C19.547 50.0898 19.4388 50.038 19.3358 49.9862C18.8051 49.72 18.4909 49.0149 18.0633 49.0347C17.6357 49.0544 16.1159 51.209 15.8505 52.6462C15.8261 52.7623 15.8123 52.8802 15.8093 52.9987C15.003 51.3002 15.9819 45.1791 19.4156 42.7559C19.4058 42.7618 19.3971 42.7693 19.3899 42.778C19.2781 42.9533 19.1997 43.1461 19.158 43.3475C19.0505 43.6707 18.9644 44 18.9004 44.3336C18.719 45.2017 18.6799 46.0916 18.7845 46.9713C18.881 47.8834 19.2197 48.7566 19.7685 49.508C19.8097 49.5598 19.851 49.614 19.8947 49.6658C20.0652 49.8701 20.254 50.0598 20.4589 50.2327C20.5439 50.2919 20.8736 50.5409 20.9741 50.6099C20.9741 50.6099 20.9766 50.6149 20.9792 50.6149Z" fill="#66ABF0"/>
<rect x="37.5" y="8.5" width="19" height="3" rx="1.5" stroke="#66ABF0"/>
<defs>
<linearGradient id="paint0_linear_594_129" x1="19.7051" y1="51.5725" x2="19.7051" y2="35.8583" gradientUnits="userSpaceOnUse">
<stop stop-color="white"/>
<stop offset="1" stop-color="#BABABA"/>
</linearGradient>
</defs>
</svg>
