<svg width="84" height="62" viewBox="0 0 84 62" fill="none" xmlns="http://www.w3.org/2000/svg">
<g opacity="0.4">
<path d="M17.3291 51.5736L17.2698 51.6643C16.761 52.4295 16.2065 53.1659 15.6088 53.8699C15.4892 53.8345 15.3796 53.7734 15.2885 53.6913L12.975 51.8203C12.6511 51.5483 12.3093 51.2964 11.9517 51.0662C11.6185 50.8538 11.2492 50.6984 10.8602 50.6069C10.3387 50.5092 9.7996 50.5404 9.29419 50.6976L9.18148 50.7288C9.01242 50.7798 8.84039 50.8365 8.67133 50.9017C8.58235 50.932 8.49337 50.966 8.40439 51.0038L7.81119 51.2533C7.69255 51.2278 7.56797 51.1937 7.4434 51.1541C7.38112 51.137 7.31586 51.1172 7.25358 51.0945C7.11121 51.0492 6.95698 50.9953 6.82054 50.9358L6.47945 50.794L6.28666 50.7061C6.16209 50.6494 6.03752 50.5899 5.91888 50.5304C5.30788 50.2242 4.94603 49.4134 4.45367 49.4361C3.96131 49.4588 2.20247 51.9422 1.89697 53.595C2.03044 47.6415 4.03546 43.7293 5.97226 42.2551C5.98061 42.2451 5.99063 42.2365 6.00192 42.2296H8.07813L14.7991 41.7363C14.7991 41.7363 15.852 42.5358 16.6113 44.7471C16.7996 45.2934 16.9493 45.8513 17.0592 46.4168C17.3721 48.1185 17.4627 49.8506 17.3291 51.5736Z" fill="#7D7D7D"/>
<path d="M24.6014 19.7651C24.1951 22.8835 23.943 24.3775 23.9014 24.6185C23.9022 24.6308 23.9022 24.6431 23.9014 24.6554C23.1244 25.3981 22.3057 26.3563 22.2346 27.0991C22.1218 25.3641 22.3057 24.4427 21.7125 23.8389C21.1193 23.2351 20.1583 20.6524 20.5647 18.702C20.971 16.7515 20.5647 14.4297 17.1923 14.5573C12.4823 14.733 10.0739 15.5495 6.95963 14.6253C3.84532 13.7011 2.76273 16.967 2.87247 18.5602C2.98222 20.1535 1.68607 22.9544 1.98267 26.3904C1.79878 25.1883 1.61489 24.8141 1.27973 24.4427C1.27973 24.3917 1.27973 24.3407 1.27973 24.2868C0.986094 21.6078 1.05431 18.529 0.834828 16.8933C0.615343 15.2575 0.64797 13.0661 2.68858 12.431C3.20763 9.41748 5.80289 8 11.8476 8C17.8923 8 21.5969 8.95538 23.6345 12.8563C24.898 16.0088 25.0463 16.3263 24.6014 19.7651Z" fill="#66ABF0"/>
<path d="M21.1906 40.3891C21.1135 41.4154 18.9276 44.7124 18.9276 44.7124L17.059 46.4134L11.9515 51.0656C11.6183 50.8532 11.249 50.6978 10.8601 50.6063C10.3385 50.5086 9.79941 50.5398 9.294 50.697L9.18129 50.7282C9.01223 50.7792 8.8402 50.8359 8.67114 50.9011C8.58216 50.9314 8.49318 50.9654 8.4042 51.0032L7.811 51.2527C7.69236 51.2272 7.56779 51.1931 7.44321 51.1535C7.38093 51.1364 7.31568 51.1166 7.25339 51.0939C7.11102 51.0486 6.95679 50.9947 6.82035 50.9352L6.47926 50.7934L6.28647 50.7055C6.33096 50.4702 6.37842 50.2264 6.42291 49.9826C6.5979 49.0613 6.7551 48.1399 6.78773 47.6863C6.83815 46.952 6.39028 44.3637 6.04029 42.2177C5.8653 41.1546 5.71403 40.1992 5.66064 39.6322L12.6248 35.6973H20.9296C20.9296 35.6973 20.9296 37.1998 20.9682 38.192C20.9682 38.192 20.989 38.2742 21.0186 38.4132C21.1598 39.0627 21.2176 39.7262 21.1906 40.3891Z" fill="url(#paint0_linear_586_169)"/>
<path d="M25.8412 26.1832L24.72 29.7156C24.4709 30.5008 24.1476 31.3683 23.3764 31.7284C23.0235 31.8928 22.6053 31.9325 22.2879 32.1565C21.7778 32.5222 21.7214 33.2167 21.6176 33.8177C21.149 36.5138 18.8889 38.1014 16.5991 39.4168C15.3415 40.1397 14.0691 40.8683 12.6781 41.3162C11.287 41.7641 9.74469 41.9115 8.3566 41.4608C6.84097 40.9732 5.64863 39.8222 4.79739 38.5408C3.94855 37.2787 3.3643 35.8711 3.07711 34.3961C2.9377 33.7525 2.96736 33.316 2.4928 32.8283C1.96447 32.3422 1.52355 31.7761 1.18776 31.1529C0.594561 29.8431 1.18776 28.2726 0.662779 26.9373C0.523376 26.5461 0.29796 26.1945 0.131864 25.8033C0.0420436 25.6136 -0.00292804 25.4072 0.000147782 25.199C0.00322361 24.9908 0.0542713 24.7857 0.14966 24.5985C0.369144 24.2413 0.938617 24.074 1.25895 24.3547V24.2866C1.25895 24.3405 1.25895 24.3915 1.25895 24.4425C1.5941 24.8139 1.778 25.1881 1.96189 26.3902C1.66529 22.9542 2.9644 20.1533 2.85169 18.56C2.73898 16.9668 3.81861 13.7066 6.93291 14.6251C10.0472 15.5436 12.4556 14.7328 17.1656 14.5571C20.5528 14.4295 20.9443 16.7513 20.538 18.7018C20.1316 20.6522 21.0926 23.2377 21.6858 23.8387C22.279 24.4397 22.0951 25.3639 22.2078 27.0989C22.279 26.3561 23.0976 25.3979 23.8747 24.6552C23.8755 24.6429 23.8755 24.6306 23.8747 24.6183C24.1281 24.4464 24.4211 24.3355 24.7289 24.2951C25.1679 24.2441 25.687 24.3348 25.859 24.7516C26.0294 25.2159 26.0231 25.7228 25.8412 26.1832Z" fill="#F4F4F4"/>
<path d="M22.5935 43.3216C22.2969 44.0871 21.677 44.8071 21.2291 45.5045C20.7249 46.2927 20.2197 47.0789 19.7135 47.8632C19.4169 48.3508 18.2631 50.117 17.3407 51.5742L17.2813 51.6649C16.6348 52.6713 16.0949 53.5076 16.0208 53.6352C15.9761 53.7303 15.9015 53.8096 15.8072 53.862C15.7469 53.8833 15.6807 53.8833 15.6204 53.862C15.5008 53.8266 15.3912 53.7655 15.3001 53.6834L12.9866 51.8123C12.6627 51.5403 12.3209 51.2885 11.9633 51.0582C11.6301 50.8458 11.2607 50.6904 10.8718 50.599C10.3502 50.5012 9.81117 50.5324 9.30576 50.6897L9.19305 50.7209C9.02399 50.7719 8.85196 50.8286 8.6829 50.8938C8.59392 50.924 8.50494 50.9581 8.41595 50.9959L7.82275 51.2453C8.47669 50.6783 9.18357 50.1696 9.93455 49.7258L10.8244 49.1815C12.9077 47.8967 14.8469 46.4099 16.611 44.7448C17.3585 44.0417 18.0713 43.3084 18.7495 42.5449C19.3513 41.8872 19.8875 41.1773 20.3512 40.4243C20.5184 40.1444 20.667 39.8546 20.7961 39.5568C20.9597 39.2764 21.0416 38.9592 21.0333 38.6383C21.01 38.5668 21.0039 38.4912 21.0155 38.4172C21.022 38.3991 21.031 38.3819 21.0422 38.3661C21.0663 38.3378 21.0985 38.3168 21.1348 38.3057C21.1712 38.2946 21.2101 38.294 21.2469 38.3038C21.3211 38.3218 21.3901 38.3557 21.4486 38.403C21.7167 38.6784 21.9515 38.9817 22.1486 39.3073C22.345 39.6707 22.5069 40.0502 22.632 40.4413C22.9493 41.3796 22.9358 42.3914 22.5935 43.3216Z" fill="#66ABF0"/>
<path d="M7.80234 51.2585C7.6837 51.233 7.55913 51.199 7.43456 51.1593C7.37227 51.1423 7.30702 51.1225 7.24474 51.0998C7.10237 51.0544 6.94814 51.0006 6.8117 50.941L6.47061 50.7993L6.27782 50.7114C6.15325 50.6547 6.02867 50.5952 5.91003 50.5356C5.29904 50.2295 4.93718 49.4187 4.44483 49.4413C3.95247 49.464 2.20253 51.9418 1.89703 53.5945C1.86887 53.7281 1.85299 53.8637 1.84957 53.9999C0.921214 52.0467 2.0483 45.0075 6.00198 42.2207C5.99069 42.2276 5.98067 42.2362 5.97232 42.2462C5.84368 42.4478 5.75331 42.6695 5.70538 42.9011C5.58155 43.2727 5.48248 43.6515 5.40878 44.0351C5.19985 45.0335 5.15482 46.0569 5.27531 47.0685C5.38637 48.1173 5.77641 49.1216 6.40832 49.9857C6.45578 50.0452 6.50323 50.1076 6.55366 50.1671C6.74995 50.4021 6.96729 50.6202 7.20321 50.8191C7.30109 50.8872 7.68074 51.1735 7.79641 51.2529C7.79641 51.2529 7.79938 51.2585 7.80234 51.2585Z" fill="#66ABF0"/>
</g>
<g opacity="0.4">
<path d="M56.3291 51.5736L56.2698 51.6643C55.761 52.4295 55.2065 53.1659 54.6088 53.8699C54.4892 53.8345 54.3796 53.7734 54.2885 53.6913L51.975 51.8203C51.6511 51.5483 51.3093 51.2964 50.9517 51.0662C50.6185 50.8538 50.2492 50.6984 49.8602 50.6069C49.3387 50.5092 48.7996 50.5404 48.2942 50.6976L48.1815 50.7288C48.0124 50.7798 47.8404 50.8365 47.6713 50.9017C47.5823 50.932 47.4934 50.966 47.4044 51.0038L46.8112 51.2533C46.6925 51.2278 46.568 51.1937 46.4434 51.1541C46.3811 51.137 46.3159 51.1172 46.2536 51.0945C46.1112 51.0492 45.957 50.9953 45.8205 50.9358L45.4795 50.794L45.2867 50.7061C45.1621 50.6494 45.0375 50.5899 44.9189 50.5304C44.3079 50.2242 43.946 49.4134 43.4537 49.4361C42.9613 49.4588 41.2025 51.9422 40.897 53.595C41.0304 47.6415 43.0355 43.7293 44.9723 42.2551C44.9806 42.2451 44.9906 42.2365 45.0019 42.2296H47.0781L53.7991 41.7363C53.7991 41.7363 54.852 42.5358 55.6113 44.7471C55.7996 45.2934 55.9493 45.8513 56.0592 46.4168C56.3721 48.1185 56.4627 49.8506 56.3291 51.5736Z" fill="#7D7D7D"/>
<path d="M63.6014 19.7651C63.1951 22.8835 62.943 24.3775 62.9014 24.6185C62.9022 24.6308 62.9022 24.6431 62.9014 24.6554C62.1244 25.3981 61.3057 26.3563 61.2346 27.0991C61.1218 25.3641 61.3057 24.4427 60.7125 23.8389C60.1193 23.2351 59.1583 20.6524 59.5647 18.702C59.971 16.7515 59.5647 14.4297 56.1923 14.5573C51.4823 14.733 49.0739 15.5495 45.9596 14.6253C42.8453 13.7011 41.7627 16.967 41.8725 18.5602C41.9822 20.1535 40.6861 22.9544 40.9827 26.3904C40.7988 25.1883 40.6149 24.8141 40.2797 24.4427C40.2797 24.3917 40.2797 24.3407 40.2797 24.2868C39.9861 21.6078 40.0543 18.529 39.8348 16.8933C39.6153 15.2575 39.648 13.0661 41.6886 12.431C42.2076 9.41748 44.8029 8 50.8476 8C56.8923 8 60.5969 8.95538 62.6345 12.8563C63.898 16.0088 64.0463 16.3263 63.6014 19.7651Z" fill="#66ABF0"/>
<path d="M60.1906 40.3891C60.1135 41.4154 57.9276 44.7124 57.9276 44.7124L56.059 46.4134L50.9515 51.0656C50.6183 50.8532 50.249 50.6978 49.8601 50.6063C49.3385 50.5086 48.7994 50.5398 48.294 50.697L48.1813 50.7282C48.0122 50.7792 47.8402 50.8359 47.6711 50.9011C47.5822 50.9314 47.4932 50.9654 47.4042 51.0032L46.811 51.2527C46.6924 51.2272 46.5678 51.1931 46.4432 51.1535C46.3809 51.1364 46.3157 51.1166 46.2534 51.0939C46.111 51.0486 45.9568 50.9947 45.8204 50.9352L45.4793 50.7934L45.2865 50.7055C45.331 50.4702 45.3784 50.2264 45.4229 49.9826C45.5979 49.0613 45.7551 48.1399 45.7877 47.6863C45.8381 46.952 45.3903 44.3637 45.0403 42.2177C44.8653 41.1546 44.714 40.1992 44.6606 39.6322L51.6248 35.6973H59.9296C59.9296 35.6973 59.9296 37.1998 59.9682 38.192C59.9682 38.192 59.989 38.2742 60.0186 38.4132C60.1598 39.0627 60.2176 39.7262 60.1906 40.3891Z" fill="url(#paint1_linear_586_169)"/>
<path d="M64.8412 26.1832L63.72 29.7156C63.4709 30.5008 63.1476 31.3683 62.3764 31.7284C62.0235 31.8928 61.6053 31.9325 61.2879 32.1565C60.7778 32.5222 60.7214 33.2167 60.6176 33.8177C60.149 36.5138 57.8889 38.1014 55.5991 39.4168C54.3415 40.1397 53.0691 40.8683 51.6781 41.3162C50.287 41.7641 48.7447 41.9115 47.3566 41.4608C45.841 40.9732 44.6486 39.8222 43.7974 38.5408C42.9485 37.2787 42.3643 35.8711 42.0771 34.3961C41.9377 33.7525 41.9674 33.316 41.4928 32.8283C40.9645 32.3422 40.5235 31.7761 40.1878 31.1529C39.5946 29.8431 40.1878 28.2726 39.6628 26.9373C39.5234 26.5461 39.298 26.1945 39.1319 25.8033C39.042 25.6136 38.9971 25.4072 39.0001 25.199C39.0032 24.9908 39.0543 24.7857 39.1497 24.5985C39.3691 24.2413 39.9386 24.074 40.2589 24.3547V24.2866C40.2589 24.3405 40.2589 24.3915 40.2589 24.4425C40.5941 24.8139 40.778 25.1881 40.9619 26.3902C40.6653 22.9542 41.9644 20.1533 41.8517 18.56C41.739 16.9668 42.8186 13.7066 45.9329 14.6251C49.0472 15.5436 51.4556 14.7328 56.1656 14.5571C59.5528 14.4295 59.9443 16.7513 59.538 18.7018C59.1316 20.6522 60.0926 23.2377 60.6858 23.8387C61.279 24.4397 61.0951 25.3639 61.2078 27.0989C61.279 26.3561 62.0976 25.3979 62.8747 24.6552C62.8755 24.6429 62.8755 24.6306 62.8747 24.6183C63.1281 24.4464 63.4211 24.3355 63.7289 24.2951C64.1679 24.2441 64.687 24.3348 64.859 24.7516C65.0294 25.2159 65.0231 25.7228 64.8412 26.1832Z" fill="#F4F4F4"/>
<path d="M61.5935 43.3216C61.2969 44.0871 60.677 44.8071 60.2291 45.5045C59.7249 46.2927 59.2197 47.0789 58.7135 47.8632C58.4169 48.3508 57.2631 50.117 56.3407 51.5742L56.2813 51.6649C55.6348 52.6713 55.0949 53.5076 55.0208 53.6352C54.9761 53.7303 54.9015 53.8096 54.8072 53.862C54.7469 53.8833 54.6807 53.8833 54.6204 53.862C54.5008 53.8266 54.3912 53.7655 54.3001 53.6834L51.9866 51.8123C51.6627 51.5403 51.3209 51.2885 50.9633 51.0582C50.6301 50.8458 50.2607 50.6904 49.8718 50.599C49.3502 50.5012 48.8112 50.5324 48.3058 50.6897L48.193 50.7209C48.024 50.7719 47.852 50.8286 47.6829 50.8938C47.5939 50.924 47.5049 50.9581 47.416 50.9959L46.8228 51.2453C47.4767 50.6783 48.1836 50.1696 48.9345 49.7258L49.8244 49.1815C51.9077 47.8967 53.8469 46.4099 55.611 44.7448C56.3585 44.0417 57.0713 43.3084 57.7495 42.5449C58.3513 41.8872 58.8875 41.1773 59.3512 40.4243C59.5184 40.1444 59.667 39.8546 59.7961 39.5568C59.9597 39.2764 60.0416 38.9592 60.0333 38.6383C60.01 38.5668 60.0039 38.4912 60.0155 38.4172C60.022 38.3991 60.031 38.3819 60.0422 38.3661C60.0663 38.3378 60.0985 38.3168 60.1348 38.3057C60.1712 38.2946 60.2101 38.294 60.2469 38.3038C60.3211 38.3218 60.3901 38.3557 60.4486 38.403C60.7167 38.6784 60.9515 38.9817 61.1486 39.3073C61.345 39.6707 61.5069 40.0502 61.632 40.4413C61.9493 41.3796 61.9358 42.3914 61.5935 43.3216Z" fill="#66ABF0"/>
<path d="M46.8023 51.2585C46.6837 51.233 46.5591 51.199 46.4346 51.1593C46.3723 51.1423 46.307 51.1225 46.2447 51.0998C46.1024 51.0544 45.9481 51.0006 45.8117 50.941L45.4706 50.7993L45.2778 50.7114C45.1532 50.6547 45.0287 50.5952 44.91 50.5356C44.299 50.2295 43.9372 49.4187 43.4448 49.4413C42.9525 49.464 41.2025 51.9418 40.897 53.5945C40.8689 53.7281 40.853 53.8637 40.8496 53.9999C39.9212 52.0467 41.0483 45.0075 45.002 42.2207C44.9907 42.2276 44.9807 42.2362 44.9723 42.2462C44.8437 42.4478 44.7533 42.6695 44.7054 42.9011C44.5815 43.2727 44.4825 43.6515 44.4088 44.0351C44.1998 45.0335 44.1548 46.0569 44.2753 47.0685C44.3864 48.1173 44.7764 49.1216 45.4083 49.9857C45.4558 50.0452 45.5032 50.1076 45.5537 50.1671C45.75 50.4021 45.9673 50.6202 46.2032 50.8191C46.3011 50.8872 46.6807 51.1735 46.7964 51.2529C46.7964 51.2529 46.7994 51.2585 46.8023 51.2585Z" fill="#66ABF0"/>
</g>
<path d="M39.3267 58.7297L39.2469 58.8519C38.5621 59.8833 37.8155 60.8758 37.011 61.8247C36.85 61.777 36.7025 61.6946 36.5798 61.584L33.4655 59.0621C33.0294 58.6955 32.5693 58.356 32.088 58.0457C31.6394 57.7594 31.1422 57.55 30.6187 57.4267C29.9165 57.295 29.1909 57.337 28.5105 57.549L28.3588 57.591C28.1312 57.6598 27.8996 57.7362 27.6721 57.8241C27.5523 57.8648 27.4325 57.9107 27.3127 57.9616L26.5142 58.2979C26.3545 58.2635 26.1868 58.2177 26.0191 58.1642C25.9352 58.1412 25.8474 58.1145 25.7635 58.0839C25.5719 58.0228 25.3643 57.9502 25.1806 57.8699L24.7215 57.6789L24.4619 57.5604C24.2942 57.484 24.1265 57.4038 23.9668 57.3235C23.1443 56.9109 22.6572 55.818 21.9944 55.8486C21.3317 55.8792 18.964 59.2264 18.5527 61.4541C18.7324 53.4299 21.4315 48.1569 24.0387 46.17C24.0499 46.1565 24.0634 46.1448 24.0786 46.1356H26.8735L35.921 45.4707C35.921 45.4707 37.3384 46.5482 38.3605 49.5286C38.614 50.265 38.8154 51.0169 38.9634 51.7792C39.3846 54.0727 39.5066 56.4074 39.3267 58.7297Z" fill="#7D7D7D"/>
<path d="M49.1169 15.8573C48.5699 20.0604 48.2305 22.0741 48.1746 22.3989C48.1756 22.4154 48.1756 22.432 48.1746 22.4485C47.1285 23.4496 46.0265 24.7412 45.9307 25.7423C45.779 23.4038 46.0265 22.162 45.228 21.3481C44.4294 20.5342 43.1358 17.0532 43.6828 14.4244C44.2298 11.7955 43.6828 8.66609 39.1431 8.83804C32.8027 9.07494 29.5606 10.1754 25.3683 8.92974C21.176 7.68409 19.7186 12.0859 19.8664 14.2333C20.0141 16.3807 18.2693 20.1559 18.6685 24.787C18.421 23.1669 18.1735 22.6625 17.7223 22.162C17.7223 22.0932 17.7223 22.0244 17.7223 21.9518C17.327 18.3409 17.4188 14.1913 17.1234 11.9866C16.8279 9.78183 16.8718 6.82818 19.6188 5.97227C20.3175 1.91051 23.8111 0 31.9483 0C40.0854 0 45.0723 1.28769 47.8153 6.54542C49.5161 10.7944 49.7158 11.2224 49.1169 15.8573Z" fill="#66ABF0"/>
<path d="M44.5254 43.6558C44.4216 45.039 41.479 49.4829 41.479 49.4829L38.9636 51.7755L32.0881 58.0458C31.6396 57.7596 31.1424 57.5501 30.6188 57.4268C29.9167 57.2951 29.191 57.3372 28.5107 57.5491L28.359 57.5911C28.1314 57.6599 27.8998 57.7363 27.6722 57.8242C27.5524 57.865 27.4327 57.9108 27.3129 57.9618L26.5143 58.298C26.3546 58.2636 26.1869 58.2178 26.0192 58.1643C25.9354 58.1414 25.8476 58.1146 25.7637 58.084C25.5721 58.0229 25.3644 57.9503 25.1808 57.8701L24.7216 57.679L24.4621 57.5606C24.522 57.2434 24.5859 56.9148 24.6458 56.5862C24.8813 55.3444 25.0929 54.1025 25.1369 53.4912C25.2047 52.5015 24.6018 49.0129 24.1307 46.1204C23.8951 44.6875 23.6915 43.3998 23.6196 42.6356L32.9945 37.332H44.174C44.174 37.332 44.174 39.3572 44.2259 40.6945C44.2259 40.6945 44.2539 40.8053 44.2938 40.9926C44.4839 41.868 44.5617 42.7624 44.5254 43.6558Z" fill="url(#paint2_linear_586_169)"/>
<path d="M50.7857 24.5072L49.2765 29.2682C48.9411 30.3266 48.5059 31.4959 47.4678 31.9811C46.9927 32.2028 46.4297 32.2563 46.0025 32.5581C45.3157 33.051 45.2399 33.9872 45.1001 34.7972C44.4693 38.431 41.4268 40.5708 38.3445 42.3438C36.6516 43.3181 34.9387 44.3001 33.0661 44.9039C31.1936 45.5076 29.1174 45.7063 27.2488 45.0987C25.2085 44.4415 23.6034 42.8902 22.4575 41.1631C21.3149 39.4621 20.5284 37.5648 20.1418 35.5767C19.9541 34.7094 19.994 34.1209 19.3552 33.4637C18.644 32.8084 18.0504 32.0454 17.5984 31.2055C16.7999 29.4402 17.5984 27.3233 16.8917 25.5236C16.7041 24.9963 16.4006 24.5225 16.177 23.9952C16.0561 23.7394 15.9956 23.4613 15.9997 23.1807C16.0039 22.9 16.0726 22.6236 16.201 22.3713C16.4964 21.8898 17.263 21.6644 17.6942 22.0426V21.9509C17.6942 22.0235 17.6942 22.0923 17.6942 22.1611C18.1454 22.6617 18.393 23.166 18.6405 24.7861C18.2412 20.1551 19.99 16.3799 19.8383 14.2325C19.6866 12.085 21.1399 7.69087 25.3323 8.92888C29.5246 10.1669 32.7667 9.07408 39.1071 8.83717C43.6668 8.66523 44.1938 11.7947 43.6468 14.4235C43.0998 17.0524 44.3934 20.5372 45.192 21.3472C45.9905 22.1573 45.743 23.4029 45.8947 25.7414C45.9905 24.7403 47.0925 23.4488 48.1386 22.4477C48.1396 22.4311 48.1396 22.4145 48.1386 22.398C48.4796 22.1662 48.8741 22.0168 49.2885 21.9624C49.8794 21.8936 50.5781 22.0159 50.8097 22.5776C51.0391 23.2035 51.0306 23.8867 50.7857 24.5072Z" fill="#F4F4F4"/>
<path d="M46.4139 47.6065C46.0146 48.6382 45.1802 49.6087 44.5773 50.5487C43.8985 51.6109 43.2184 52.6706 42.537 53.7278C42.1377 54.385 40.5846 56.7655 39.3428 58.7295L39.263 58.8518C38.3926 60.2082 37.6659 61.3354 37.5661 61.5074C37.506 61.6355 37.4054 61.7424 37.2786 61.8131C37.1974 61.8417 37.1083 61.8417 37.0271 61.8131C36.866 61.7653 36.7186 61.683 36.5959 61.5723L33.4816 59.0505C33.0455 58.6839 32.5854 58.3444 32.1041 58.0341C31.6555 57.7478 31.1583 57.5383 30.6348 57.4151C29.9326 57.2833 29.207 57.3254 28.5266 57.5373L28.3749 57.5794C28.1473 57.6481 27.9157 57.7246 27.6882 57.8124C27.5684 57.8532 27.4486 57.8991 27.3288 57.95L26.5303 58.2863C27.4106 57.522 28.3621 56.8364 29.3731 56.2382L30.5709 55.5045C33.3754 53.7728 35.9858 51.7689 38.3606 49.5246C39.3668 48.577 40.3264 47.5887 41.2394 46.5595C42.0494 45.6731 42.7713 44.7162 43.3954 43.7014C43.6205 43.3241 43.8206 42.9336 43.9943 42.5322C44.2146 42.1543 44.3249 41.7267 44.3138 41.2941C44.2824 41.1978 44.2742 41.0959 44.2898 40.9961C44.2985 40.9718 44.3106 40.9486 44.3257 40.9273C44.3581 40.8891 44.4014 40.8608 44.4504 40.8459C44.4993 40.831 44.5517 40.83 44.6012 40.8433C44.7012 40.8675 44.794 40.9133 44.8727 40.977C45.2336 41.3482 45.5497 41.757 45.815 42.1959C46.0795 42.6856 46.2973 43.1972 46.4658 43.7243C46.893 44.9889 46.8747 46.3527 46.4139 47.6065Z" fill="#66ABF0"/>
<path d="M26.5021 58.3045C26.3424 58.2701 26.1747 58.2242 26.007 58.1708C25.9231 58.1478 25.8353 58.1211 25.7515 58.0905C25.5598 58.0294 25.3522 57.9568 25.1685 57.8765L24.7094 57.6855L24.4498 57.567C24.2821 57.4906 24.1145 57.4104 23.9547 57.3301C23.1322 56.9174 22.6451 55.8246 21.9824 55.8552C21.3196 55.8858 18.9639 59.2254 18.5526 61.453C18.5147 61.633 18.4933 61.8158 18.4887 61.9994C17.239 59.3667 18.7563 49.8791 24.0785 46.123C24.0633 46.1323 24.0498 46.1439 24.0386 46.1574C23.8654 46.4291 23.7438 46.7279 23.6792 47.0401C23.5126 47.541 23.3792 48.0515 23.28 48.5685C22.9987 49.9142 22.9381 51.2935 23.1003 52.657C23.2498 54.0707 23.7749 55.4243 24.6255 56.5888C24.6894 56.6691 24.7533 56.7531 24.8212 56.8334C25.0854 57.1501 25.378 57.4441 25.6956 57.7122C25.8273 57.8039 26.3384 58.1899 26.4941 58.2968C26.4941 58.2968 26.4981 58.3045 26.5021 58.3045Z" fill="#66ABF0"/>
<path fill-rule="evenodd" clip-rule="evenodd" d="M76.93 24H74.0728V30.0713H68.0015V32.9285H74.0728V39H76.93V32.9285H83.0015V30.0713H76.93V24Z" fill="#66ABF0"/>
<defs>
<linearGradient id="paint0_linear_586_169" x1="6.3348" y1="52.3569" x2="6.3348" y2="34.2854" gradientUnits="userSpaceOnUse">
<stop stop-color="white"/>
<stop offset="1" stop-color="#BABABA"/>
</linearGradient>
<linearGradient id="paint1_linear_586_169" x1="45.3348" y1="52.3569" x2="45.3348" y2="34.2854" gradientUnits="userSpaceOnUse">
<stop stop-color="white"/>
<stop offset="1" stop-color="#BABABA"/>
</linearGradient>
<linearGradient id="paint2_linear_586_169" x1="24.5271" y1="59.7863" x2="24.5271" y2="35.4291" gradientUnits="userSpaceOnUse">
<stop stop-color="white"/>
<stop offset="1" stop-color="#BABABA"/>
</linearGradient>
</defs>
</svg>
