<svg xmlns="http://www.w3.org/2000/svg" viewBox="0 0 444.59 700"><defs><style>.cls-1{fill:#b0d7ff;}.cls-2,.cls-7{fill:#92bde3;}.cls-3{fill:#e0f0ff;}.cls-4{fill:#fff;}.cls-10,.cls-4,.cls-5,.cls-6,.cls-7,.cls-8{stroke:#263238;stroke-linecap:round;stroke-linejoin:round;stroke-width:1.18px;}.cls-5{fill:#8098b1;}.cls-6{fill:#50759f;}.cls-8,.cls-9{fill:#263238;}.cls-10{fill:none;}.cls-11{fill:#113660;}</style></defs><title>imagen almacen</title><g id="Layer_2" data-name="Layer 2"><g id="Floor"><rect class="cls-1" x="0.59" width="444" height="700"/><path class="cls-2" d="M416.45,473.17c-.32,1.79-.66,3.57-1,5.34s-.79,3.76-1.24,5.62c-1.07,4.52-2.29,9-3.67,13.47A192.21,192.21,0,0,1,396,532.19c-2.52,4.66-5.19,9.14-8,13.48-.81,1.25-1.65,2.49-2.5,3.71-.15.23-.32.48-.49.71q-.63.93-1.29,1.83c-2.76,3.88-5.67,7.61-8.68,11.21-1.34,1.58-2.69,3.15-4.08,4.68A186.29,186.29,0,0,1,357,581.73c-1,.85-1.91,1.7-2.87,2.52a5.3,5.3,0,0,1-.46.39c-2.08,1.8-4.19,3.53-6.34,5.23-.51.4-1,.81-1.55,1.2-2.16,1.67-4.36,3.29-6.58,4.85-.84.6-1.68,1.18-2.54,1.76C282.65,634.6,211.59,644,151.84,630.55a253,253,0,0,0-88.94-4c-21,2.76-41.69,6.46-62.31,10.13V95.81a143.14,143.14,0,0,1,33.08-9.58C96,76.63,159.79,98.7,215.1,129.74c7.6,4.27,15.21,8.81,22.76,13.63q4.54,2.88,9,5.9c1.67,1.12,3.34,2.24,5,3.4,2.26,1.55,4.51,3.12,6.76,4.73,1.14.8,2.26,1.62,3.39,2.44.69.48,1.37,1,2.06,1.5,2.63,1.92,5.26,3.9,7.88,5.9a443.52,443.52,0,0,1,69.28,65.63q3.75,4.41,7.33,8.93,1.49,1.84,2.92,3.71Q359.67,256,367.07,267l.26.39c1.16,1.74,2.3,3.47,3.41,5.23,17.49,27.24,31.28,57,39.76,88.86q1.5,5.58,2.75,11.27c.43,1.86.82,3.72,1.21,5.6q1.1,5.47,2,11.05a275.08,275.08,0,0,1,3.45,37.65A229.16,229.16,0,0,1,416.45,473.17Z"/><path class="cls-3" d="M416.45,473.17c-.32,1.79-.66,3.57-1,5.34s-.79,3.76-1.24,5.62c-1.07,4.52-2.29,9-3.67,13.47A192.21,192.21,0,0,1,396,532.19c-2.52,4.66-5.19,9.14-8,13.48-.81,1.25-1.65,2.49-2.5,3.71-.15.23-.32.48-.49.71q-.63.93-1.29,1.83c-2.76,3.88-5.67,7.61-8.68,11.21-1.34,1.58-2.69,3.15-4.08,4.68A186.29,186.29,0,0,1,357,581.73c-1,.85-1.91,1.7-2.87,2.52a5.3,5.3,0,0,1-.46.39c-2.08,1.8-4.19,3.53-6.34,5.23-.51.4-1,.81-1.55,1.2-2.16,1.67-4.36,3.29-6.58,4.85-.84.6-1.68,1.18-2.54,1.76C282.65,634.6,211.59,644,151.84,630.55a253,253,0,0,0-88.94-4c-21,2.76-41.69,6.46-62.31,10.13V95.81a143.14,143.14,0,0,1,33.08-9.58C96,76.63,159.79,98.7,215.1,129.74c7.6,4.27,15.21,8.81,22.76,13.63q4.54,2.88,9,5.9c1.67,1.12,3.34,2.24,5,3.4,2.26,1.55,4.51,3.12,6.76,4.73,1.14.8,2.26,1.62,3.39,2.44.69.48,1.37,1,2.06,1.5,2.63,1.92,5.26,3.9,7.88,5.9a443.52,443.52,0,0,1,69.28,65.63q3.75,4.41,7.33,8.93,1.49,1.84,2.92,3.71Q359.67,256,367.07,267l.26.39c1.16,1.74,2.3,3.47,3.41,5.23,17.49,27.24,31.28,57,39.76,88.86q1.5,5.58,2.75,11.27c.43,1.86.82,3.72,1.21,5.6q1.1,5.47,2,11.05a275.08,275.08,0,0,1,3.45,37.65A229.16,229.16,0,0,1,416.45,473.17Z"/><rect class="cls-4" x="232.01" y="362.11" width="114.52" height="6.38"/><rect class="cls-4" x="234.86" y="368.69" width="9.48" height="3.91"/><rect class="cls-4" x="284.53" y="368.69" width="9.48" height="3.91"/><rect class="cls-4" x="334.39" y="368.69" width="9.48" height="3.91"/><rect class="cls-5" x="348.15" y="550.09" width="62.44" height="34.55" transform="translate(758.73 1134.73) rotate(180)"/><rect class="cls-4" x="375.03" y="550.09" width="8.67" height="16.18" transform="translate(758.73 1116.36) rotate(180)"/><rect class="cls-6" x="224.03" y="550.09" width="62.44" height="34.55" transform="translate(510.49 1134.73) rotate(180)"/><rect class="cls-4" x="250.91" y="550.09" width="8.67" height="16.18" transform="translate(510.49 1116.36) rotate(180)"/><rect class="cls-6" x="228.36" y="515.95" width="62.44" height="34.55" transform="translate(519.16 1066.45) rotate(180)"/><rect class="cls-4" x="255.24" y="515.95" width="8.67" height="16.18" transform="translate(519.16 1048.08) rotate(180)"/><rect class="cls-5" x="310.46" y="514.83" width="77.53" height="34.55" transform="translate(698.45 1064.21) rotate(180)"/><rect class="cls-4" x="322.53" y="527.43" width="12.87" height="10.28" transform="translate(657.93 1065.14) rotate(180)"/><rect class="cls-4" x="344.89" y="514.83" width="8.67" height="16.18" transform="translate(698.45 1045.84) rotate(180)"/><rect class="cls-7" x="320.95" y="550.09" width="26.27" height="34.55" transform="translate(668.16 1134.73) rotate(180)"/><rect class="cls-4" x="329.74" y="550.09" width="8.67" height="16.18" transform="translate(668.16 1116.36) rotate(180)"/><rect class="cls-7" x="292.3" y="550.09" width="26.27" height="34.55" transform="translate(610.87 1134.73) rotate(180)"/><rect class="cls-4" x="301.1" y="550.09" width="8.67" height="16.18" transform="translate(610.87 1116.36) rotate(180)"/><rect class="cls-7" x="217.85" y="445.03" width="62.44" height="34.55"/><rect class="cls-4" x="244.73" y="445.03" width="8.67" height="16.18"/><rect class="cls-7" x="341.97" y="445.03" width="62.44" height="34.55"/><rect class="cls-4" x="368.85" y="445.03" width="8.67" height="16.18"/><rect class="cls-7" x="337.63" y="410.89" width="62.44" height="34.55"/><rect class="cls-4" x="364.51" y="410.89" width="8.67" height="16.18"/><rect class="cls-7" x="240.44" y="409.77" width="77.53" height="34.55"/><rect class="cls-4" x="293.03" y="422.37" width="12.87" height="10.28"/><rect class="cls-4" x="274.87" y="409.77" width="8.67" height="16.18"/><rect class="cls-5" x="281.21" y="445.03" width="26.27" height="34.55"/><rect class="cls-4" x="290.01" y="445.03" width="8.67" height="16.18"/><rect class="cls-5" x="309.86" y="445.03" width="26.27" height="34.55"/><rect class="cls-4" x="318.66" y="445.03" width="8.67" height="16.18"/><rect class="cls-7" x="65.14" y="199.33" width="56.56" height="34.55" transform="translate(186.83 433.2) rotate(180)"/><rect class="cls-4" x="89.49" y="199.33" width="7.86" height="16.18" transform="translate(186.83 414.83) rotate(180)"/><rect class="cls-7" x="35.84" y="232.88" width="56.56" height="34.55" transform="translate(128.24 500.3) rotate(180)"/><rect class="cls-4" x="60.19" y="232.88" width="7.86" height="16.18" transform="translate(128.24 481.93) rotate(180)"/><rect class="cls-7" x="94.99" y="232.88" width="56.56" height="34.55" transform="translate(246.54 500.3) rotate(180)"/><rect class="cls-4" x="119.34" y="232.88" width="7.86" height="16.18" transform="translate(246.54 481.93) rotate(180)"/><rect class="cls-7" x="94.13" y="338.27" width="56.56" height="34.55" transform="translate(244.82 711.09) rotate(180)"/><rect class="cls-4" x="118.48" y="338.27" width="7.86" height="16.18" transform="translate(244.82 692.72) rotate(180)"/><rect class="cls-7" x="40.83" y="460.19" width="56.56" height="18.37" transform="translate(138.22 938.74) rotate(180)"/><rect class="cls-4" x="65.18" y="460.19" width="7.86" height="8.6" transform="translate(138.22 928.98) rotate(180)"/><rect class="cls-7" x="99.89" y="460.19" width="56.56" height="18.37" transform="translate(256.35 938.74) rotate(180)"/><rect class="cls-4" x="124.24" y="460.19" width="7.86" height="8.6" transform="translate(256.35 928.98) rotate(180)"/><rect class="cls-7" x="41.8" y="441.6" width="56.56" height="18.37" transform="translate(140.17 901.57) rotate(180)"/><rect class="cls-4" x="66.16" y="441.6" width="7.86" height="8.6" transform="translate(140.17 891.8) rotate(180)"/><rect class="cls-7" x="100.75" y="441.6" width="56.56" height="18.37" transform="translate(258.07 901.57) rotate(180)"/><rect class="cls-4" x="125.1" y="441.6" width="7.86" height="8.6" transform="translate(258.07 891.8) rotate(180)"/><rect class="cls-7" x="39.23" y="423.05" width="56.56" height="18.37" transform="translate(135.01 864.47) rotate(180)"/><rect class="cls-4" x="63.58" y="423.05" width="7.86" height="8.6" transform="translate(135.01 854.7) rotate(180)"/><rect class="cls-7" x="99.92" y="423.05" width="56.56" height="18.37" transform="translate(256.4 864.47) rotate(180)"/><rect class="cls-4" x="124.27" y="423.05" width="7.86" height="8.6" transform="translate(256.4 854.7) rotate(180)"/><rect class="cls-7" x="138.92" y="441.09" width="56.56" height="18.37" transform="translate(617.48 283.08) rotate(90)"/><rect class="cls-4" x="158.39" y="445.98" width="7.86" height="8.6" transform="translate(612.59 287.96) rotate(90)"/><rect class="cls-7" x="156.92" y="441.09" width="56.56" height="18.37" transform="translate(635.48 265.08) rotate(90)"/><rect class="cls-4" x="176.39" y="445.98" width="7.86" height="8.6" transform="translate(630.59 269.96) rotate(90)"/><rect class="cls-7" x="154.14" y="232.88" width="56.56" height="34.55" transform="translate(364.84 500.3) rotate(180)"/><rect class="cls-4" x="178.49" y="232.88" width="7.86" height="16.18" transform="translate(364.84 481.93) rotate(180)"/><rect class="cls-7" x="286.18" y="232.88" width="62.44" height="34.55" transform="translate(634.8 500.3) rotate(180)"/><rect class="cls-4" x="313.06" y="232.88" width="8.67" height="16.18" transform="translate(634.8 481.93) rotate(180)"/><rect class="cls-7" x="137.64" y="550.86" width="77.53" height="34.55" transform="translate(352.81 1136.27) rotate(180)"/><rect class="cls-4" x="149.71" y="563.46" width="12.87" height="10.28" transform="translate(312.29 1137.2) rotate(180)"/><rect class="cls-4" x="172.07" y="550.86" width="8.67" height="16.18" transform="translate(352.81 1117.9) rotate(180)"/><rect class="cls-7" x="258.98" y="232.88" width="26.27" height="34.55" transform="translate(544.24 500.3) rotate(180)"/><rect class="cls-4" x="267.78" y="232.88" width="8.67" height="16.18" transform="translate(544.24 481.93) rotate(180)"/><rect class="cls-7" x="351.54" y="232.88" width="26.27" height="34.55" transform="translate(729.35 500.3) rotate(180)"/><rect class="cls-4" x="360.34" y="232.88" width="8.67" height="16.18" transform="translate(729.35 481.93) rotate(180)"/><rect class="cls-7" x="230.34" y="232.88" width="26.27" height="34.55" transform="translate(486.95 500.3) rotate(180)"/><rect class="cls-4" x="239.14" y="232.88" width="8.67" height="16.18" transform="translate(486.95 481.93) rotate(180)"/><rect class="cls-7" x="41.22" y="338.27" width="48.22" height="34.55"/><rect class="cls-4" x="61.98" y="338.27" width="6.7" height="16.18"/><rect class="cls-7" x="281.43" y="327.1" width="56.56" height="34.55" transform="translate(619.42 688.74) rotate(180)"/><rect class="cls-4" x="305.78" y="327.1" width="7.86" height="16.18" transform="translate(619.42 670.37) rotate(180)"/><rect class="cls-7" x="255.64" y="292.71" width="56.56" height="34.55" transform="translate(567.84 619.96) rotate(180)"/><rect class="cls-4" x="279.99" y="292.71" width="7.86" height="16.18" transform="translate(567.84 601.59) rotate(180)"/><rect class="cls-7" x="233.79" y="327.1" width="48.22" height="34.55"/><rect class="cls-4" x="254.55" y="327.1" width="6.7" height="16.18"/><rect class="cls-4" x="23.1" y="231.2" width="5.96" height="366.48"/><rect class="cls-4" x="216.8" y="231.2" width="5.96" height="366.48"/><rect class="cls-4" x="410.49" y="231.2" width="5.96" height="366.48"/><rect class="cls-4" x="23.09" y="267.03" width="393.43" height="5.62"/><rect class="cls-4" x="23.09" y="372.77" width="393.43" height="5.62"/><rect class="cls-4" x="23.09" y="478.51" width="393.43" height="5.62"/><rect class="cls-4" x="23.09" y="584.25" width="393.43" height="5.62"/><rect class="cls-7" x="38.02" y="514.03" width="77.53" height="83.65" transform="translate(153.56 1111.7) rotate(180)"/><rect class="cls-4" x="50.09" y="526.62" width="12.87" height="10.28" transform="translate(113.04 1063.53) rotate(180)"/><rect class="cls-8" x="44.11" y="514.03" width="5.82" height="83.65" transform="translate(94.04 1111.7) rotate(180)"/><rect class="cls-8" x="103.45" y="514.03" width="5.82" height="83.65" transform="translate(212.72 1111.7) rotate(180)"/><rect class="cls-4" x="72.44" y="514.03" width="8.67" height="16.18" transform="translate(153.56 1044.23) rotate(180)"/><path class="cls-7" d="M.59,143.37v23.87H419.72V143.37Zm27.13,15.55a2.42,2.42,0,0,1-2.42,2.43H8.09a2.43,2.43,0,0,1-2.42-2.43V151.7a2.42,2.42,0,0,1,2.42-2.43H25.3a2.42,2.42,0,0,1,2.42,2.43Zm32,0a2.43,2.43,0,0,1-2.43,2.43H40.12a2.43,2.43,0,0,1-2.42-2.43V151.7a2.42,2.42,0,0,1,2.42-2.43h17.2a2.43,2.43,0,0,1,2.43,2.43Zm32,0a2.43,2.43,0,0,1-2.43,2.43H72.15a2.43,2.43,0,0,1-2.42-2.43V151.7a2.42,2.42,0,0,1,2.42-2.43h17.2a2.43,2.43,0,0,1,2.43,2.43Zm32,0a2.43,2.43,0,0,1-2.43,2.43H104.17a2.42,2.42,0,0,1-2.41-2.43V151.7a2.41,2.41,0,0,1,2.41-2.43h17.21a2.43,2.43,0,0,1,2.43,2.43Zm32,0a2.43,2.43,0,0,1-2.43,2.43H136.2a2.42,2.42,0,0,1-2.42-2.43V151.7a2.42,2.42,0,0,1,2.42-2.43h17.21a2.43,2.43,0,0,1,2.43,2.43Zm32,0a2.42,2.42,0,0,1-2.42,2.43H168.23a2.42,2.42,0,0,1-2.42-2.43V151.7a2.42,2.42,0,0,1,2.42-2.43h17.21a2.42,2.42,0,0,1,2.42,2.43Zm32,0a2.42,2.42,0,0,1-2.42,2.43H200.26a2.43,2.43,0,0,1-2.43-2.43V151.7a2.43,2.43,0,0,1,2.43-2.43h17.21a2.42,2.42,0,0,1,2.42,2.43Zm32,0a2.43,2.43,0,0,1-2.43,2.43h-17.2a2.43,2.43,0,0,1-2.43-2.43V151.7a2.43,2.43,0,0,1,2.43-2.43h17.2a2.43,2.43,0,0,1,2.43,2.43Zm32,0a2.43,2.43,0,0,1-2.43,2.43H264.13a2.42,2.42,0,0,1-2.06-1.5,2.39,2.39,0,0,1-.18-.92V151.7a2.43,2.43,0,0,1,2.43-2.43h17.2A2.43,2.43,0,0,1,284,151.7Zm32,0a2.43,2.43,0,0,1-2.43,2.43H296.34a2.42,2.42,0,0,1-2.42-2.43V151.7a2.42,2.42,0,0,1,2.42-2.43h17.21A2.43,2.43,0,0,1,316,151.7Zm32,0a2.43,2.43,0,0,1-2.43,2.43H328.37a2.42,2.42,0,0,1-2.42-2.43V151.7a2.42,2.42,0,0,1,2.42-2.43h17.21A2.43,2.43,0,0,1,348,151.7Zm32,0a2.42,2.42,0,0,1-2.42,2.43H360.4a2.42,2.42,0,0,1-2.42-2.43V151.7a2.42,2.42,0,0,1,2.42-2.43h17.21A2.42,2.42,0,0,1,380,151.7Zm32,0a2.42,2.42,0,0,1-2.42,2.43H392.43a2.43,2.43,0,0,1-2.43-2.43V151.7a2.43,2.43,0,0,1,2.43-2.43h17.21a2.42,2.42,0,0,1,2.42,2.43Z"/><path class="cls-4" d="M355.83,403.62s-1.17,2.93-2.11,3.75-3.52,1.18-3.29,2.35a2.86,2.86,0,0,0,1.41,1.76s-.58,6.1.35,7.16,4.82,1.29,4.82,1.29l4.57,8.45,11.15-7.86-.47-1.18L369.68,411Z"/><path class="cls-9" d="M356.39,408.49c-.2.62-.6,1-.91.94s-.4-.68-.21-1.3.61-1,.92-.94S356.59,407.87,356.39,408.49Z"/><path class="cls-8" d="M372.26,419.34,369.68,411l-8.6-4.59-.06,2.07s-.49,2.75.45,3,2.93-2.11,4.22-1.41,1.53,3.17.82,4.23a5.41,5.41,0,0,1-2.23,1.64s3.76,3.17,6.1,3.87a7,7,0,0,0,2.18.28Z"/><polygon class="cls-4" points="368.86 411.71 372.26 419.34 375.31 415.94 368.86 411.71"/><path class="cls-7" d="M361.19,394.59s-4.25,5.07-5.4,5.56-4.25-1-4.58.16,4.25,5.23,9.81,8.18,15.21,8,16.36,8.34,2.12.81,2.29-.49-.82-1.48-.82-2,3.92-7.52,3.76-11.28c-.1-2.21-3.56-6.26-7.2-8.5-2.55-1.57-5.32-1.66-6.54-2.13C365.93,391.32,363.15,393,361.19,394.59Z"/><line class="cls-10" x1="357.1" y1="403.25" x2="376.4" y2="414.37"/><path class="cls-4" d="M358.24,401.62s5.24-7.2,8.34-7.85"/><path class="cls-8" d="M372.26,419.34s-12,8.57-13.14,10.21,0,1.53-4.11,6.22a51.12,51.12,0,0,0-6,8.1s11.38-11.39,13.73-13.5,11.38-6.22,11.5-7.39S373.43,419,372.26,419.34Z"/><path class="cls-8" d="M349.61,501.05S351.7,534,355,542.32s2.32,15,3,19.15,1.51,14.63,1.51,14.63-2.27,0-2.27,1.57v3l-1.22,5.75s-3.83,2.43-6.09,3.65-10.1,1.22-10.45,3.66-.52,3.48.35,3.83,31,0,31,0a14.24,14.24,0,0,0,.18-4.18,37.72,37.72,0,0,0-1.39-7s1-3.49,1.56-4.88-.64-13.23-.29-23.33-.23-22.82-.23-24.91,1.22-24.9,1.22-24.9,1.39-4.7,1.57-5.22S349.61,501.05,349.61,501.05Z"/><path class="cls-4" d="M350.06,442.26s-4.91,4.74-4.91,9.47-2.63,50.68-2.63,50.68l36.64,3.51s5.44-45.42,4.39-53.66S374.26,423,374.26,423l-11.5,7.39Z"/><polygon class="cls-7" points="344.15 472.21 382.32 476.99 382.54 472.75 344.44 468.22 344.15 472.21"/><polygon class="cls-7" points="343.74 482.6 380.92 487.16 380.57 491.71 343.3 487 343.74 482.6"/><polygon class="cls-5" points="320.6 450.51 342.17 449.81 355.67 459.63 337.78 460.15 320.6 450.51"/><path class="cls-4" d="M336,457.35a10,10,0,0,1-2.63-2.46,5,5,0,0,0-3-2.28c-1.23-.35-3-2.1-3.51-1.23s1,1.76,1,1.76l-3.86-1.76s-.87-2.63-1.93-2.28-1.57.88-1.57,1.41,1.4,4.91,2.8,6.48,6.67,3,8.42,3.34a11.52,11.52,0,0,1,3.68,1.75Z"/><path class="cls-8" d="M363.91,435.25l-6.14,23.67H341.46L336,457.35l-1.58,10.52s12.45,1.75,14.73,1.75,16.48,3,19.29.53S371.8,463,371.8,463s4.91,1.4,5.44.17a113.76,113.76,0,0,0,2.8-14.55c.18-2.81-3.16-12.28-7-14.91S365.31,430.87,363.91,435.25Z"/><rect class="cls-8" x="254.72" y="167.88" width="7.91" height="9.13"/><path class="cls-11" d="M277.28,201.36c-.53-11.86-8.66-28.49-18.61-28.49s-18.08,16.63-18.61,28.49Z"/><line class="cls-10" x1="258.67" y1="168.56" x2="258.67" y2="142.74"/><polyline class="cls-10" points="0.59 597.68 23.1 597.68 29.06 597.68 38.02 597.68 44.11 597.68 49.93 597.68 103.45 597.68 109.27 597.68 115.55 597.68 216.79 597.68 222.75 597.68 336.7 597.68 348.28 597.68 410.5 597.68 416.45 597.68 435.3 597.68"/></g></g></svg>