<svg xmlns="http://www.w3.org/2000/svg" viewBox="0 0 459.82 610"><defs><style>.cls-1{fill:#b0d7ff;}.cls-2,.cls-7,.cls-9{fill:#92bde3;}.cls-3{fill:#e0f0ff;}.cls-4{fill:#fff;}.cls-11,.cls-4,.cls-5,.cls-6,.cls-7,.cls-8,.cls-9{stroke:#263238;stroke-linecap:round;stroke-linejoin:round;}.cls-11,.cls-4,.cls-5,.cls-6,.cls-7,.cls-8{stroke-width:1.11px;}.cls-5{fill:#8098b1;}.cls-6{fill:#50759f;}.cls-10,.cls-8{fill:#263238;}.cls-9{stroke-width:1.08px;}.cls-11{fill:none;}.cls-12{fill:#113660;}</style></defs><title>imagen almacen 2</title><g id="Layer_2" data-name="Layer 2"><g id="Floor"><rect class="cls-1" x="0.55" width="459.27" height="610"/><path class="cls-2" d="M392.06,438.94c-.3,1.68-.62,3.35-1,5s-.75,3.53-1.18,5.28c-1,4.26-2.15,8.5-3.45,12.69a181.06,181.06,0,0,1-13.65,32.56q-3.54,6.58-7.55,12.69c-.76,1.18-1.55,2.34-2.35,3.49-.14.22-.3.45-.46.67-.4.58-.8,1.15-1.22,1.73q-3.9,5.46-8.17,10.54c-1.26,1.5-2.53,3-3.85,4.41a168.42,168.42,0,0,1-13.08,13.1c-.89.81-1.79,1.61-2.7,2.38a4.72,4.72,0,0,1-.43.37q-2.94,2.54-6,4.92c-.48.38-1,.76-1.45,1.13-2,1.57-4.11,3.1-6.2,4.57-.79.56-1.58,1.11-2.38,1.65-50.89,34.76-117.79,43.63-174,31a237.78,237.78,0,0,0-83.73-3.79C39.44,585.9,20,589.39.55,592.85V83.67a135.07,135.07,0,0,1,31.15-9c58.67-9,118.74,11.74,170.81,41,7.15,4,14.31,8.3,21.42,12.83q4.27,2.72,8.52,5.55,2.36,1.58,4.72,3.21,3.18,2.17,6.36,4.45c1.07.75,2.13,1.52,3.19,2.29.66.46,1.3.93,1.94,1.41q3.72,2.73,7.42,5.56a417.26,417.26,0,0,1,65.22,61.79c2.36,2.77,4.65,5.57,6.91,8.41q1.4,1.74,2.74,3.49,7.67,9.84,14.63,20.26l.24.37c1.09,1.63,2.16,3.26,3.21,4.92a295.83,295.83,0,0,1,37.43,83.65q1.41,5.26,2.59,10.61c.4,1.75.77,3.51,1.14,5.28q1,5.16,1.87,10.4a260.75,260.75,0,0,1,3.25,35.44A216.46,216.46,0,0,1,392.06,438.94Z"/><path class="cls-3" d="M392.06,438.94c-.3,1.68-.62,3.35-1,5s-.75,3.53-1.18,5.28c-1,4.26-2.15,8.5-3.45,12.69a181.06,181.06,0,0,1-13.65,32.56q-3.54,6.58-7.55,12.69c-.76,1.18-1.55,2.34-2.35,3.49-.14.22-.3.45-.46.67-.4.58-.8,1.15-1.22,1.73q-3.9,5.46-8.17,10.54c-1.26,1.5-2.53,3-3.85,4.41a168.42,168.42,0,0,1-13.08,13.1c-.89.81-1.79,1.61-2.7,2.38a4.72,4.72,0,0,1-.43.37q-2.94,2.54-6,4.92c-.48.38-1,.76-1.45,1.13-2,1.57-4.11,3.1-6.2,4.57-.79.56-1.58,1.11-2.38,1.65-50.89,34.76-117.79,43.63-174,31a237.78,237.78,0,0,0-83.73-3.79C39.44,585.9,20,589.39.55,592.85V83.67a135.07,135.07,0,0,1,31.15-9c58.67-9,118.74,11.74,170.81,41,7.15,4,14.31,8.3,21.42,12.83q4.27,2.72,8.52,5.55,2.36,1.58,4.72,3.21,3.18,2.17,6.36,4.45c1.07.75,2.13,1.52,3.19,2.29.66.46,1.3.93,1.94,1.41q3.72,2.73,7.42,5.56a417.26,417.26,0,0,1,65.22,61.79c2.36,2.77,4.65,5.57,6.91,8.41q1.4,1.74,2.74,3.49,7.67,9.84,14.63,20.26l.24.37c1.09,1.63,2.16,3.26,3.21,4.92a295.83,295.83,0,0,1,37.43,83.65q1.41,5.26,2.59,10.61c.4,1.75.77,3.51,1.14,5.28q1,5.16,1.87,10.4a260.75,260.75,0,0,1,3.25,35.44A216.46,216.46,0,0,1,392.06,438.94Z"/><rect class="cls-4" x="218.42" y="334.38" width="107.81" height="6.01"/><rect class="cls-4" x="221.1" y="340.58" width="8.93" height="3.68"/><rect class="cls-4" x="267.87" y="340.58" width="8.93" height="3.68"/><rect class="cls-4" x="314.81" y="340.58" width="8.93" height="3.68"/><rect class="cls-5" x="327.76" y="511.35" width="58.78" height="32.52" transform="translate(714.29 1055.23) rotate(180)"/><rect class="cls-4" x="353.06" y="511.35" width="8.17" height="15.23" transform="translate(714.29 1037.94) rotate(180)"/><rect class="cls-6" x="210.91" y="511.35" width="58.78" height="32.52" transform="translate(480.59 1055.23) rotate(180)"/><rect class="cls-4" x="236.21" y="511.35" width="8.17" height="15.23" transform="translate(480.59 1037.94) rotate(180)"/><rect class="cls-6" x="214.99" y="479.21" width="58.78" height="32.52" transform="translate(488.76 990.94) rotate(180)"/><rect class="cls-4" x="240.3" y="479.21" width="8.17" height="15.23" transform="translate(488.76 973.65) rotate(180)"/><rect class="cls-5" x="292.28" y="478.16" width="72.99" height="32.52" transform="translate(657.54 988.84) rotate(180)"/><rect class="cls-4" x="303.64" y="490.02" width="12.12" height="9.68" transform="translate(619.4 989.71) rotate(180)"/><rect class="cls-4" x="324.69" y="478.16" width="8.17" height="15.23" transform="translate(657.54 971.55) rotate(180)"/><rect class="cls-7" x="302.15" y="511.35" width="24.73" height="32.52" transform="translate(629.03 1055.23) rotate(180)"/><rect class="cls-4" x="310.43" y="511.35" width="8.17" height="15.23" transform="translate(629.03 1037.94) rotate(180)"/><rect class="cls-7" x="275.18" y="511.35" width="24.73" height="32.52" transform="translate(575.1 1055.23) rotate(180)"/><rect class="cls-4" x="283.46" y="511.35" width="8.17" height="15.23" transform="translate(575.09 1037.94) rotate(180)"/><rect class="cls-7" x="205.09" y="412.44" width="58.78" height="32.52"/><rect class="cls-4" x="230.4" y="412.44" width="8.17" height="15.23"/><rect class="cls-7" x="321.94" y="412.44" width="58.78" height="32.52"/><rect class="cls-4" x="347.25" y="412.44" width="8.17" height="15.23"/><rect class="cls-7" x="317.86" y="380.3" width="58.78" height="32.52"/><rect class="cls-4" x="343.16" y="380.3" width="8.17" height="15.23"/><rect class="cls-7" x="226.36" y="379.25" width="72.99" height="32.52"/><rect class="cls-4" x="275.87" y="391.11" width="12.12" height="9.68"/><rect class="cls-4" x="258.77" y="379.25" width="8.17" height="15.23"/><rect class="cls-5" x="264.75" y="412.44" width="24.73" height="32.52"/><rect class="cls-4" x="273.03" y="412.44" width="8.17" height="15.23"/><rect class="cls-5" x="291.72" y="412.44" width="24.73" height="32.52"/><rect class="cls-4" x="300" y="412.44" width="8.17" height="15.23"/><rect class="cls-7" x="61.32" y="181.13" width="53.25" height="32.52" transform="translate(175.89 394.78) rotate(180)"/><rect class="cls-4" x="84.25" y="181.13" width="7.4" height="15.23" transform="translate(175.89 377.49) rotate(180)"/><rect class="cls-7" x="33.74" y="212.71" width="53.25" height="32.52" transform="translate(120.73 457.95) rotate(180)"/><rect class="cls-4" x="56.67" y="212.71" width="7.4" height="15.23" transform="translate(120.73 440.66) rotate(180)"/><rect class="cls-7" x="89.43" y="212.71" width="53.25" height="32.52" transform="translate(232.1 457.95) rotate(180)"/><rect class="cls-4" x="112.35" y="212.71" width="7.4" height="15.23" transform="translate(232.1 440.66) rotate(180)"/><rect class="cls-7" x="88.62" y="311.94" width="53.25" height="32.52" transform="translate(230.49 656.4) rotate(180)"/><rect class="cls-4" x="111.54" y="311.94" width="7.4" height="15.23" transform="translate(230.49 639.1) rotate(180)"/><rect class="cls-7" x="38.44" y="426.71" width="53.25" height="17.29" transform="translate(130.13 870.72) rotate(180)"/><rect class="cls-4" x="61.37" y="426.71" width="7.4" height="8.1" transform="translate(130.13 861.53) rotate(180)"/><rect class="cls-7" x="94.04" y="426.71" width="53.25" height="17.29" transform="translate(241.33 870.72) rotate(180)"/><rect class="cls-4" x="116.97" y="426.71" width="7.4" height="8.1" transform="translate(241.33 861.53) rotate(180)"/><rect class="cls-7" x="39.36" y="409.21" width="53.25" height="17.29" transform="translate(131.96 835.72) rotate(180)"/><rect class="cls-4" x="62.28" y="409.21" width="7.4" height="8.1" transform="translate(131.96 826.53) rotate(180)"/><rect class="cls-7" x="94.85" y="409.21" width="53.25" height="17.29" transform="translate(242.95 835.72) rotate(180)"/><rect class="cls-4" x="117.78" y="409.21" width="7.4" height="8.1" transform="translate(242.95 826.53) rotate(180)"/><rect class="cls-7" x="36.93" y="391.75" width="53.25" height="17.29" transform="translate(127.1 800.8) rotate(180)"/><rect class="cls-4" x="59.85" y="391.75" width="7.4" height="8.1" transform="translate(127.1 791.6) rotate(180)"/><rect class="cls-7" x="94.07" y="391.75" width="53.25" height="17.29" transform="translate(241.38 800.8) rotate(180)"/><rect class="cls-4" x="116.99" y="391.75" width="7.4" height="8.1" transform="translate(241.38 791.6) rotate(180)"/><rect class="cls-7" x="130.78" y="408.74" width="53.25" height="17.29" transform="translate(574.79 259.98) rotate(90)"/><rect class="cls-4" x="149.11" y="413.33" width="7.4" height="8.1" transform="translate(570.19 264.57) rotate(90)"/><rect class="cls-7" x="147.73" y="408.74" width="53.25" height="17.29" transform="translate(591.74 243.03) rotate(90)"/><rect class="cls-4" x="166.06" y="413.33" width="7.4" height="8.1" transform="translate(587.14 247.63) rotate(90)"/><rect class="cls-7" x="145.12" y="212.71" width="53.25" height="32.52" transform="translate(343.48 457.95) rotate(180)"/><rect class="cls-4" x="168.04" y="212.71" width="7.4" height="15.23" transform="translate(343.48 440.66) rotate(180)"/><rect class="cls-7" x="269.42" y="212.71" width="58.78" height="32.52" transform="translate(597.63 457.95) rotate(180)"/><rect class="cls-4" x="294.73" y="212.71" width="8.17" height="15.23" transform="translate(597.63 440.66) rotate(180)"/><rect class="cls-7" x="129.58" y="512.08" width="72.99" height="32.52" transform="translate(332.15 1056.68) rotate(180)"/><rect class="cls-4" x="140.94" y="523.94" width="12.12" height="9.68" transform="translate(294 1057.55) rotate(180)"/><rect class="cls-4" x="161.99" y="512.08" width="8.17" height="15.23" transform="translate(332.15 1039.39) rotate(180)"/><rect class="cls-7" x="243.82" y="212.71" width="24.73" height="32.52" transform="translate(512.37 457.95) rotate(180)"/><rect class="cls-4" x="252.1" y="212.71" width="8.17" height="15.23" transform="translate(512.37 440.66) rotate(180)"/><rect class="cls-7" x="330.95" y="212.71" width="24.73" height="32.52" transform="translate(686.63 457.95) rotate(180)"/><rect class="cls-4" x="339.23" y="212.71" width="8.17" height="15.23" transform="translate(686.63 440.66) rotate(180)"/><rect class="cls-7" x="216.85" y="212.71" width="24.73" height="32.52" transform="translate(458.43 457.95) rotate(180)"/><rect class="cls-4" x="225.13" y="212.71" width="8.17" height="15.23" transform="translate(458.43 440.66) rotate(180)"/><rect class="cls-7" x="38.81" y="311.94" width="45.39" height="32.52"/><rect class="cls-4" x="58.35" y="311.94" width="6.31" height="15.23"/><rect class="cls-7" x="264.95" y="301.42" width="53.25" height="32.52" transform="translate(583.14 635.35) rotate(180)"/><rect class="cls-4" x="287.87" y="301.42" width="7.4" height="15.23" transform="translate(583.14 618.06) rotate(180)"/><rect class="cls-7" x="240.67" y="269.04" width="53.25" height="32.52" transform="translate(534.58 570.61) rotate(180)"/><rect class="cls-4" x="263.59" y="269.04" width="7.4" height="15.23" transform="translate(534.58 553.31) rotate(180)"/><rect class="cls-7" x="220.1" y="301.42" width="45.39" height="32.52"/><rect class="cls-4" x="239.64" y="301.42" width="6.31" height="15.23"/><rect class="cls-4" x="21.75" y="211.13" width="5.61" height="345.02"/><rect class="cls-4" x="204.1" y="211.13" width="5.61" height="345.02"/><rect class="cls-4" x="386.46" y="211.13" width="5.61" height="345.02"/><rect class="cls-4" x="21.73" y="244.87" width="370.39" height="5.29"/><rect class="cls-4" x="21.73" y="344.42" width="370.39" height="5.29"/><rect class="cls-4" x="21.73" y="443.96" width="370.39" height="5.29"/><rect class="cls-4" x="21.73" y="543.51" width="370.39" height="5.29"/><rect class="cls-7" x="35.79" y="477.4" width="72.99" height="78.75" transform="translate(144.57 1033.55) rotate(180)"/><rect class="cls-4" x="47.15" y="489.26" width="12.12" height="9.68" transform="translate(106.42 988.19) rotate(180)"/><rect class="cls-8" x="41.53" y="477.4" width="5.48" height="78.75" transform="translate(88.53 1033.55) rotate(180)"/><rect class="cls-8" x="97.39" y="477.4" width="5.48" height="78.75" transform="translate(200.27 1033.55) rotate(180)"/><rect class="cls-4" x="68.2" y="477.4" width="8.17" height="15.23" transform="translate(144.57 970.03) rotate(180)"/><path class="cls-9" d="M21.75,128.45v22.47H395.14V128.45Zm24.17,14.64a2.22,2.22,0,0,1-2.16,2.28H28.43a2.22,2.22,0,0,1-2.15-2.28v-6.8A2.22,2.22,0,0,1,28.43,134H43.76a2.22,2.22,0,0,1,2.16,2.29Zm28.54,0a2.22,2.22,0,0,1-2.16,2.28H57a2.22,2.22,0,0,1-2.15-2.28v-6.8A2.22,2.22,0,0,1,57,134H72.3a2.23,2.23,0,0,1,2.16,2.29Zm28.53,0a2.22,2.22,0,0,1-2.16,2.28H85.5a2.22,2.22,0,0,1-2.15-2.28v-6.8A2.22,2.22,0,0,1,85.5,134h15.33a2.23,2.23,0,0,1,2.16,2.29Zm28.53,0a2.22,2.22,0,0,1-2.16,2.28H114a2.22,2.22,0,0,1-2.15-2.28v-6.8A2.22,2.22,0,0,1,114,134h15.33a2.22,2.22,0,0,1,2.16,2.29Zm28.54,0a2.23,2.23,0,0,1-2.17,2.28H142.57a2.23,2.23,0,0,1-2.17-2.28v-6.8a2.23,2.23,0,0,1,2.17-2.29h15.32a2.23,2.23,0,0,1,2.17,2.29Zm28.53,0a2.22,2.22,0,0,1-2.16,2.28H171.1a2.22,2.22,0,0,1-2.16-2.28v-6.8A2.22,2.22,0,0,1,171.1,134h15.33a2.23,2.23,0,0,1,2.16,2.29Zm28.53,0a2.22,2.22,0,0,1-2.16,2.28H199.63a2.22,2.22,0,0,1-2.16-2.28v-6.8a2.23,2.23,0,0,1,2.16-2.29H215a2.23,2.23,0,0,1,2.16,2.29Zm28.53,0a2.22,2.22,0,0,1-2.16,2.28H228.16a2.22,2.22,0,0,1-2.16-2.28v-6.8a2.23,2.23,0,0,1,2.16-2.29h15.33a2.22,2.22,0,0,1,2.16,2.29Zm28.54,0a2.22,2.22,0,0,1-2.16,2.28h-15.5A2.15,2.15,0,0,1,254.7,144a2.27,2.27,0,0,1-.16-.86v-6.8A2.22,2.22,0,0,1,256.7,134H272a2.23,2.23,0,0,1,2.16,2.29Zm28.53,0a2.22,2.22,0,0,1-2.16,2.28H285.23a2.22,2.22,0,0,1-2.16-2.28v-6.8a2.23,2.23,0,0,1,2.16-2.29h15.33a2.23,2.23,0,0,1,2.16,2.29Zm28.53,0a2.22,2.22,0,0,1-2.16,2.28H313.76a2.22,2.22,0,0,1-2.16-2.28v-6.8a2.23,2.23,0,0,1,2.16-2.29h15.33a2.22,2.22,0,0,1,2.16,2.29Zm28.54,0a2.23,2.23,0,0,1-2.17,2.28H342.3a2.23,2.23,0,0,1-2.17-2.28v-6.8A2.23,2.23,0,0,1,342.3,134h15.32a2.23,2.23,0,0,1,2.17,2.29Zm28.53,0a2.22,2.22,0,0,1-2.16,2.28H370.83a2.22,2.22,0,0,1-2.16-2.28v-6.8a2.22,2.22,0,0,1,2.16-2.29h15.33a2.23,2.23,0,0,1,2.16,2.29Z"/><path class="cls-4" d="M335,373.46a13.47,13.47,0,0,1-2,3.53c-.89.77-3.32,1.11-3.1,2.21a2.68,2.68,0,0,0,1.33,1.66s-.55,5.74.33,6.74,4.53,1.21,4.53,1.21l4.31,8,10.49-7.41-.44-1.1L348,380.42Z"/><path class="cls-10" d="M335.52,378c-.18.58-.57,1-.86.89s-.38-.64-.19-1.22.57-1,.86-.89S335.71,377.46,335.52,378Z"/><path class="cls-8" d="M350.46,388.26,348,380.42l-8.1-4.33-.05,2s-.47,2.6.42,2.82,2.76-2,4-1.33,1.44,3,.78,4a5.19,5.19,0,0,1-2.1,1.55s3.53,3,5.74,3.64a6.47,6.47,0,0,0,2.05.26Z"/><polygon class="cls-4" points="347.26 381.08 350.46 388.26 353.33 385.06 347.26 381.08"/><path class="cls-7" d="M340,365s-4,4.77-5.08,5.23-4-.92-4.31.15,4,4.93,9.23,7.7,14.32,7.54,15.4,7.85,2,.77,2.15-.46-.77-1.39-.77-1.85,3.7-7.08,3.54-10.62c-.09-2.08-3.35-5.9-6.77-8-2.41-1.49-5-1.56-6.16-2C344.5,361.88,341.88,363.42,340,365Z"/><line class="cls-11" x1="336.19" y1="373.11" x2="354.35" y2="383.58"/><path class="cls-4" d="M337.27,371.58s4.92-6.78,7.85-7.39"/><path class="cls-8" d="M350.46,388.26s-11.27,8.06-12.37,9.61,0,1.44-3.87,5.86a48.48,48.48,0,0,0-5.63,7.62s10.71-10.72,12.92-12.71,10.72-5.85,10.83-7S351.57,387.93,350.46,388.26Z"/><path class="cls-8" d="M329.14,465.18s2,31,5.08,38.86,2.18,14.09,2.84,18,1.42,13.77,1.42,13.77-2.13,0-2.13,1.47v2.79l-1.15,5.41s-3.6,2.3-5.74,3.44-9.5,1.15-9.83,3.45-.49,3.28.33,3.6,29.18,0,29.18,0a13.65,13.65,0,0,0,.16-3.93,34.7,34.7,0,0,0-1.31-6.56s1-3.28,1.47-4.59-.6-12.46-.27-22-.22-21.47-.22-23.44,1.15-23.44,1.15-23.44,1.31-4.43,1.48-4.92S329.14,465.18,329.14,465.18Z"/><path class="cls-4" d="M329.56,409.84s-4.63,4.46-4.63,8.92-2.47,47.7-2.47,47.7l34.5,3.31s5.12-42.76,4.13-50.52-8.75-27.57-8.75-27.57l-10.83,7Z"/><polygon class="cls-7" points="323.99 438.04 359.93 442.53 360.13 438.54 324.27 434.27 323.99 438.04"/><polygon class="cls-7" points="323.61 447.81 358.61 452.1 358.28 456.39 323.19 451.95 323.61 447.81"/><polygon class="cls-5" points="301.82 417.6 322.13 416.94 334.84 426.18 318 426.68 301.82 417.6"/><path class="cls-4" d="M316.35,424a9.53,9.53,0,0,1-2.48-2.31,4.66,4.66,0,0,0-2.8-2.15c-1.16-.33-2.81-2-3.31-1.16s1,1.66,1,1.66l-3.64-1.66s-.82-2.47-1.81-2.14-1.49.82-1.49,1.32,1.32,4.62,2.64,6.11,6.28,2.8,7.93,3.13a10.69,10.69,0,0,1,3.46,1.66Z"/><path class="cls-8" d="M342.6,403.24l-5.78,22.28H321.47L316.35,424l-1.49,9.9s11.72,1.65,13.87,1.65,15.52,2.81,18.16.5,3.14-6.77,3.14-6.77,4.62,1.32,5.11.17a107,107,0,0,0,2.65-13.71c.16-2.64-3-11.55-6.61-14S343.92,399.11,342.6,403.24Z"/><rect class="cls-8" x="247.09" y="152.13" width="7.45" height="8.6"/><path class="cls-12" d="M268.34,183.65c-.5-11.17-8.15-26.83-17.52-26.83s-17,15.66-17.52,26.83Z"/><line class="cls-11" x1="250.82" y1="152.76" x2="250.82" y2="128.45"/><polyline class="cls-11" points="0.55 556.15 21.75 556.15 27.36 556.15 35.8 556.15 41.52 556.15 47.01 556.15 97.39 556.15 102.87 556.15 108.78 556.15 204.1 556.15 209.71 556.15 316.99 556.15 327.89 556.15 386.46 556.15 392.06 556.15 409.81 556.15"/></g></g></svg>