<svg width="353" height="481" viewBox="0 0 353 481" fill="none" xmlns="http://www.w3.org/2000/svg">
<rect x="1" width="352" height="481" fill="#AFD7FF"/>
<g style="mix-blend-mode:luminosity">
<g clip-path="url(#clip0_628_125)">
<path d="M300.511 309.172C298.183 209.672 224.262 132.235 150.333 90.6513C109.764 67.8375 62.9442 51.6086 17.245 58.6688C11.5265 59.5793 5.89985 60.9963 0.431152 62.9031V461.877C13.1062 459.631 25.8244 457.444 38.715 455.751C60.4619 452.865 82.547 453.869 103.944 458.715C167.13 472.991 247.552 452.285 282.99 386.428C295.933 362.378 301.141 335.848 300.511 309.172Z" fill="#92E3A9"/>
<path opacity="0.7" d="M300.511 309.172C298.183 209.672 224.262 132.235 150.333 90.6513C109.764 67.8375 62.9442 51.6086 17.245 58.6688C11.5265 59.5793 5.89985 60.9963 0.431152 62.9031V461.877C13.1062 459.631 25.8244 457.444 38.715 455.751C60.4619 452.865 82.547 453.869 103.944 458.715C167.13 472.991 247.552 452.285 282.99 386.428C295.933 362.378 301.141 335.848 300.511 309.172Z" fill="white"/>
<path d="M246.716 261.418H162.732V266.11H246.716V261.418Z" fill="white" stroke="#263238" stroke-linecap="round" stroke-linejoin="round"/>
<path d="M171.777 266.266H164.819V269.143H171.777V266.266Z" fill="white" stroke="#263238" stroke-linecap="round" stroke-linejoin="round"/>
<path d="M208.199 266.266H201.24V269.143H208.199V266.266Z" fill="white" stroke="#263238" stroke-linecap="round" stroke-linejoin="round"/>
<path d="M244.767 266.266H237.808V269.143H244.767V266.266Z" fill="white" stroke="#263238" stroke-linecap="round" stroke-linejoin="round"/>
<path d="M247.888 424.969H293.673V399.58H247.888V424.969Z" fill="#ADADAD" stroke="#263238" stroke-linecap="round" stroke-linejoin="round"/>
<path d="M267.599 411.471H273.962V399.58H267.599V411.471Z" fill="white" stroke="#263238" stroke-linecap="round" stroke-linejoin="round"/>
<path d="M156.869 424.969H202.655V399.58H156.869V424.969Z" fill="#6E6E6E" stroke="#263238" stroke-linecap="round" stroke-linejoin="round"/>
<path d="M176.58 411.471H182.943V399.58H176.58V411.471Z" fill="white" stroke="#263238" stroke-linecap="round" stroke-linejoin="round"/>
<path d="M160.051 399.883H205.836V374.494H160.051V399.883Z" fill="#6E6E6E" stroke="#263238" stroke-linecap="round" stroke-linejoin="round"/>
<path d="M179.762 386.385H186.125V374.494H179.762V386.385Z" fill="white" stroke="#263238" stroke-linecap="round" stroke-linejoin="round"/>
<path d="M220.253 399.062H277.11V373.673H220.253V399.062Z" fill="#ADADAD" stroke="#263238" stroke-linecap="round" stroke-linejoin="round"/>
<path d="M229.1 390.473H238.541V382.92H229.1V390.473Z" fill="white" stroke="#263238" stroke-linecap="round" stroke-linejoin="round"/>
<path d="M245.5 385.562H251.863V373.672H245.5V385.562Z" fill="white" stroke="#263238" stroke-linecap="round" stroke-linejoin="round"/>
<path d="M227.953 424.969H247.216V399.58H227.953V424.969Z" fill="#92E3A9" stroke="#263238" stroke-linecap="round" stroke-linejoin="round"/>
<path d="M234.402 411.471H240.766V399.58H234.402V411.471Z" fill="white" stroke="#263238" stroke-linecap="round" stroke-linejoin="round"/>
<path d="M206.94 424.969H226.202V399.58H206.94V424.969Z" fill="#92E3A9" stroke="#263238" stroke-linecap="round" stroke-linejoin="round"/>
<path d="M213.39 411.471H219.753V399.58H213.39V411.471Z" fill="white" stroke="#263238" stroke-linecap="round" stroke-linejoin="round"/>
<path d="M198.128 322.367H152.342V347.756H198.128V322.367Z" fill="#92E3A9" stroke="#263238" stroke-linecap="round" stroke-linejoin="round"/>
<path d="M178.417 322.367H172.053V334.258H178.417V322.367Z" fill="white" stroke="#263238" stroke-linecap="round" stroke-linejoin="round"/>
<path d="M289.147 322.367H243.361V347.756H289.147V322.367Z" fill="#92E3A9" stroke="#263238" stroke-linecap="round" stroke-linejoin="round"/>
<path d="M269.436 322.367H263.072V334.258H269.436V322.367Z" fill="white" stroke="#263238" stroke-linecap="round" stroke-linejoin="round"/>
<path d="M285.965 297.271H240.179V322.661H285.965V297.271Z" fill="#92E3A9" stroke="#263238" stroke-linecap="round" stroke-linejoin="round"/>
<path d="M266.254 297.271H259.891V309.162H266.254V297.271Z" fill="white" stroke="#263238" stroke-linecap="round" stroke-linejoin="round"/>
<path d="M225.771 296.451H168.915V321.84H225.771V296.451Z" fill="#92E3A9" stroke="#263238" stroke-linecap="round" stroke-linejoin="round"/>
<path d="M216.916 305.707H207.474V313.26H216.916V305.707Z" fill="white" stroke="#263238" stroke-linecap="round" stroke-linejoin="round"/>
<path d="M200.525 296.451H194.161V308.342H200.525V296.451Z" fill="white" stroke="#263238" stroke-linecap="round" stroke-linejoin="round"/>
<path d="M218.071 322.367H198.809V347.756H218.071V322.367Z" fill="#ADADAD" stroke="#263238" stroke-linecap="round" stroke-linejoin="round"/>
<path d="M211.622 322.367H205.259V334.258H211.622V322.367Z" fill="white" stroke="#263238" stroke-linecap="round" stroke-linejoin="round"/>
<path d="M239.084 322.367H219.822V347.756H239.084V322.367Z" fill="#ADADAD" stroke="#263238" stroke-linecap="round" stroke-linejoin="round"/>
<path d="M232.635 322.367H226.271V334.258H232.635V322.367Z" fill="white" stroke="#263238" stroke-linecap="round" stroke-linejoin="round"/>
<path d="M40.3532 167.172H81.8274V141.783H40.3532V167.172Z" fill="#92E3A9" stroke="#263238" stroke-linecap="round" stroke-linejoin="round"/>
<path d="M58.2104 153.674H63.9702V141.783H58.2104V153.674Z" fill="white" stroke="#263238" stroke-linecap="round" stroke-linejoin="round"/>
<path d="M18.8747 191.836H60.3489V166.447H18.8747V191.836Z" fill="#92E3A9" stroke="#263238" stroke-linecap="round" stroke-linejoin="round"/>
<path d="M36.7319 178.328H42.4917V166.437H36.7319V178.328Z" fill="white" stroke="#263238" stroke-linecap="round" stroke-linejoin="round"/>
<path d="M62.2458 191.836H103.72V166.447H62.2458V191.836Z" fill="#ADADAD" stroke="#263238" stroke-linecap="round" stroke-linejoin="round"/>
<path d="M80.103 178.328H85.8628V166.437H80.103V178.328Z" fill="white" stroke="#263238" stroke-linecap="round" stroke-linejoin="round"/>
<path d="M61.6164 269.299H103.091V243.91H61.6164V269.299Z" fill="#92E3A9" stroke="#263238" stroke-linecap="round" stroke-linejoin="round"/>
<path d="M79.4821 255.793H85.2419V243.902H79.4821V255.793Z" fill="white" stroke="#263238" stroke-linecap="round" stroke-linejoin="round"/>
<path d="M22.5307 347.004H64.0049V333.506H22.5307V347.004Z" fill="#92E3A9" stroke="#263238" stroke-linecap="round" stroke-linejoin="round"/>
<path d="M40.3964 339.824H46.1562V333.499H40.3964V339.824Z" fill="white" stroke="#263238" stroke-linecap="round" stroke-linejoin="round"/>
<path d="M65.8415 347.004H107.316V333.506H65.8415V347.004Z" fill="#92E3A9" stroke="#263238" stroke-linecap="round" stroke-linejoin="round"/>
<path d="M83.7072 339.824H89.467V333.499H83.7072V339.824Z" fill="white" stroke="#263238" stroke-linecap="round" stroke-linejoin="round"/>
<path d="M23.2548 333.342H64.729V319.844H23.2548V333.342Z" fill="#92E3A9" stroke="#263238" stroke-linecap="round" stroke-linejoin="round"/>
<path d="M41.112 326.17H46.8718V319.844H41.112V326.17Z" fill="white" stroke="#263238" stroke-linecap="round" stroke-linejoin="round"/>
<path d="M66.4709 333.342H107.945V319.844H66.4709V333.342Z" fill="#92E3A9" stroke="#263238" stroke-linecap="round" stroke-linejoin="round"/>
<path d="M84.3281 326.17H90.0879V319.844H84.3281V326.17Z" fill="white" stroke="#263238" stroke-linecap="round" stroke-linejoin="round"/>
<path d="M21.3578 319.705H62.832V306.207H21.3578V319.705Z" fill="#92E3A9" stroke="#263238" stroke-linecap="round" stroke-linejoin="round"/>
<path d="M39.215 312.533H44.9749V306.208H39.215V312.533Z" fill="white" stroke="#263238" stroke-linecap="round" stroke-linejoin="round"/>
<path d="M65.8671 319.705H107.341V306.207H65.8671V319.705Z" fill="#92E3A9" stroke="#263238" stroke-linecap="round" stroke-linejoin="round"/>
<path d="M83.7243 312.533H89.4841V306.208H83.7243V312.533Z" fill="white" stroke="#263238" stroke-linecap="round" stroke-linejoin="round"/>
<path d="M121.939 346.996V305.43H108.471V346.996H121.939Z" fill="#92E3A9" stroke="#263238" stroke-linecap="round" stroke-linejoin="round"/>
<path d="M114.774 329.109V323.336H108.462V329.109H114.774Z" fill="white" stroke="#263238" stroke-linecap="round" stroke-linejoin="round"/>
<path d="M135.14 347.004V305.438H121.672V347.004H135.14Z" fill="#92E3A9" stroke="#263238" stroke-linecap="round" stroke-linejoin="round"/>
<path d="M127.975 329.109V323.336H121.663V329.109H127.975Z" fill="white" stroke="#263238" stroke-linecap="round" stroke-linejoin="round"/>
<path d="M105.634 191.836H147.108V166.447H105.634V191.836Z" fill="#92E3A9" stroke="#263238" stroke-linecap="round" stroke-linejoin="round"/>
<path d="M123.491 178.328H129.251V166.437H123.491V178.328Z" fill="white" stroke="#263238" stroke-linecap="round" stroke-linejoin="round"/>
<path d="M202.456 191.836H248.241V166.447H202.456V191.836Z" fill="#92E3A9" stroke="#263238" stroke-linecap="round" stroke-linejoin="round"/>
<path d="M222.167 178.328H228.531V166.437H222.167V178.328Z" fill="white" stroke="#263238" stroke-linecap="round" stroke-linejoin="round"/>
<path d="M93.5195 425.531H150.376V400.142H93.5195V425.531Z" fill="#92E3A9" stroke="#263238" stroke-linecap="round" stroke-linejoin="round"/>
<path d="M102.375 416.959H111.816V409.406H102.375V416.959Z" fill="white" stroke="#263238" stroke-linecap="round" stroke-linejoin="round"/>
<path d="M118.766 412.033H125.13V400.142H118.766V412.033Z" fill="white" stroke="#263238" stroke-linecap="round" stroke-linejoin="round"/>
<path d="M182.512 191.836H201.775V166.447H182.512V191.836Z" fill="#92E3A9" stroke="#263238" stroke-linecap="round" stroke-linejoin="round"/>
<path d="M188.962 178.328H195.325V166.437H188.962V178.328Z" fill="white" stroke="#263238" stroke-linecap="round" stroke-linejoin="round"/>
<path d="M250.38 191.836H269.643V166.447H250.38V191.836Z" fill="#92E3A9" stroke="#263238" stroke-linecap="round" stroke-linejoin="round"/>
<path d="M256.829 178.328H263.193V166.437H256.829V178.328Z" fill="white" stroke="#263238" stroke-linecap="round" stroke-linejoin="round"/>
<path d="M272.074 191.836H291.337V166.447H272.074V191.836Z" fill="#92E3A9" stroke="#263238" stroke-linecap="round" stroke-linejoin="round"/>
<path d="M278.524 178.328H284.887V166.437H278.524V178.328Z" fill="white" stroke="#263238" stroke-linecap="round" stroke-linejoin="round"/>
<path d="M161.508 191.836H180.771V166.447H161.508V191.836Z" fill="#92E3A9" stroke="#263238" stroke-linecap="round" stroke-linejoin="round"/>
<path d="M167.949 178.328H174.312V166.437H167.949V178.328Z" fill="white" stroke="#263238" stroke-linecap="round" stroke-linejoin="round"/>
<path d="M58.1846 243.902H22.8237V269.291H58.1846V243.902Z" fill="#92E3A9" stroke="#263238" stroke-linecap="round" stroke-linejoin="round"/>
<path d="M42.9573 243.902H38.0425V255.793H42.9573V243.902Z" fill="white" stroke="#263238" stroke-linecap="round" stroke-linejoin="round"/>
<path d="M198.973 261.082H240.447V235.693H198.973V261.082Z" fill="#92E3A9" stroke="#263238" stroke-linecap="round" stroke-linejoin="round"/>
<path d="M216.83 247.582H222.59V235.691H216.83V247.582Z" fill="white" stroke="#263238" stroke-linecap="round" stroke-linejoin="round"/>
<path d="M180.055 235.812H221.529V210.423H180.055V235.812Z" fill="#92E3A9" stroke="#263238" stroke-linecap="round" stroke-linejoin="round"/>
<path d="M197.912 222.314H203.672V210.424H197.912V222.314Z" fill="white" stroke="#263238" stroke-linecap="round" stroke-linejoin="round"/>
<path d="M199.395 235.691H164.034V261.08H199.395V235.691Z" fill="#92E3A9" stroke="#263238" stroke-linecap="round" stroke-linejoin="round"/>
<path d="M184.168 235.691H179.253V247.582H184.168V235.691Z" fill="white" stroke="#263238" stroke-linecap="round" stroke-linejoin="round"/>
<path d="M13.9082 165.211H9.53662V434.553H13.9082V165.211Z" fill="white" stroke="#263238" stroke-linecap="round" stroke-linejoin="round"/>
<path d="M155.946 165.211H151.575V434.553H155.946V165.211Z" fill="white" stroke="#263238" stroke-linecap="round" stroke-linejoin="round"/>
<path d="M297.985 165.211H293.613V434.553H297.985V165.211Z" fill="white" stroke="#263238" stroke-linecap="round" stroke-linejoin="round"/>
<path d="M298.028 191.551H9.51929V195.681H298.028V191.551Z" fill="white" stroke="#263238" stroke-linecap="round" stroke-linejoin="round"/>
<path d="M298.028 269.256H9.51929V273.387H298.028V269.256Z" fill="white" stroke="#263238" stroke-linecap="round" stroke-linejoin="round"/>
<path d="M298.028 346.971H9.51929V351.101H298.028V346.971Z" fill="white" stroke="#263238" stroke-linecap="round" stroke-linejoin="round"/>
<path d="M298.028 424.684H9.51929V428.814H298.028V424.684Z" fill="white" stroke="#263238" stroke-linecap="round" stroke-linejoin="round"/>
<path d="M20.4699 434.553H77.3267L77.3267 373.076H20.4699L20.4699 434.553Z" fill="#92E3A9" stroke="#263238" stroke-linecap="round" stroke-linejoin="round"/>
<path d="M29.3164 389.885H38.7581V382.332H29.3164V389.885Z" fill="white" stroke="#263238" stroke-linecap="round" stroke-linejoin="round"/>
<path d="M24.945 434.553H29.2131L29.2131 373.076H24.945L24.945 434.553Z" fill="#263238" stroke="#263238" stroke-linecap="round" stroke-linejoin="round"/>
<path d="M68.454 434.553H72.7222L72.7222 373.076H68.454V434.553Z" fill="#263238" stroke="#263238" stroke-linecap="round" stroke-linejoin="round"/>
<path d="M45.7164 384.967H52.0798V373.076H45.7164V384.967Z" fill="white" stroke="#263238" stroke-linecap="round" stroke-linejoin="round"/>
<path d="M5.66501 423.742H0.431152V434.337H5.66501V423.742Z" fill="#92E3A9" stroke="#263238" stroke-linecap="round" stroke-linejoin="round"/>
<path d="M0.431152 419.896V423.802H3.74219L0.431152 419.896Z" fill="#92E3A9" stroke="#263238" stroke-linecap="round" stroke-linejoin="round"/>
<path d="M0.431152 127.576V131.474L3.74219 127.576H0.431152Z" fill="#92E3A9" stroke="#263238" stroke-linecap="round" stroke-linejoin="round"/>
<path d="M5.66501 117.674H0.431152V128.268H5.66501V117.674Z" fill="#92E3A9" stroke="#263238" stroke-linecap="round" stroke-linejoin="round"/>
<path d="M0.431152 100.666V104.987H11.1403C11.3754 104.986 11.6084 105.031 11.826 105.12C12.0435 105.21 12.2413 105.341 12.4079 105.508C12.5746 105.674 12.7068 105.871 12.7971 106.089C12.8873 106.307 12.9338 106.54 12.9338 106.776V112.09C12.9315 112.563 12.7424 113.016 12.408 113.35C12.0735 113.683 11.6208 113.87 11.1489 113.87H0.431152V118.191H300.382V100.666H0.431152ZM36.4042 112.09C36.4042 112.562 36.217 113.015 35.8839 113.349C35.5508 113.683 35.099 113.87 34.6279 113.87H22.0132C21.5422 113.87 21.0904 113.683 20.7573 113.349C20.4242 113.015 20.237 112.562 20.237 112.09V106.776C20.237 106.304 20.4242 105.851 20.7573 105.517C21.0904 105.183 21.5422 104.995 22.0132 104.995H34.6279C35.099 104.995 35.5508 105.183 35.8839 105.517C36.217 105.851 36.4042 106.304 36.4042 106.776V112.09ZM59.8918 112.09C59.8918 112.562 59.7047 113.015 59.3716 113.349C59.0385 113.683 58.5867 113.87 58.1156 113.87H45.5009C45.0298 113.87 44.578 113.683 44.2449 113.349C43.9118 113.015 43.7247 112.562 43.7247 112.09V106.776C43.7247 106.304 43.9118 105.851 44.2449 105.517C44.578 105.183 45.0298 104.995 45.5009 104.995H58.1156C58.5867 104.995 59.0385 105.183 59.3716 105.517C59.7047 105.851 59.8918 106.304 59.8918 106.776V112.09ZM83.3795 112.09C83.3795 112.562 83.1924 113.015 82.8593 113.349C82.5262 113.683 82.0744 113.87 81.6033 113.87H68.98C68.5179 113.857 68.0793 113.663 67.7573 113.331C67.4353 112.999 67.2553 112.554 67.2555 112.09V106.776C67.2553 106.312 67.4353 105.867 67.7573 105.535C68.0793 105.202 68.5179 105.009 68.98 104.995H81.6033C82.0744 104.995 82.5262 105.183 82.8593 105.517C83.1924 105.851 83.3795 106.304 83.3795 106.776V112.09ZM106.867 112.09C106.867 112.562 106.68 113.015 106.347 113.349C106.014 113.683 105.562 113.87 105.091 113.87H92.4762C92.0052 113.87 91.5534 113.683 91.2203 113.349C90.8871 113.015 90.7 112.562 90.7 112.09V106.776C90.7 106.304 90.8871 105.851 91.2203 105.517C91.5534 105.183 92.0052 104.995 92.4762 104.995H105.091C105.324 104.995 105.555 105.042 105.771 105.131C105.986 105.22 106.182 105.352 106.347 105.517C106.512 105.682 106.643 105.878 106.732 106.094C106.821 106.31 106.867 106.542 106.867 106.776V112.09ZM130.355 112.09C130.355 112.562 130.168 113.015 129.835 113.349C129.501 113.683 129.05 113.87 128.579 113.87H115.964C115.493 113.87 115.041 113.683 114.708 113.349C114.375 113.015 114.188 112.562 114.188 112.09V106.776C114.188 106.304 114.375 105.851 114.708 105.517C115.041 105.183 115.493 104.995 115.964 104.995H128.579C128.812 104.995 129.043 105.042 129.258 105.131C129.474 105.22 129.67 105.352 129.835 105.517C130 105.682 130.13 105.878 130.22 106.094C130.309 106.31 130.355 106.542 130.355 106.776V112.09ZM153.843 112.09C153.843 112.562 153.655 113.015 153.322 113.349C152.989 113.683 152.537 113.87 152.066 113.87H139.452C138.98 113.87 138.527 113.683 138.193 113.35C137.858 113.016 137.669 112.563 137.667 112.09V106.776C137.669 106.303 137.858 105.85 138.193 105.516C138.527 105.183 138.98 104.995 139.452 104.995H152.066C152.537 104.995 152.989 105.183 153.322 105.517C153.655 105.851 153.843 106.304 153.843 106.776V112.09ZM177.33 112.09C177.33 112.562 177.143 113.015 176.81 113.349C176.477 113.683 176.025 113.87 175.554 113.87H162.965C162.494 113.87 162.042 113.683 161.709 113.349C161.376 113.015 161.189 112.562 161.189 112.09V106.776C161.191 106.304 161.379 105.853 161.712 105.519C162.044 105.186 162.495 104.998 162.965 104.995H175.554C176.024 104.998 176.475 105.186 176.807 105.519C177.14 105.853 177.328 106.304 177.33 106.776V112.09ZM200.818 112.09C200.818 112.562 200.631 113.015 200.298 113.349C199.964 113.683 199.513 113.87 199.042 113.87H186.418C185.947 113.87 185.495 113.683 185.162 113.349C184.829 113.015 184.642 112.562 184.642 112.09V106.776C184.642 106.304 184.829 105.851 185.162 105.517C185.495 105.183 185.947 104.995 186.418 104.995H199.042C199.512 104.998 199.962 105.186 200.295 105.519C200.628 105.853 200.816 106.304 200.818 106.776V112.09ZM224.306 112.09C224.303 112.563 224.114 113.016 223.78 113.35C223.445 113.683 222.993 113.87 222.521 113.87H209.906C209.435 113.87 208.983 113.683 208.65 113.349C208.317 113.015 208.13 112.562 208.13 112.09V106.776C208.13 106.304 208.317 105.851 208.65 105.517C208.983 105.183 209.435 104.995 209.906 104.995H222.521C222.993 104.995 223.445 105.183 223.78 105.516C224.114 105.85 224.303 106.303 224.306 106.776V112.09ZM247.785 112.09C247.785 112.562 247.597 113.015 247.264 113.349C246.931 113.683 246.479 113.87 246.008 113.87H233.394C232.923 113.87 232.471 113.683 232.138 113.349C231.805 113.015 231.617 112.562 231.617 112.09V106.776C231.617 106.304 231.805 105.851 232.138 105.517C232.471 105.183 232.923 104.995 233.394 104.995H246.008C246.479 104.995 246.931 105.183 247.264 105.517C247.597 105.851 247.785 106.304 247.785 106.776V112.09ZM271.272 112.09C271.272 112.562 271.085 113.015 270.752 113.349C270.419 113.683 269.967 113.87 269.496 113.87H256.881C256.41 113.87 255.958 113.683 255.625 113.349C255.292 113.015 255.105 112.562 255.105 112.09V106.776C255.105 106.304 255.292 105.851 255.625 105.517C255.958 105.183 256.41 104.995 256.881 104.995H269.496C269.967 104.995 270.419 105.183 270.752 105.517C271.085 105.851 271.272 106.304 271.272 106.776V112.09ZM294.76 112.09C294.76 112.562 294.573 113.015 294.24 113.349C293.907 113.683 293.455 113.87 292.984 113.87H280.369C279.898 113.87 279.446 113.683 279.113 113.349C278.78 113.015 278.593 112.562 278.593 112.09V106.776C278.593 106.304 278.78 105.851 279.113 105.517C279.446 105.183 279.898 104.995 280.369 104.995H292.984C293.455 104.995 293.907 105.183 294.24 105.517C294.573 105.851 294.76 106.304 294.76 106.776V112.09Z" fill="#92E3A9" stroke="#263238" stroke-linecap="round" stroke-linejoin="round"/>
<path d="M253.501 291.932C253.125 292.922 252.605 293.851 251.958 294.688C251.268 295.293 249.371 295.552 249.543 296.417C249.618 296.691 249.748 296.948 249.926 297.169C250.104 297.391 250.326 297.573 250.578 297.704C250.578 297.704 250.147 302.189 250.837 302.967C251.527 303.745 254.363 303.918 254.363 303.918L257.718 310.131L265.892 304.35L265.547 303.485L263.659 297.367L253.501 291.932Z" fill="white" stroke="#263238" stroke-linecap="round" stroke-linejoin="round"/>
<path d="M253.941 295.509C253.795 295.967 253.493 296.27 253.269 296.2C253.044 296.131 252.975 295.699 253.122 295.25C253.269 294.801 253.562 294.481 253.786 294.559C254.01 294.636 254.079 295.06 253.941 295.509Z" fill="#263238"/>
<path d="M265.573 303.485L263.684 297.367L257.373 293.988V295.509C257.373 295.509 257.002 297.531 257.692 297.704C258.382 297.877 259.847 296.157 260.796 296.676C261.744 297.194 261.908 299 261.391 299.778C260.963 300.318 260.401 300.736 259.761 300.988C259.761 300.988 262.512 303.313 264.236 303.831C264.753 303.984 265.292 304.052 265.831 304.03L265.573 303.485Z" fill="#263238" stroke="#263238" stroke-linecap="round" stroke-linejoin="round"/>
<path d="M263.081 297.877L265.573 303.485L267.815 300.988L263.081 297.877Z" fill="white" stroke="#263238" stroke-linecap="round" stroke-linejoin="round"/>
<path d="M257.459 285.295C257.459 285.295 254.338 289.019 253.501 289.382C252.665 289.745 250.38 288.656 250.138 289.503C249.897 290.35 253.26 293.349 257.338 295.509C261.417 297.67 268.487 301.394 269.332 301.636C270.177 301.878 270.884 302.241 271.005 301.282C271.126 300.323 270.41 300.193 270.41 299.839C270.41 299.484 273.281 294.308 273.169 291.543C273.092 289.918 270.582 286.937 267.892 285.295C266.012 284.137 263.986 284.076 263.089 283.731C260.934 282.893 258.899 284.094 257.459 285.295Z" fill="#92E3A9" stroke="#263238" stroke-linecap="round" stroke-linejoin="round"/>
<path d="M254.458 291.664L268.608 299.839" stroke="#263238" stroke-linecap="round" stroke-linejoin="round"/>
<path d="M255.295 290.462C255.295 290.462 259.132 285.173 261.417 284.689L255.295 290.462Z" fill="white"/>
<path d="M255.295 290.462C255.295 290.462 259.132 285.173 261.417 284.689" stroke="#263238" stroke-linecap="round" stroke-linejoin="round"/>
<path d="M265.573 303.485C265.573 303.485 256.795 309.785 255.941 310.986C255.088 312.187 255.941 312.109 252.924 315.557C251.274 317.397 249.804 319.391 248.535 321.511C248.535 321.511 256.881 313.146 258.606 311.591C260.33 310.035 266.952 307.019 267.039 306.164C267.125 305.308 266.435 303.226 265.573 303.485Z" fill="#263238" stroke="#263238" stroke-linecap="round" stroke-linejoin="round"/>
<path d="M248.966 363.535C248.966 363.535 250.501 387.732 252.924 393.867C255.346 400.003 254.648 404.877 255.14 407.944C255.631 411.012 256.243 418.695 256.243 418.695C256.243 418.695 254.588 418.695 254.588 419.844V422.022L253.725 426.247C253.725 426.247 250.915 428.036 249.19 428.935C247.466 429.834 241.783 429.799 241.525 431.622C241.266 433.446 241.145 434.215 241.783 434.44C242.421 434.664 264.512 434.44 264.512 434.44C264.702 433.426 264.745 432.39 264.642 431.363C264.464 429.629 264.12 427.916 263.615 426.247C263.615 426.247 264.383 423.655 264.762 422.661C265.142 421.667 264.297 412.939 264.555 405.516C264.814 398.093 264.383 388.751 264.383 387.213C264.383 385.675 265.245 368.91 265.245 368.91C265.245 368.91 266.263 365.454 266.392 365.073C266.521 364.693 248.966 363.535 248.966 363.535Z" fill="#263238" stroke="#263238" stroke-linecap="round" stroke-linejoin="round"/>
<path d="M249.294 320.337C249.294 320.337 245.689 323.793 245.689 327.25C245.689 330.707 243.767 364.495 243.767 364.495L270.643 367.088C270.643 367.088 274.627 333.714 273.85 327.656C273.074 321.599 267.039 306.139 267.039 306.139L258.606 311.566L249.294 320.337Z" fill="white" stroke="#263238" stroke-linecap="round" stroke-linejoin="round"/>
<path d="M244.956 342.346L272.954 345.846L273.109 342.735L245.18 339.408L244.956 342.346Z" fill="#92E3A9" stroke="#263238" stroke-linecap="round" stroke-linejoin="round"/>
<path d="M244.663 349.977L271.927 353.321L271.669 356.674L244.335 353.209L244.663 349.977Z" fill="#92E3A9" stroke="#263238" stroke-linecap="round" stroke-linejoin="round"/>
<path d="M227.686 326.393L243.508 325.875L253.406 333.091L240.292 333.48L227.686 326.393Z" fill="#ADADAD" stroke="#263238" stroke-linecap="round" stroke-linejoin="round"/>
<path d="M239.007 331.415C238.259 330.935 237.605 330.323 237.075 329.609C236.595 328.788 235.811 328.189 234.894 327.941C233.989 327.682 232.704 326.395 232.307 327.077C231.911 327.76 233.083 328.365 233.083 328.365L230.255 327.077C230.255 327.077 229.608 325.142 228.841 325.401C228.074 325.66 227.686 326.049 227.686 326.438C228.064 328.141 228.76 329.756 229.738 331.199C230.764 332.366 234.627 333.394 235.911 333.654C236.88 333.919 237.794 334.355 238.61 334.941L239.007 331.415Z" fill="white" stroke="#263238" stroke-linecap="round" stroke-linejoin="round"/>
<path d="M259.451 315.177L254.95 332.573H242.991L239.007 331.415L237.852 339.149C237.852 339.149 246.983 340.445 248.647 340.445C250.311 340.445 260.718 342.64 262.796 340.834C264.874 339.028 265.237 335.546 265.237 335.546C265.237 335.546 268.841 336.583 269.229 335.675C270.141 332.16 270.827 328.589 271.281 324.986C271.41 322.92 268.97 315.964 266.107 314.028C263.245 312.092 260.477 311.928 259.451 315.177Z" fill="#263238" stroke="#263238" stroke-linecap="round" stroke-linejoin="round"/>
<path d="M185.185 118.676H179.382V125.39H185.185V118.676Z" fill="#263238" stroke="#263238" stroke-linecap="round" stroke-linejoin="round"/>
<path d="M195.929 143.288C195.541 134.569 189.574 122.35 182.28 122.35C174.985 122.35 169.001 134.569 168.63 143.288H195.929Z" fill="#263238" stroke="#263238" stroke-linecap="round" stroke-linejoin="round"/>
<path d="M182.28 119.178V100.201" stroke="#263238" stroke-linecap="round" stroke-linejoin="round"/>
<path d="M6.16504 434.553C107.635 434.89 210.242 434.89 311.806 434.553" stroke="#263238" stroke-linecap="round" stroke-linejoin="round"/>
</g>
</g>
<defs>
<clipPath id="clip0_628_125">
<rect width="312.238" height="406" fill="white" transform="translate(0 57)"/>
</clipPath>
</defs>
</svg>
