<svg width="101" height="31" viewBox="0 0 101 31" fill="none" xmlns="http://www.w3.org/2000/svg">
<rect width="101" height="31" rx="8" fill="#50A547"/>
<path d="M26 0H8C3.58172 0 0 3.58172 0 8V23C0 27.4183 3.58172 31 8 31H26V0Z" fill="#438C3E"/>
<path d="M39.4688 12.3125V18H38.7148V12.3125H39.4688ZM41.4531 14.6758V18H40.7305V13.7734H41.4141L41.4531 14.6758ZM41.2812 15.7266L40.9805 15.7148C40.9831 15.4258 41.026 15.1589 41.1094 14.9141C41.1927 14.6667 41.3099 14.4518 41.4609 14.2695C41.612 14.0872 41.7917 13.9466 42 13.8477C42.2109 13.7461 42.444 13.6953 42.6992 13.6953C42.9076 13.6953 43.0951 13.724 43.2617 13.7812C43.4284 13.8359 43.5703 13.9245 43.6875 14.0469C43.8073 14.1693 43.8984 14.3281 43.9609 14.5234C44.0234 14.7161 44.0547 14.9518 44.0547 15.2305V18H43.3281V15.2227C43.3281 15.0013 43.2956 14.8242 43.2305 14.6914C43.1654 14.556 43.0703 14.4583 42.9453 14.3984C42.8203 14.3359 42.6667 14.3047 42.4844 14.3047C42.3047 14.3047 42.1406 14.3424 41.9922 14.418C41.8464 14.4935 41.7201 14.5977 41.6133 14.7305C41.5091 14.8633 41.4271 15.0156 41.3672 15.1875C41.3099 15.3568 41.2812 15.5365 41.2812 15.7266ZM45.9375 13.7734V18H45.2109V13.7734H45.9375ZM45.1562 12.6523C45.1562 12.5352 45.1914 12.4362 45.2617 12.3555C45.3346 12.2747 45.4414 12.2344 45.582 12.2344C45.7201 12.2344 45.8255 12.2747 45.8984 12.3555C45.974 12.4362 46.0117 12.5352 46.0117 12.6523C46.0117 12.7643 45.974 12.8607 45.8984 12.9414C45.8255 13.0195 45.7201 13.0586 45.582 13.0586C45.4414 13.0586 45.3346 13.0195 45.2617 12.9414C45.1914 12.8607 45.1562 12.7643 45.1562 12.6523ZM48.7891 17.4844C48.9609 17.4844 49.1198 17.4492 49.2656 17.3789C49.4115 17.3086 49.5312 17.2122 49.625 17.0898C49.7188 16.9648 49.7721 16.8229 49.7852 16.6641H50.4727C50.4596 16.9141 50.375 17.1471 50.2188 17.3633C50.0651 17.5768 49.8633 17.75 49.6133 17.8828C49.3633 18.013 49.0885 18.0781 48.7891 18.0781C48.4714 18.0781 48.194 18.0221 47.957 17.9102C47.7227 17.7982 47.5273 17.6445 47.3711 17.4492C47.2174 17.2539 47.1016 17.0299 47.0234 16.7773C46.9479 16.5221 46.9102 16.2526 46.9102 15.9688V15.8047C46.9102 15.5208 46.9479 15.2526 47.0234 15C47.1016 14.7448 47.2174 14.5195 47.3711 14.3242C47.5273 14.1289 47.7227 13.9753 47.957 13.8633C48.194 13.7513 48.4714 13.6953 48.7891 13.6953C49.1198 13.6953 49.4089 13.763 49.6562 13.8984C49.9036 14.0312 50.0977 14.2135 50.2383 14.4453C50.3815 14.6745 50.4596 14.9349 50.4727 15.2266H49.7852C49.7721 15.0521 49.7227 14.8945 49.6367 14.7539C49.5534 14.6133 49.4388 14.5013 49.293 14.418C49.1497 14.332 48.9818 14.2891 48.7891 14.2891C48.5677 14.2891 48.3815 14.3333 48.2305 14.4219C48.082 14.5078 47.9635 14.625 47.875 14.7734C47.7891 14.9193 47.7266 15.082 47.6875 15.2617C47.651 15.4388 47.6328 15.6198 47.6328 15.8047V15.9688C47.6328 16.1536 47.651 16.3359 47.6875 16.5156C47.724 16.6953 47.7852 16.8581 47.8711 17.0039C47.9596 17.1497 48.0781 17.2669 48.2266 17.3555C48.3776 17.4414 48.5651 17.4844 48.7891 17.4844ZM52.0703 13.7734V18H51.3438V13.7734H52.0703ZM51.2891 12.6523C51.2891 12.5352 51.3242 12.4362 51.3945 12.3555C51.4674 12.2747 51.5742 12.2344 51.7148 12.2344C51.8529 12.2344 51.9583 12.2747 52.0312 12.3555C52.1068 12.4362 52.1445 12.5352 52.1445 12.6523C52.1445 12.7643 52.1068 12.8607 52.0312 12.9414C51.9583 13.0195 51.8529 13.0586 51.7148 13.0586C51.5742 13.0586 51.4674 13.0195 51.3945 12.9414C51.3242 12.8607 51.2891 12.7643 51.2891 12.6523ZM55.7227 17.2773V15.1016C55.7227 14.9349 55.6888 14.7904 55.6211 14.668C55.556 14.543 55.457 14.4466 55.3242 14.3789C55.1914 14.3112 55.0273 14.2773 54.832 14.2773C54.6497 14.2773 54.4896 14.3086 54.3516 14.3711C54.2161 14.4336 54.1094 14.5156 54.0312 14.6172C53.9557 14.7188 53.918 14.8281 53.918 14.9453H53.1953C53.1953 14.7943 53.2344 14.6445 53.3125 14.4961C53.3906 14.3477 53.5026 14.2135 53.6484 14.0938C53.7969 13.9714 53.974 13.875 54.1797 13.8047C54.388 13.7318 54.6198 13.6953 54.875 13.6953C55.1823 13.6953 55.4531 13.7474 55.6875 13.8516C55.9245 13.9557 56.1094 14.1133 56.2422 14.3242C56.3776 14.5326 56.4453 14.7943 56.4453 15.1094V17.0781C56.4453 17.2188 56.457 17.3685 56.4805 17.5273C56.5065 17.6862 56.5443 17.8229 56.5938 17.9375V18H55.8398C55.8034 17.9167 55.7747 17.806 55.7539 17.668C55.7331 17.5273 55.7227 17.3971 55.7227 17.2773ZM55.8477 15.4375L55.8555 15.9453H55.125C54.9193 15.9453 54.7357 15.9622 54.5742 15.9961C54.4128 16.0273 54.2773 16.0755 54.168 16.1406C54.0586 16.2057 53.9753 16.2878 53.918 16.3867C53.8607 16.4831 53.832 16.5964 53.832 16.7266C53.832 16.8594 53.862 16.9805 53.9219 17.0898C53.9818 17.1992 54.0716 17.2865 54.1914 17.3516C54.3138 17.4141 54.4635 17.4453 54.6406 17.4453C54.862 17.4453 55.0573 17.3984 55.2266 17.3047C55.3958 17.2109 55.5299 17.0964 55.6289 16.9609C55.7305 16.8255 55.7852 16.694 55.793 16.5664L56.1016 16.9141C56.0833 17.0234 56.0339 17.1445 55.9531 17.2773C55.8724 17.4102 55.7643 17.5378 55.6289 17.6602C55.4961 17.7799 55.3372 17.8802 55.1523 17.9609C54.9701 18.0391 54.7643 18.0781 54.5352 18.0781C54.2487 18.0781 53.9974 18.0221 53.7812 17.9102C53.5677 17.7982 53.401 17.6484 53.2812 17.4609C53.1641 17.2708 53.1055 17.0586 53.1055 16.8242C53.1055 16.5977 53.1497 16.3984 53.2383 16.2266C53.3268 16.0521 53.4544 15.9076 53.6211 15.793C53.7878 15.6758 53.9883 15.5872 54.2227 15.5273C54.457 15.4674 54.7188 15.4375 55.0078 15.4375H55.8477ZM58.3047 14.4375V18H57.582V13.7734H58.2852L58.3047 14.4375ZM59.625 13.75L59.6211 14.4219C59.5612 14.4089 59.5039 14.401 59.4492 14.3984C59.3971 14.3932 59.3372 14.3906 59.2695 14.3906C59.1029 14.3906 58.9557 14.4167 58.8281 14.4688C58.7005 14.5208 58.5924 14.5938 58.5039 14.6875C58.4154 14.7812 58.3451 14.8932 58.293 15.0234C58.2435 15.151 58.2109 15.2917 58.1953 15.4453L57.9922 15.5625C57.9922 15.3073 58.0169 15.0677 58.0664 14.8438C58.1185 14.6198 58.1979 14.4219 58.3047 14.25C58.4115 14.0755 58.5469 13.9401 58.7109 13.8438C58.8776 13.7448 59.0755 13.6953 59.3047 13.6953C59.3568 13.6953 59.4167 13.7018 59.4844 13.7148C59.5521 13.7253 59.599 13.737 59.625 13.75ZM63.9688 17.4844C64.1406 17.4844 64.2995 17.4492 64.4453 17.3789C64.5911 17.3086 64.7109 17.2122 64.8047 17.0898C64.8984 16.9648 64.9518 16.8229 64.9648 16.6641H65.6523C65.6393 16.9141 65.5547 17.1471 65.3984 17.3633C65.2448 17.5768 65.043 17.75 64.793 17.8828C64.543 18.013 64.2682 18.0781 63.9688 18.0781C63.651 18.0781 63.3737 18.0221 63.1367 17.9102C62.9023 17.7982 62.707 17.6445 62.5508 17.4492C62.3971 17.2539 62.2812 17.0299 62.2031 16.7773C62.1276 16.5221 62.0898 16.2526 62.0898 15.9688V15.8047C62.0898 15.5208 62.1276 15.2526 62.2031 15C62.2812 14.7448 62.3971 14.5195 62.5508 14.3242C62.707 14.1289 62.9023 13.9753 63.1367 13.8633C63.3737 13.7513 63.651 13.6953 63.9688 13.6953C64.2995 13.6953 64.5885 13.763 64.8359 13.8984C65.0833 14.0312 65.2773 14.2135 65.418 14.4453C65.5612 14.6745 65.6393 14.9349 65.6523 15.2266H64.9648C64.9518 15.0521 64.9023 14.8945 64.8164 14.7539C64.7331 14.6133 64.6185 14.5013 64.4727 14.418C64.3294 14.332 64.1615 14.2891 63.9688 14.2891C63.7474 14.2891 63.5612 14.3333 63.4102 14.4219C63.2617 14.5078 63.1432 14.625 63.0547 14.7734C62.9688 14.9193 62.9062 15.082 62.8672 15.2617C62.8307 15.4388 62.8125 15.6198 62.8125 15.8047V15.9688C62.8125 16.1536 62.8307 16.3359 62.8672 16.5156C62.9036 16.6953 62.9648 16.8581 63.0508 17.0039C63.1393 17.1497 63.2578 17.2669 63.4062 17.3555C63.5573 17.4414 63.7448 17.4844 63.9688 17.4844ZM66.2734 15.9336V15.8438C66.2734 15.5391 66.3177 15.2565 66.4062 14.9961C66.4948 14.7331 66.6224 14.5052 66.7891 14.3125C66.9557 14.1172 67.1576 13.9661 67.3945 13.8594C67.6315 13.75 67.8971 13.6953 68.1914 13.6953C68.4883 13.6953 68.7552 13.75 68.9922 13.8594C69.2318 13.9661 69.4349 14.1172 69.6016 14.3125C69.7708 14.5052 69.8997 14.7331 69.9883 14.9961C70.0768 15.2565 70.1211 15.5391 70.1211 15.8438V15.9336C70.1211 16.2383 70.0768 16.5208 69.9883 16.7812C69.8997 17.0417 69.7708 17.2695 69.6016 17.4648C69.4349 17.6576 69.2331 17.8086 68.9961 17.918C68.7617 18.0247 68.4961 18.0781 68.1992 18.0781C67.9023 18.0781 67.6354 18.0247 67.3984 17.918C67.1615 17.8086 66.9583 17.6576 66.7891 17.4648C66.6224 17.2695 66.4948 17.0417 66.4062 16.7812C66.3177 16.5208 66.2734 16.2383 66.2734 15.9336ZM66.9961 15.8438V15.9336C66.9961 16.1445 67.0208 16.3438 67.0703 16.5312C67.1198 16.7161 67.194 16.8802 67.293 17.0234C67.3945 17.1667 67.5208 17.2799 67.6719 17.3633C67.8229 17.444 67.9987 17.4844 68.1992 17.4844C68.3971 17.4844 68.5703 17.444 68.7188 17.3633C68.8698 17.2799 68.9948 17.1667 69.0938 17.0234C69.1927 16.8802 69.2669 16.7161 69.3164 16.5312C69.3685 16.3438 69.3945 16.1445 69.3945 15.9336V15.8438C69.3945 15.6354 69.3685 15.4388 69.3164 15.2539C69.2669 15.0664 69.1914 14.901 69.0898 14.7578C68.9909 14.612 68.8659 14.4974 68.7148 14.4141C68.5664 14.3307 68.3919 14.2891 68.1914 14.2891C67.9935 14.2891 67.819 14.3307 67.668 14.4141C67.5195 14.4974 67.3945 14.612 67.293 14.7578C67.194 14.901 67.1198 15.0664 67.0703 15.2539C67.0208 15.4388 66.9961 15.6354 66.9961 15.8438ZM71.75 14.6758V18H71.0273V13.7734H71.7109L71.75 14.6758ZM71.5781 15.7266L71.2773 15.7148C71.2799 15.4258 71.3229 15.1589 71.4062 14.9141C71.4896 14.6667 71.6068 14.4518 71.7578 14.2695C71.9089 14.0872 72.0885 13.9466 72.2969 13.8477C72.5078 13.7461 72.7409 13.6953 72.9961 13.6953C73.2044 13.6953 73.3919 13.724 73.5586 13.7812C73.7253 13.8359 73.8672 13.9245 73.9844 14.0469C74.1042 14.1693 74.1953 14.3281 74.2578 14.5234C74.3203 14.7161 74.3516 14.9518 74.3516 15.2305V18H73.625V15.2227C73.625 15.0013 73.5924 14.8242 73.5273 14.6914C73.4622 14.556 73.3672 14.4583 73.2422 14.3984C73.1172 14.3359 72.9635 14.3047 72.7812 14.3047C72.6016 14.3047 72.4375 14.3424 72.2891 14.418C72.1432 14.4935 72.0169 14.5977 71.9102 14.7305C71.806 14.8633 71.724 15.0156 71.6641 15.1875C71.6068 15.3568 71.5781 15.5365 71.5781 15.7266ZM77.2188 13.7734V14.3281H74.9336V13.7734H77.2188ZM75.707 12.7461H76.4297V16.9531C76.4297 17.0964 76.4518 17.2044 76.4961 17.2773C76.5404 17.3503 76.5977 17.3984 76.668 17.4219C76.7383 17.4453 76.8138 17.457 76.8945 17.457C76.9544 17.457 77.0169 17.4518 77.082 17.4414C77.1497 17.4284 77.2005 17.418 77.2344 17.4102L77.2383 18C77.181 18.0182 77.1055 18.0352 77.0117 18.0508C76.9206 18.069 76.8099 18.0781 76.6797 18.0781C76.5026 18.0781 76.3398 18.043 76.1914 17.9727C76.043 17.9023 75.9245 17.7852 75.8359 17.6211C75.75 17.4544 75.707 17.2305 75.707 16.9492V12.7461ZM79.8203 18.0781C79.526 18.0781 79.2591 18.0286 79.0195 17.9297C78.7826 17.8281 78.5781 17.6862 78.4062 17.5039C78.237 17.3216 78.1068 17.1055 78.0156 16.8555C77.9245 16.6055 77.8789 16.332 77.8789 16.0352V15.8711C77.8789 15.5273 77.9297 15.2214 78.0312 14.9531C78.1328 14.6823 78.2708 14.4531 78.4453 14.2656C78.6198 14.0781 78.8177 13.9362 79.0391 13.8398C79.2604 13.7435 79.4896 13.6953 79.7266 13.6953C80.0286 13.6953 80.2891 13.7474 80.5078 13.8516C80.7292 13.9557 80.9102 14.1016 81.0508 14.2891C81.1914 14.474 81.2956 14.6927 81.3633 14.9453C81.431 15.1953 81.4648 15.4688 81.4648 15.7656V16.0898H78.3086V15.5H80.7422V15.4453C80.7318 15.2578 80.6927 15.0755 80.625 14.8984C80.5599 14.7214 80.4557 14.5755 80.3125 14.4609C80.1693 14.3464 79.974 14.2891 79.7266 14.2891C79.5625 14.2891 79.4115 14.3242 79.2734 14.3945C79.1354 14.4622 79.0169 14.5638 78.918 14.6992C78.819 14.8346 78.7422 15 78.6875 15.1953C78.6328 15.3906 78.6055 15.6159 78.6055 15.8711V16.0352C78.6055 16.2357 78.6328 16.4245 78.6875 16.6016C78.7448 16.776 78.8268 16.9297 78.9336 17.0625C79.043 17.1953 79.1745 17.2995 79.3281 17.375C79.4844 17.4505 79.6615 17.4883 79.8594 17.4883C80.1146 17.4883 80.3307 17.4362 80.5078 17.332C80.6849 17.2279 80.8398 17.0885 80.9727 16.9141L81.4102 17.2617C81.319 17.3997 81.2031 17.5312 81.0625 17.6562C80.9219 17.7812 80.7487 17.8828 80.543 17.9609C80.3398 18.0391 80.099 18.0781 79.8203 18.0781ZM82.1172 15.9336V15.8438C82.1172 15.5391 82.1615 15.2565 82.25 14.9961C82.3385 14.7331 82.4661 14.5052 82.6328 14.3125C82.7995 14.1172 83.0013 13.9661 83.2383 13.8594C83.4753 13.75 83.7409 13.6953 84.0352 13.6953C84.332 13.6953 84.599 13.75 84.8359 13.8594C85.0755 13.9661 85.2786 14.1172 85.4453 14.3125C85.6146 14.5052 85.7435 14.7331 85.832 14.9961C85.9206 15.2565 85.9648 15.5391 85.9648 15.8438V15.9336C85.9648 16.2383 85.9206 16.5208 85.832 16.7812C85.7435 17.0417 85.6146 17.2695 85.4453 17.4648C85.2786 17.6576 85.0768 17.8086 84.8398 17.918C84.6055 18.0247 84.3398 18.0781 84.043 18.0781C83.7461 18.0781 83.4792 18.0247 83.2422 17.918C83.0052 17.8086 82.8021 17.6576 82.6328 17.4648C82.4661 17.2695 82.3385 17.0417 82.25 16.7812C82.1615 16.5208 82.1172 16.2383 82.1172 15.9336ZM82.8398 15.8438V15.9336C82.8398 16.1445 82.8646 16.3438 82.9141 16.5312C82.9635 16.7161 83.0378 16.8802 83.1367 17.0234C83.2383 17.1667 83.3646 17.2799 83.5156 17.3633C83.6667 17.444 83.8424 17.4844 84.043 17.4844C84.2409 17.4844 84.4141 17.444 84.5625 17.3633C84.7135 17.2799 84.8385 17.1667 84.9375 17.0234C85.0365 16.8802 85.1107 16.7161 85.1602 16.5312C85.2122 16.3438 85.2383 16.1445 85.2383 15.9336V15.8438C85.2383 15.6354 85.2122 15.4388 85.1602 15.2539C85.1107 15.0664 85.0352 14.901 84.9336 14.7578C84.8346 14.612 84.7096 14.4974 84.5586 14.4141C84.4102 14.3307 84.2357 14.2891 84.0352 14.2891C83.8372 14.2891 83.6628 14.3307 83.5117 14.4141C83.3633 14.4974 83.2383 14.612 83.1367 14.7578C83.0378 14.901 82.9635 15.0664 82.9141 15.2539C82.8646 15.4388 82.8398 15.6354 82.8398 15.8438Z" fill="white"/>
<path d="M18 15.5L10 10V21L18 15.5Z" fill="white"/>
</svg>
