<svg width="23" height="183" viewBox="0 0 23 183" fill="none" xmlns="http://www.w3.org/2000/svg">
<path d="M5.27148 3.0127V13H3.62402V4.96777L1.18359 5.79492V4.43457L5.07324 3.0127H5.27148Z" fill="black"/>
<path d="M7.44531 178.688V180H0.773438V178.872L4.01367 175.338C4.36914 174.937 4.64941 174.59 4.85449 174.299C5.05957 174.007 5.20312 173.745 5.28516 173.513C5.37174 173.276 5.41504 173.046 5.41504 172.822C5.41504 172.508 5.35579 172.232 5.2373 171.995C5.12337 171.754 4.95475 171.564 4.73145 171.428C4.50814 171.286 4.23698 171.216 3.91797 171.216C3.54883 171.216 3.23893 171.296 2.98828 171.455C2.73763 171.615 2.5485 171.836 2.4209 172.118C2.29329 172.396 2.22949 172.715 2.22949 173.075H0.582031C0.582031 172.496 0.714193 171.968 0.978516 171.489C1.24284 171.006 1.62565 170.623 2.12695 170.341C2.62826 170.054 3.2321 169.91 3.93848 169.91C4.60384 169.91 5.16895 170.022 5.63379 170.245C6.09863 170.468 6.45182 170.785 6.69336 171.195C6.93945 171.605 7.0625 172.091 7.0625 172.651C7.0625 172.961 7.01237 173.269 6.91211 173.574C6.81185 173.88 6.66829 174.185 6.48145 174.49C6.29915 174.791 6.08268 175.094 5.83203 175.399C5.58138 175.7 5.30566 176.006 5.00488 176.315L2.85156 178.688H7.44531Z" fill="black"/>
<path d="M17 8L17 175" stroke="#66ABF0" stroke-width="2"/>
<circle cx="17" cy="8" r="6" fill="#66ABF0"/>
<circle cx="17" cy="175" r="6" fill="#66ABF0"/>
</svg>
