<svg xmlns="http://www.w3.org/2000/svg" viewBox="0 0 16 13"><defs><style>.cls-1{fill:#fff;}</style></defs><title>4 blanco</title><g id="Layer_2" data-name="Layer 2"><g id="Layer_1-2" data-name="Layer 1"><path class="cls-1" d="M0,2.1V.5H12V2.1Z"/><path class="cls-1" d="M0,5.7H12.1V7.1c0,.1-.2.2-.4.2H.4c-.3,0-.4-.1-.4-.4Z"/><path class="cls-1" d="M12.1,10.9v1.6H0V11c0-.1.2-.2.3-.2H11.6A.9.9,0,0,0,12.1,10.9Z"/><path class="cls-1" d="M14.7,13A1.3,1.3,0,1,1,16,11.7,1.32,1.32,0,0,1,14.7,13Z"/><path class="cls-1" d="M14.7,7.8a1.3,1.3,0,0,1,0-2.6A1.31,1.31,0,0,1,16,6.4,1.49,1.49,0,0,1,14.7,7.8Z"/><path class="cls-1" d="M13.4,1.3A1.26,1.26,0,0,1,14.7,0,1.32,1.32,0,0,1,16,1.3a1.3,1.3,0,0,1-2.6,0Z"/></g></g></svg>