<svg xmlns="http://www.w3.org/2000/svg" viewBox="0 0 31 31.3"><defs><style>.cls-1{fill:#fff;}</style></defs><title>1 blanco</title><g id="Layer_2" data-name="Layer 2"><g id="Layer_1-2" data-name="Layer 1"><path class="cls-1" d="M7.2,20.5a.91.91,0,0,0-.3.7,1.08,1.08,0,0,0,.3.7c.1.1.2.2.3.2s.2.1.4.1a.6.6,0,0,0,.4-.1c.1,0,.2-.1.3-.2s.2-.2.2-.3.1-.2.1-.4a.6.6,0,0,0-.1-.4c-.1-.1-.1-.2-.2-.3a.91.91,0,0,0-.7-.3,2.39,2.39,0,0,0-.7.3"/><path class="cls-1" d="M25,5l-7.7,7.7,6.2,6.2a2.19,2.19,0,0,1,1.6-.2,2,2,0,0,1,1.3.9,2,2,0,0,1,.4,1.5,2.35,2.35,0,0,1-.7,1.4,2.67,2.67,0,0,1-1.4.7,5,5,0,0,1-1.2-.2,2.36,2.36,0,0,1-.9-.8,3.58,3.58,0,0,1-.4-1.1,2.66,2.66,0,0,1,.3-1.2l-6.2-6.2-.9-.9L24,4.2,19.7,0,4.2,4.2,0,19.7l1,1L14.7,7.1a2.26,2.26,0,0,1-.2-1.6,2,2,0,0,1,.9-1.3,2,2,0,0,1,1.5-.4,1.91,1.91,0,0,1,1.4.7A2.67,2.67,0,0,1,19,5.9a2.6,2.6,0,0,1-.4,1.5,3,3,0,0,1-1.3.9,3,3,0,0,1-1.6-.2L2,21.8l9.5,9.5L23.6,28,12.9,17.3,9.7,20.5a2.26,2.26,0,0,1,.2,1.6A2,2,0,0,1,9,23.4a2,2,0,0,1-1.5.4,1.91,1.91,0,0,1-1.4-.7,3.69,3.69,0,0,1-.7-1.4,2.6,2.6,0,0,1,.4-1.5,3,3,0,0,1,1.3-.9,3,3,0,0,1,1.6.2l4.1-4.1L24.9,27.5l1.9-.5L31,11.5Z"/><path class="cls-1" d="M25.2,21.5c.1-.1.2-.2.2-.3a1.27,1.27,0,0,0,.1-.6.55.55,0,0,0-.3-.5c-.1-.1-.2-.2-.3-.2a.85.85,0,0,0-.7,0c-.1,0-.2.1-.3.2a1,1,0,0,0,.7,1.7.86.86,0,0,0,.6-.3Z"/><path class="cls-1" d="M17.5,6.4c.1-.1.2-.2.2-.3s.1-.2.1-.4a1.08,1.08,0,0,0-.3-.7.91.91,0,0,0-.7-.3.76.76,0,0,0-.4.1c-.1,0-.2.1-.3.2s-.2.2-.2.3-.1.2-.1.4a.6.6,0,0,0,.1.4c0,.1.1.2.2.3s.2.2.3.2.2.1.4.1a.6.6,0,0,0,.4-.1c.1-.1.2-.1.3-.2"/></g></g></svg>