<svg width="33" height="33" viewBox="0 0 33 33" fill="none" xmlns="http://www.w3.org/2000/svg">
<path d="M26.2498 5.81311L18.2715 13.8556L24.7538 20.3227C25.2525 20.074 25.8342 19.9911 26.416 20.074C26.9977 20.1569 27.4964 20.4885 27.8288 20.986C28.1612 21.4006 28.3274 21.981 28.3274 22.5613C28.3274 23.1417 28.0781 23.6392 27.6626 24.0538C27.247 24.4683 26.7484 24.7171 26.1667 24.7171C25.7511 24.7171 25.3356 24.6341 24.9201 24.4683C24.5045 24.3025 24.2552 23.9708 24.0059 23.6392C23.7565 23.3075 23.6734 22.893 23.5903 22.4784C23.5903 22.0639 23.6734 21.6493 23.8397 21.2347L17.3573 14.7676L16.36 13.7727L25.3356 4.81816L20.9309 0.423828L4.8081 4.73525L0.320312 20.9031L1.3176 21.898L15.612 7.72009C15.3627 7.22261 15.2796 6.64223 15.3627 6.06184C15.4458 5.48146 15.7783 4.98399 16.2769 4.65234C16.7755 4.3207 17.2742 4.15487 17.8559 4.15487C18.4377 4.23778 18.9363 4.4036 19.3519 4.81816C19.7674 5.23272 20.0167 5.7302 20.0167 6.31058C20.0167 6.89097 19.9336 7.47135 19.5181 7.88591C19.1857 8.30047 18.687 8.63212 18.1053 8.79794C17.5235 8.88086 16.9418 8.88085 16.4431 8.54921L2.31489 22.893L12.2046 32.8424L24.8369 29.443L13.7006 18.3328L10.3763 21.6493C10.6256 22.1468 10.7087 22.7272 10.6256 23.3075C10.4594 23.8879 10.2101 24.3854 9.71143 24.7171C9.29589 25.0487 8.71414 25.2145 8.13239 25.2145C7.55064 25.2145 7.052 24.9658 6.63646 24.5512C6.22093 24.1367 5.9716 23.6392 5.9716 23.0588C5.9716 22.4784 6.05471 21.898 6.47025 21.4835C6.80268 20.986 7.30132 20.7373 7.88307 20.5714C8.46482 20.4056 9.04657 20.4885 9.54522 20.8202L13.7837 16.5917L26.416 29.1943L28.4106 28.6968L32.8152 12.529L26.2498 5.81311Z" fill="#66ABF0"/>
</svg>
