<svg width="24" height="24" viewBox="0 0 24 24" fill="none" xmlns="http://www.w3.org/2000/svg">
<path d="M18.9848 3.95516L13.1433 9.85747L17.8895 14.6037C18.2546 14.4211 18.6805 14.3603 19.1065 14.4211C19.5324 14.482 19.8975 14.7254 20.1409 15.0904C20.3843 15.3947 20.506 15.8206 20.506 16.2466C20.506 16.6725 20.3234 17.0376 20.0192 17.3418C19.7149 17.6461 19.3498 17.8286 18.9239 17.8286C18.6197 17.8286 18.3154 17.7678 18.0112 17.6461C17.7069 17.5244 17.5244 17.281 17.3418 17.0376C17.1593 16.7942 17.0985 16.49 17.0376 16.1857C17.0376 15.8815 17.0985 15.5772 17.2201 15.273L12.474 10.5268L11.7438 9.79662L18.3154 3.22497L15.0904 0L3.28582 3.16413L0 15.0296L0.730183 15.7598L11.1961 5.35467C11.0136 4.98958 10.9527 4.56364 11.0136 4.1377C11.0744 3.71176 11.3178 3.34667 11.6829 3.10328C12.048 2.85988 12.4131 2.73819 12.8391 2.73819C13.265 2.79903 13.6301 2.92073 13.9343 3.22497C14.2386 3.52922 14.4211 3.89431 14.4211 4.32025C14.4211 4.74619 14.3603 5.17213 14.056 5.47637C13.8126 5.78062 13.4475 6.02401 13.0216 6.14571C12.5957 6.20656 12.1697 6.20655 11.8046 5.96316L1.46037 16.49L8.70135 23.7918L17.9503 21.297L9.79662 13.1433L7.36268 15.5772C7.54523 15.9423 7.60607 16.3683 7.54523 16.7942C7.42353 17.2201 7.24098 17.5852 6.87589 17.8286C6.57165 18.072 6.14571 18.1937 5.71977 18.1937C5.29383 18.1937 4.92874 18.0112 4.62449 17.7069C4.32025 17.4027 4.1377 17.0376 4.1377 16.6117C4.1377 16.1857 4.19855 15.7598 4.5028 15.4555C4.74619 15.0904 5.11128 14.9079 5.53722 14.7862C5.96316 14.6645 6.3891 14.7254 6.75419 14.9688L9.85747 11.8655L19.1065 21.1145L20.5668 20.7494L23.7918 8.88389L18.9848 3.95516Z" fill="#808080"/>
</svg>
