<svg width="13" height="13" viewBox="0 0 13 13" fill="none" xmlns="http://www.w3.org/2000/svg">
<path d="M8.92059 8.14035H8.36205L8.16409 7.94946C8.85696 7.14347 9.27409 6.0971 9.27409 4.95882C9.27409 2.42067 7.2167 0.363281 4.67855 0.363281C2.1404 0.363281 0.0830078 2.42067 0.0830078 4.95882C0.0830078 7.49698 2.1404 9.55436 4.67855 9.55436C5.81683 9.55436 6.8632 9.13723 7.66919 8.44436L7.86008 8.64233V9.20086L11.3951 12.7288L12.4485 11.6754L8.92059 8.14035ZM4.67855 8.14035C2.9181 8.14035 1.49702 6.71927 1.49702 4.95882C1.49702 3.19838 2.9181 1.77729 4.67855 1.77729C6.439 1.77729 7.86008 3.19838 7.86008 4.95882C7.86008 6.71927 6.439 8.14035 4.67855 8.14035Z" fill="#66ABF0"/>
</svg>
