<svg xmlns="http://www.w3.org/2000/svg" viewBox="0 0 18.9 18.66"><defs><style>.cls-1{fill:#fff;}</style></defs><title>6 blanco</title><g id="Layer_2" data-name="Layer 2"><g id="Layer_1-2" data-name="Layer 1"><path class="cls-1" d="M17,15.76H2.5c-.2,0-.6-.1-.6-.2a1.34,1.34,0,0,1,.2-.9c.4-.5.9-.9,1.3-1.4a1.14,1.14,0,0,0,.3-.8V8a6,6,0,0,1,2-4.7,5.24,5.24,0,0,1,1.8-1c.4-.2.6-.4.6-.8a1.36,1.36,0,0,1,2-1.3,1.34,1.34,0,0,1,.7,1.4c0,.4.1.5.4.6a5.71,5.71,0,0,1,3.9,5.4v4.8a1.91,1.91,0,0,0,.3.8,13.58,13.58,0,0,0,1.2,1.2A1.33,1.33,0,0,1,17,15.76Z"/><path class="cls-1" d="M5.1,1.36c-.6.7-1.2,1.2-1.7,1.9a8.27,8.27,0,0,0-1.6,4c0,.1-.2.4-.3.4H0a8.77,8.77,0,0,1,1-4A10.34,10.34,0,0,1,3.4.56c.3-.2.5-.3.7,0A8.74,8.74,0,0,0,5.1,1.36Z"/><path class="cls-1" d="M18.9,7.56c-.1,0-.2,0-.2.1-1.5.1-1.5.1-1.8-1.4A8,8,0,0,0,14.3,2c-.1-.1-.3-.2-.4-.3v-.1L15.2.26A10.21,10.21,0,0,1,18.9,7.56Z"/><path class="cls-1" d="M11.3,16.86a1.93,1.93,0,0,1-1.8,1.8,1.87,1.87,0,0,1-1.9-1.8Z"/></g></g></svg>