<svg width="21" height="99" viewBox="0 0 21 99" fill="none" xmlns="http://www.w3.org/2000/svg">
<circle cx="15" cy="92" r="6" fill="#66ABF0"/>
<path d="M15 0V88" stroke="#66ABF0" stroke-width="2"/>
<path d="M1.70801 90.2783H2.69238C3.0752 90.2783 3.39193 90.2122 3.64258 90.0801C3.89779 89.9479 4.08691 89.7656 4.20996 89.5332C4.33301 89.3008 4.39453 89.0342 4.39453 88.7334C4.39453 88.4189 4.33757 88.1501 4.22363 87.9268C4.11426 87.6989 3.94564 87.5234 3.71777 87.4004C3.49447 87.2773 3.20964 87.2158 2.86328 87.2158C2.57161 87.2158 2.30729 87.2751 2.07031 87.3936C1.83789 87.5075 1.65332 87.6715 1.5166 87.8857C1.37988 88.0954 1.31152 88.346 1.31152 88.6377H-0.342773C-0.342773 88.109 -0.203776 87.6396 0.0742188 87.2295C0.352214 86.8193 0.730469 86.498 1.20898 86.2656C1.69206 86.0286 2.23438 85.9102 2.83594 85.9102C3.47852 85.9102 4.03906 86.0173 4.51758 86.2314C5.00065 86.4411 5.37663 86.7555 5.64551 87.1748C5.91439 87.5941 6.04883 88.1136 6.04883 88.7334C6.04883 89.016 5.98275 89.3031 5.85059 89.5947C5.71842 89.8864 5.52246 90.153 5.2627 90.3945C5.00293 90.6315 4.67936 90.8252 4.29199 90.9756C3.90462 91.1214 3.45573 91.1943 2.94531 91.1943H1.70801V90.2783ZM1.70801 91.5635V90.6611H2.94531C3.52865 90.6611 4.02539 90.7295 4.43555 90.8662C4.85026 91.0029 5.1875 91.1921 5.44727 91.4336C5.70703 91.6706 5.89616 91.9417 6.01465 92.2471C6.1377 92.5524 6.19922 92.876 6.19922 93.2178C6.19922 93.6826 6.11491 94.0973 5.94629 94.4619C5.78223 94.8219 5.54753 95.1273 5.24219 95.3779C4.93685 95.6286 4.5791 95.8177 4.16895 95.9453C3.76335 96.0729 3.32129 96.1367 2.84277 96.1367C2.41439 96.1367 2.00423 96.0775 1.6123 95.959C1.22038 95.8405 0.869466 95.665 0.55957 95.4326C0.249674 95.1956 0.00358073 94.9017 -0.178711 94.5508C-0.356445 94.1953 -0.445312 93.7852 -0.445312 93.3203H1.20215C1.20215 93.6165 1.27051 93.8786 1.40723 94.1064C1.5485 94.3298 1.74447 94.5052 1.99512 94.6328C2.25033 94.7604 2.54199 94.8242 2.87012 94.8242C3.21647 94.8242 3.51497 94.7627 3.76562 94.6396C4.01628 94.5166 4.20768 94.3343 4.33984 94.0928C4.47656 93.8512 4.54492 93.5596 4.54492 93.2178C4.54492 92.8304 4.46973 92.516 4.31934 92.2744C4.16895 92.0329 3.95475 91.8551 3.67676 91.7412C3.39876 91.6227 3.07064 91.5635 2.69238 91.5635H1.70801Z" fill="black"/>
</svg>
