<svg width="22" height="99" viewBox="0 0 22 99" fill="none" xmlns="http://www.w3.org/2000/svg">
<path d="M5.27148 3.0127V13H3.62402V4.96777L1.18359 5.79492V4.43457L5.07324 3.0127H5.27148Z" fill="black"/>
<path d="M7.44531 94.6875V96H0.773438V94.8721L4.01367 91.3379C4.36914 90.9368 4.64941 90.5905 4.85449 90.2988C5.05957 90.0072 5.20312 89.7451 5.28516 89.5127C5.37174 89.2757 5.41504 89.0456 5.41504 88.8223C5.41504 88.5078 5.35579 88.2321 5.2373 87.9951C5.12337 87.7536 4.95475 87.5645 4.73145 87.4277C4.50814 87.2865 4.23698 87.2158 3.91797 87.2158C3.54883 87.2158 3.23893 87.2956 2.98828 87.4551C2.73763 87.6146 2.5485 87.8356 2.4209 88.1182C2.29329 88.3962 2.22949 88.7152 2.22949 89.0752H0.582031C0.582031 88.4964 0.714193 87.9678 0.978516 87.4893C1.24284 87.0062 1.62565 86.6234 2.12695 86.3408C2.62826 86.0537 3.2321 85.9102 3.93848 85.9102C4.60384 85.9102 5.16895 86.0218 5.63379 86.2451C6.09863 86.4684 6.45182 86.7852 6.69336 87.1953C6.93945 87.6055 7.0625 88.0908 7.0625 88.6514C7.0625 88.9613 7.01237 89.2689 6.91211 89.5742C6.81185 89.8796 6.66829 90.1849 6.48145 90.4902C6.29915 90.791 6.08268 91.0941 5.83203 91.3994C5.58138 91.7002 5.30566 92.0055 5.00488 92.3154L2.85156 94.6875H7.44531Z" fill="black"/>
<circle cx="16" cy="7" r="6" fill="#66ABF0"/>
<circle cx="16" cy="92" r="6" fill="#66ABF0"/>
<path d="M16 3V88" stroke="#66ABF0" stroke-width="2"/>
</svg>
