<svg width="49" height="49" viewBox="0 0 49 49" fill="none" xmlns="http://www.w3.org/2000/svg">
<path d="M6.125 10.2083V38.7917C6.125 41.0375 7.94208 42.875 10.2083 42.875H38.7917C41.0375 42.875 42.875 41.0375 42.875 38.7917V10.2083C42.875 7.9625 41.0375 6.125 38.7917 6.125H10.2083C7.94208 6.125 6.125 7.9625 6.125 10.2083ZM30.625 18.375C30.625 21.7642 27.8892 24.5 24.5 24.5C21.1108 24.5 18.375 21.7642 18.375 18.375C18.375 14.9858 21.1108 12.25 24.5 12.25C27.8892 12.25 30.625 14.9858 30.625 18.375ZM12.25 34.7083C12.25 30.625 20.4167 28.3792 24.5 28.3792C28.5833 28.3792 36.75 30.625 36.75 34.7083V36.75H12.25V34.7083Z" fill="#66ABF0"/>
</svg>
