<svg xmlns="http://www.w3.org/2000/svg" viewBox="0 0 18.91 19.2"><defs><style>.cls-1{fill:#fff;}</style></defs><title>2 blanco</title><g id="Layer_2" data-name="Layer 2"><g id="Layer_1-2" data-name="Layer 1"><path class="cls-1" d="M0,19.2v-3a1.8,1.8,0,0,1,.4-.9,5.77,5.77,0,0,1,2.5-1.8,15.37,15.37,0,0,1,7.3-1.4,14.8,14.8,0,0,1,7.1,2.2,3.15,3.15,0,0,1,1.6,2.9v1.5c0,.4-.1.5-.5.5H0Z"/><path class="cls-1" d="M9.6,9.5A4.63,4.63,0,0,1,4.8,4.9,4.77,4.77,0,0,1,9.3,0a4.82,4.82,0,0,1,5,4.7A4.85,4.85,0,0,1,9.6,9.5Z"/></g></g></svg>